<svg viewBox="0 0 48 48" fill="none" xmlns="http://www.w3.org/2000/svg">
<path d="M26.7987 4.1921C23.501 3.74072 20.1428 4.11288 17.0239 5.27535C13.905 6.43781 11.1225 8.35443 8.9247 10.8541C7.0437 13.0205 5.64806 15.5643 4.83154 18.3146C4.01502 21.065 3.79651 23.9583 4.1907 26.8001C5.2507 34.5881 11.1067 41.2141 18.7607 43.2921C20.467 43.759 22.2277 43.9971 23.9967 44.0001L24.2807 43.9981C25.2918 43.9851 26.2832 43.7168 27.1629 43.2182C28.0426 42.7196 28.7821 42.0069 29.3127 41.1461C29.8451 40.29 30.1523 39.3131 30.2058 38.3064C30.2593 37.2997 30.0573 36.2958 29.6187 35.3881L29.2207 34.5561C28.9146 33.958 28.7708 33.29 28.8038 32.619C28.8368 31.9479 29.0454 31.2973 29.4087 30.7321C29.9285 29.8877 30.7429 29.2659 31.6945 28.987C32.6461 28.7081 33.6673 28.7919 34.5607 29.2221L35.3847 29.6161C36.2087 30.0121 37.0847 30.2141 37.9867 30.2141C39.5652 30.206 41.078 29.5806 42.2015 28.4717C43.3249 27.3628 43.97 25.8584 43.9987 24.2801C44.0235 22.4161 43.7858 20.5579 43.2927 18.7601C41.2127 11.1081 34.5867 5.2521 26.7987 4.1921ZM37.1147 26.0101L36.2907 25.6161C32.6347 23.8601 28.1507 25.2201 26.0207 28.6041C24.5447 30.9561 24.3947 33.7561 25.6127 36.2881L26.0107 37.1201C26.1599 37.4223 26.2288 37.7579 26.211 38.0944C26.1931 38.431 26.089 38.7573 25.9087 39.0421C25.7329 39.333 25.4854 39.5739 25.1898 39.7416C24.8943 39.9093 24.5606 39.9984 24.2207 40.0001H23.9967C22.5812 39.9962 21.1725 39.8059 19.8067 39.4341C13.6807 37.7721 9.0007 32.4761 8.1547 26.2621C7.5127 21.5521 8.8587 17.0161 11.9407 13.4841C13.6942 11.4726 15.9228 9.9314 18.4238 9.00085C20.9248 8.07031 23.6188 7.77992 26.2607 8.1561C32.4747 9.0021 37.7707 13.6841 39.4327 19.8081C39.8287 21.2681 40.0187 22.7561 39.9967 24.2221C39.9727 25.8361 38.3067 26.5881 37.1147 26.0101Z" fill="currentColor"/>
<path d="M14.9987 32C16.6555 32 17.9987 30.6569 17.9987 29C17.9987 27.3431 16.6555 26 14.9987 26C13.3418 26 11.9987 27.3431 11.9987 29C11.9987 30.6569 13.3418 32 14.9987 32Z" fill="currentColor"/>
<path d="M14.9987 24C16.6555 24 17.9987 22.6569 17.9987 21C17.9987 19.3431 16.6555 18 14.9987 18C13.3418 18 11.9987 19.3431 11.9987 21C11.9987 22.6569 13.3418 24 14.9987 24Z" fill="currentColor"/>
<path d="M20.9987 18C22.6555 18 23.9987 16.6569 23.9987 15C23.9987 13.3431 22.6555 12 20.9987 12C19.3418 12 17.9987 13.3431 17.9987 15C17.9987 16.6569 19.3418 18 20.9987 18Z" fill="currentColor"/>
<path d="M28.9987 18C30.6555 18 31.9987 16.6569 31.9987 15C31.9987 13.3431 30.6555 12 28.9987 12C27.3418 12 25.9987 13.3431 25.9987 15C25.9987 16.6569 27.3418 18 28.9987 18Z" fill="currentColor"/>
</svg>
