<?xml version="1.0" encoding="UTF-8"?>
<svg id="Layer_1" xmlns="http://www.w3.org/2000/svg" version="1.1" viewBox="0 0 237.9 238.1">
  <!-- Generator: Adobe Illustrator 30.2.1, SVG Export Plug-In . SVG Version: 2.1.1 Build 1)  -->
  <defs>
    <style>
      .st0 {
        isolation: isolate;
      }

      .st1 {
        fill: #fff8ca;
      }
    </style>
  </defs>
  <g>
    <path class="st1" d="M140.8,37.7v.3c3.4,1,6.7,2.1,10,3.5,9.7,4.2,18.5,10.1,26,17.7,7.5,7.6,13.4,16.3,17.5,26.1,4.2,10.1,6.4,20.9,6.3,31.9,0,11-2.2,21.7-6.5,31.8-4.1,9.7-10.1,18.5-17.6,25.9-7.5,7.5-16.3,13.4-26,17.5-10.1,4.3-20.8,6.4-31.8,6.4h-.3c-11.1,0-21.8-2.2-31.9-6.6-9.7-4.2-18.5-10.1-26-17.7-7.5-7.6-13.4-16.3-17.5-26.1-4.2-10.1-6.4-20.9-6.3-31.9,0-11,2.2-21.7,6.5-31.8,4.1-9.7,10.1-18.4,17.6-25.9,7.5-7.5,16.3-13.4,26-17.5,3.1-1.3,6.3-2.4,9.6-3.4v-.3c-34.5,9.7-59.9,41.3-60,78.9-.2,45.4,36.5,82.4,81.9,82.5.1,0,.2,0,.3,0,45.3,0,82.1-36.6,82.2-81.9.1-37.8-25.3-69.8-60-79.5Z"/>
    <path class="st1" d="M35.1,116.1c1.3,1.3,1.8,2.5,1.4,2.8s-1.5-.4-2.7-1.9c-1.1-1.5-1.3-2.7-1.3-2.7,0,0,1.3.6,2.6,1.9Z"/>
    <path class="st1" d="M37.7,116.3c-1.3,1.2-1.7,2.4-1.3,2.6.4.3,1.5-.3,2.6-1.8,1.1-1.4,1.2-2.6,1.2-2.6,0,0-1.2.5-2.5,1.7Z"/>
    <path class="st1" d="M35.2,120.5c1.4,1.2,1.9,2.4,1.5,2.7s-1.6-.3-2.8-1.8c-1.2-1.5-1.5-2.7-1.5-2.7,0,0,1.3.5,2.7,1.7Z"/>
    <path class="st1" d="M37.8,120.5c-1.2,1.2-1.6,2.5-1.1,2.7.5.2,1.5-.4,2.5-1.9s1.1-2.6,1.1-2.6c0,0-1.2.6-2.5,1.9Z"/>
    <path class="st1" d="M35.5,124.8c1.5,1.1,2.1,2.3,1.6,2.6s-1.6-.2-2.8-1.7c-1.3-1.4-1.6-2.6-1.6-2.6,0,0,1.3.5,2.8,1.6Z"/>
    <path class="st1" d="M38.1,124.7c-1.2,1.3-1.4,2.5-1,2.7.5.2,1.5-.5,2.4-2,.9-1.5,1-2.7,1-2.7,0,0-1.2.7-2.4,2Z"/>
    <path class="st1" d="M36,129.2c1.5,1,2.2,2.2,1.8,2.5-.4.3-1.6-.2-2.9-1.5-1.4-1.3-1.7-2.5-1.7-2.5,0,0,1.4.4,2.9,1.5Z"/>
    <path class="st1" d="M38.7,128.9c-1.1,1.3-1.3,2.6-.8,2.8.5.2,1.4-.6,2.3-2.2.8-1.6.8-2.7.8-2.7,0,0-1.1.7-2.2,2.1Z"/>
    <path class="st1" d="M36.8,133.5c1.6.9,2.3,2.1,1.9,2.4-.4.3-1.6,0-3-1.3-1.4-1.3-1.9-2.4-1.9-2.4,0,0,1.4.3,3,1.3Z"/>
    <path class="st1" d="M39.4,133.1c-1,1.4-1.2,2.7-.7,2.8.5.2,1.4-.6,2.1-2.3.7-1.6.7-2.8.7-2.8,0,0-1.1.8-2.1,2.2Z"/>
    <path class="st1" d="M37.8,137.7c1.6.9,2.4,2,2,2.3-.4.4-1.6,0-3.1-1.2-1.5-1.2-2-2.3-2-2.3,0,0,1.4.3,3,1.1Z"/>
    <path class="st1" d="M40.4,137.2c-.9,1.5-1,2.7-.5,2.9.5.1,1.4-.7,2-2.4.7-1.7.5-2.8.5-2.8,0,0-1.1.8-2,2.3Z"/>
    <path class="st1" d="M39,141.9c1.7.8,2.5,1.8,2.1,2.2-.3.4-1.6,0-3.1-1-1.5-1.1-2.1-2.2-2.1-2.2,0,0,1.4.2,3.1,1Z"/>
    <path class="st1" d="M41.5,141.3c-.9,1.5-.9,2.8-.4,2.9.5.1,1.3-.8,1.9-2.5.6-1.7.4-2.8.4-2.8,0,0-1,.9-1.9,2.4Z"/>
    <path class="st1" d="M40.4,146.1c1.7.7,2.6,1.7,2.3,2.1-.3.4-1.6.2-3.2-.9-1.6-1-2.2-2.1-2.2-2.1,0,0,1.4.1,3.1.8Z"/>
    <path class="st1" d="M42.9,145.3c-.8,1.5-.7,2.8-.2,2.9s1.3-.9,1.8-2.6c.5-1.7.2-2.8.2-2.8,0,0-1,.9-1.8,2.5Z"/>
    <path class="st1" d="M42,150.1c1.7.6,2.7,1.6,2.4,2-.3.4-1.6.3-3.2-.7-1.7-.9-2.3-1.9-2.3-1.9,0,0,1.4,0,3.2.7Z"/>
    <path class="st1" d="M44.5,149.2c-.7,1.6-.6,2.9,0,2.9.5,0,1.2-.9,1.6-2.7.4-1.7,0-2.9,0-2.9,0,0-.9,1-1.6,2.6Z"/>
    <path class="st1" d="M43.9,154.1c1.8.5,2.7,1.4,2.5,1.9-.3.4-1.6.3-3.3-.5-1.7-.9-2.4-1.8-2.4-1.8,0,0,1.4,0,3.2.5Z"/>
    <path class="st1" d="M46.3,153c-.6,1.6-.4,2.9,0,2.9s1.2-1,1.5-2.8c.3-1.8,0-2.9,0-2.9,0,0-.9,1-1.5,2.7Z"/>
    <path class="st1" d="M45.9,158c1.8.4,2.8,1.3,2.6,1.7-.3.4-1.5.4-3.3-.4-1.7-.8-2.5-1.7-2.5-1.7,0,0,1.4-.1,3.2.3Z"/>
    <path class="st1" d="M48.3,156.8c-.5,1.6-.3,2.9.2,2.9.5,0,1.1-1,1.3-2.8.2-1.8-.2-2.8-.2-2.8,0,0-.8,1.1-1.3,2.8Z"/>
    <path class="st1" d="M48.2,161.7c1.8.3,2.9,1.1,2.6,1.6s-1.5.5-3.3-.2c-1.8-.7-2.6-1.6-2.6-1.6,0,0,1.4-.2,3.2.1Z"/>
    <path class="st1" d="M50.5,160.4c-.4,1.7-.1,2.9.4,2.9.5,0,1.1-1.1,1.2-2.9s-.4-2.8-.4-2.8c0,0-.7,1.1-1.2,2.8Z"/>
    <path class="st1" d="M50.6,165.3c1.8.2,2.9,1,2.7,1.5-.2.5-1.5.6-3.3,0s-2.7-1.4-2.7-1.4c0,0,1.4-.3,3.2,0Z"/>
    <path class="st1" d="M52.8,163.9c-.4,1.7,0,2.9.5,2.9.5,0,1-1.2,1-2.9,0-1.8-.5-2.8-.5-2.8,0,0-.7,1.2-1,2.9Z"/>
    <path class="st1" d="M53.3,168.8c1.8.1,3,.8,2.8,1.3-.2.5-1.4.7-3.3.2-1.8-.5-2.8-1.3-2.8-1.3,0,0,1.4-.3,3.2-.2Z"/>
    <path class="st1" d="M55.4,167.3c-.3,1.7.2,2.9.7,2.8.5,0,.9-1.2.9-3,0-1.8-.7-2.8-.7-2.8,0,0-.6,1.2-.9,3Z"/>
    <path class="st1" d="M56.1,172.2c1.8,0,3,.7,2.9,1.2s-1.4.7-3.3.3c-1.9-.4-2.8-1.1-2.8-1.1,0,0,1.3-.4,3.2-.4Z"/>
    <path class="st1" d="M58.1,170.5c-.2,1.7.3,2.9.8,2.8s.9-1.3.7-3c-.2-1.8-.8-2.7-.8-2.7,0,0-.6,1.2-.7,3Z"/>
    <path class="st1" d="M59,175.4c1.8,0,3.1.5,2.9,1-.1.5-1.4.8-3.3.5s-2.9-1-2.9-1c0,0,1.3-.5,3.2-.5Z"/>
    <path class="st1" d="M61,173.6c0,1.7.5,2.9,1,2.7.5-.1.8-1.3.6-3.1-.3-1.8-.9-2.7-.9-2.7,0,0-.5,1.3-.6,3Z"/>
    <path class="st1" d="M62.2,178.4c1.8-.2,3.1.4,3,.9-.1.5-1.3.9-3.2.7-1.9-.2-2.9-.8-2.9-.8,0,0,1.3-.5,3.2-.7Z"/>
    <path class="st1" d="M64.1,176.5c0,1.7.6,2.8,1.1,2.7.5-.2.7-1.3.4-3.1-.4-1.8-1.1-2.6-1.1-2.6,0,0-.4,1.3-.4,3.1Z"/>
    <path class="st1" d="M65.5,181.3c1.8-.3,3.1.2,3,.7,0,.5-1.3.9-3.2.8-1.9,0-3-.7-3-.7,0,0,1.3-.6,3.1-.9Z"/>
    <path class="st1" d="M67.3,179.3c0,1.7.8,2.8,1.2,2.6.5-.2.7-1.4.2-3.1-.5-1.7-1.2-2.6-1.2-2.6,0,0-.4,1.3-.3,3.1Z"/>
    <path class="st1" d="M68.9,184c1.8-.3,3.1,0,3,.5,0,.5-1.2,1-3.1,1-1.9,0-3-.5-3-.5,0,0,1.2-.7,3.1-1Z"/>
    <path class="st1" d="M70.6,181.9c.2,1.7.9,2.8,1.4,2.6.5-.2.6-1.4,0-3.1-.5-1.7-1.4-2.5-1.4-2.5,0,0-.3,1.3,0,3.1Z"/>
    <path class="st1" d="M72.5,186.5c1.8-.4,3.1-.1,3.1.4,0,.5-1.2,1.1-3.1,1.2-1.9.1-3-.4-3-.4,0,0,1.2-.7,3-1.2Z"/>
    <path class="st1" d="M74.1,184.3c.3,1.7,1.1,2.7,1.5,2.5.5-.2.5-1.4-.1-3.1-.6-1.7-1.5-2.4-1.5-2.4,0,0-.2,1.3,0,3.1Z"/>
    <path class="st1" d="M76.2,188.8c1.8-.5,3.1-.3,3.1.2s-1.1,1.1-3,1.3c-1.9.2-3-.2-3-.2,0,0,1.2-.8,3-1.3Z"/>
    <path class="st1" d="M77.7,186.6c.4,1.7,1.2,2.7,1.6,2.4.4-.3.5-1.5-.3-3.1-.7-1.6-1.6-2.4-1.6-2.4,0,0-.1,1.3.2,3.1Z"/>
    <path class="st1" d="M80,190.9c1.7-.6,3.1-.5,3.1,0s-1.1,1.2-2.9,1.5c-1.9.3-3,0-3,0,0,0,1.1-.9,2.9-1.5Z"/>
    <path class="st1" d="M81.4,188.6c.5,1.7,1.3,2.6,1.8,2.3.4-.3.4-1.5-.4-3.1-.8-1.6-1.7-2.3-1.7-2.3,0,0,0,1.3.4,3.1Z"/>
    <path class="st1" d="M84,192.8c1.7-.7,3-.6,3.1-.1,0,.5-1,1.2-2.9,1.6-1.9.4-3,.1-3,.1,0,0,1.1-.9,2.8-1.6Z"/>
    <path class="st1" d="M85.2,190.5c.5,1.6,1.5,2.5,1.9,2.2s.3-1.5-.6-3.1c-.9-1.6-1.8-2.2-1.8-2.2,0,0,0,1.3.5,3Z"/>
    <path class="st1" d="M88,194.5c1.7-.8,3-.8,3.1-.3,0,.5-.9,1.3-2.8,1.8-1.8.5-3,.3-3,.3,0,0,1-1,2.7-1.8Z"/>
    <path class="st1" d="M89.1,192.1c.6,1.6,1.6,2.4,2,2.1.4-.3.2-1.5-.7-3-1-1.5-2-2.1-2-2.1,0,0,0,1.3.7,3Z"/>
    <path class="st1" d="M92.1,196c1.6-.9,3-.9,3.1-.4.1.5-.9,1.3-2.7,1.9-1.8.6-3,.4-3,.4,0,0,1-1,2.6-1.9Z"/>
    <path class="st1" d="M93.1,193.6c.7,1.6,1.7,2.3,2.1,2s.1-1.5-.9-3c-1-1.5-2.1-2-2.1-2,0,0,.1,1.3.9,3Z"/>
    <path class="st1" d="M96.3,197.3c1.6-1,2.9-1.1,3-.6.1.5-.8,1.4-2.6,2.1-1.8.7-3,.6-3,.6,0,0,.9-1.1,2.5-2.1Z"/>
    <path class="st1" d="M97.1,194.8c.8,1.5,1.8,2.3,2.2,1.9.4-.4,0-1.5-1.1-2.9-1.1-1.4-2.2-1.9-2.2-1.9,0,0,.2,1.3,1,2.9Z"/>
    <path class="st1" d="M100.5,198.4c1.5-1,2.8-1.2,3-.7.2.5-.7,1.4-2.5,2.2-1.7.8-2.9.7-2.9.7,0,0,.9-1.1,2.4-2.2Z"/>
    <path class="st1" d="M101.2,195.8c.9,1.5,2,2.2,2.3,1.8s0-1.5-1.2-2.9c-1.2-1.3-2.3-1.7-2.3-1.7,0,0,.3,1.3,1.2,2.9Z"/>
    <path class="st1" d="M104.8,199.2c1.4-1.1,2.8-1.4,3-.9.2.5-.6,1.5-2.3,2.3-1.7.9-2.9.9-2.9.9,0,0,.8-1.2,2.3-2.3Z"/>
    <path class="st1" d="M105.4,196.6c.9,1.4,2.1,2,2.4,1.6.3-.4-.1-1.5-1.4-2.8-1.3-1.3-2.3-1.6-2.3-1.6,0,0,.3,1.3,1.3,2.8Z"/>
    <path class="st1" d="M109.1,199.8c1.4-1.2,2.7-1.5,2.9-1.1.2.5-.6,1.5-2.2,2.4-1.6,1-2.9,1-2.9,1,0,0,.7-1.2,2.2-2.4Z"/>
    <path class="st1" d="M109.6,197.2c1,1.4,2.2,1.9,2.5,1.5.3-.4-.2-1.5-1.5-2.7s-2.4-1.5-2.4-1.5c0,0,.4,1.3,1.5,2.7Z"/>
    <path class="st1" d="M113.5,200.2c1.3-1.3,2.6-1.7,2.8-1.2.2.5-.5,1.5-2.1,2.6s-2.8,1.2-2.8,1.2c0,0,.7-1.2,2-2.5Z"/>
    <path class="st1" d="M113.8,197.6c1.1,1.3,2.3,1.8,2.6,1.4.3-.4-.3-1.5-1.6-2.7-1.4-1.1-2.5-1.4-2.5-1.4,0,0,.5,1.3,1.6,2.6Z"/>
    <path class="st1" d="M97.7,36c-.9,1.6-2,2.4-2.3,2-.4-.4,0-1.6,1.2-3.1,1.2-1.5,2.3-2,2.3-2,0,0-.3,1.4-1.1,3Z"/>
    <path class="st1" d="M98.2,38.6c-1.5-.9-2.7-1-2.9-.5-.1.5.7,1.4,2.4,2,1.7.7,2.8.5,2.8.5,0,0-.8-1.1-2.3-2Z"/>
    <path class="st1" d="M93.5,37.2c-.8,1.7-1.8,2.5-2.2,2.1-.4-.3,0-1.6,1-3.1,1.1-1.5,2.2-2.1,2.2-2.1,0,0-.2,1.4-1,3.1Z"/>
    <path class="st1" d="M94.2,39.8c-1.5-.9-2.8-.9-2.9-.4-.1.5.8,1.3,2.5,1.9,1.7.6,2.8.4,2.8.4,0,0-.9-1-2.4-1.9Z"/>
    <path class="st1" d="M89.4,38.6c-.7,1.7-1.7,2.6-2.1,2.3-.4-.3-.2-1.6.9-3.2,1-1.6,2.1-2.2,2.1-2.2,0,0-.1,1.4-.8,3.1Z"/>
    <path class="st1" d="M90.2,41.2c-1.5-.8-2.8-.7-2.9-.2,0,.5.9,1.3,2.6,1.8,1.7.5,2.8.2,2.8.2,0,0-.9-1-2.5-1.8Z"/>
    <path class="st1" d="M85.3,40.3c-.6,1.7-1.6,2.7-2,2.4-.4-.3-.3-1.6.7-3.2.9-1.7,1.9-2.3,1.9-2.3,0,0,0,1.4-.7,3.2Z"/>
    <path class="st1" d="M86.2,42.8c-1.6-.7-2.9-.6-2.9,0,0,.5.9,1.2,2.7,1.6,1.7.4,2.9,0,2.9,0,0,0-1-.9-2.6-1.6Z"/>
    <path class="st1" d="M81.3,42.1c-.5,1.8-1.4,2.7-1.9,2.5-.4-.3-.3-1.6.5-3.3.9-1.7,1.8-2.4,1.8-2.4,0,0,0,1.4-.5,3.2Z"/>
    <path class="st1" d="M82.4,44.5c-1.6-.6-2.9-.4-2.9,0,0,.5,1,1.2,2.8,1.5,1.8.3,2.9,0,2.9,0,0,0-1-.9-2.7-1.5Z"/>
    <path class="st1" d="M77.5,44.2c-.4,1.8-1.3,2.8-1.7,2.6-.4-.3-.4-1.5.4-3.3.8-1.7,1.7-2.5,1.7-2.5,0,0,.1,1.4-.3,3.2Z"/>
    <path class="st1" d="M78.7,46.5c-1.6-.5-2.9-.3-2.9.2,0,.5,1,1.1,2.8,1.3,1.8.2,2.8-.2,2.8-.2,0,0-1.1-.8-2.8-1.3Z"/>
    <path class="st1" d="M73.7,46.4c-.3,1.8-1.1,2.9-1.6,2.6s-.5-1.5.2-3.3c.7-1.8,1.6-2.6,1.6-2.6,0,0,.2,1.4-.1,3.2Z"/>
    <path class="st1" d="M75,48.7c-1.7-.4-2.9-.1-2.9.4,0,.5,1.1,1.1,2.9,1.2,1.8.1,2.8-.4,2.8-.4,0,0-1.1-.7-2.8-1.2Z"/>
    <path class="st1" d="M70.1,48.9c-.2,1.8-1,2.9-1.5,2.7-.5-.2-.6-1.5,0-3.3.6-1.8,1.4-2.7,1.4-2.7,0,0,.3,1.4,0,3.2Z"/>
    <path class="st1" d="M71.5,51.1c-1.7-.4-2.9,0-2.9.5s1.2,1,2.9,1,2.8-.5,2.8-.5c0,0-1.2-.7-2.9-1Z"/>
    <path class="st1" d="M66.6,51.5c-.1,1.8-.8,3-1.3,2.8-.5-.2-.7-1.4-.2-3.3.5-1.8,1.3-2.8,1.3-2.8,0,0,.3,1.4.2,3.2Z"/>
    <path class="st1" d="M68.2,53.7c-1.7-.3-2.9.2-2.8.7,0,.5,1.2.9,3,.9s2.8-.7,2.8-.7c0,0-1.2-.6-3-.9Z"/>
    <path class="st1" d="M63.3,54.3c0,1.8-.7,3-1.2,2.9-.5-.2-.7-1.4-.3-3.3.4-1.9,1.1-2.8,1.1-2.8,0,0,.4,1.3.4,3.2Z"/>
    <path class="st1" d="M64.9,56.4c-1.7-.2-2.9.3-2.8.8s1.3.9,3,.7c1.8-.2,2.7-.8,2.7-.8,0,0-1.2-.6-3-.7Z"/>
    <path class="st1" d="M60.1,57.3c0,1.8-.5,3.1-1,2.9s-.8-1.4-.5-3.3c.3-1.9,1-2.9,1-2.9,0,0,.5,1.3.5,3.2Z"/>
    <path class="st1" d="M61.8,59.3c-1.7,0-2.9.5-2.7,1s1.3.8,3.1.6c1.8-.3,2.7-.9,2.7-.9,0,0-1.3-.5-3-.6Z"/>
    <path class="st1" d="M57,60.4c.2,1.8-.4,3.1-.9,3-.5-.1-.9-1.3-.7-3.2.2-1.9.8-2.9.8-2.9,0,0,.5,1.3.7,3.2Z"/>
    <path class="st1" d="M58.9,62.3c-1.7,0-2.8.6-2.7,1.1.2.5,1.3.7,3.1.4s2.6-1.1,2.6-1.1c0,0-1.3-.4-3.1-.4Z"/>
    <path class="st1" d="M54.2,63.7c.3,1.8-.2,3.1-.7,3-.5,0-.9-1.3-.8-3.2,0-1.9.7-3,.7-3,0,0,.6,1.3.9,3.1Z"/>
    <path class="st1" d="M56.1,65.5c-1.7,0-2.8.8-2.6,1.2.2.5,1.4.7,3.1.2,1.7-.5,2.6-1.2,2.6-1.2,0,0-1.3-.4-3.1-.3Z"/>
    <path class="st1" d="M51.5,67.2c.3,1.8,0,3.1-.5,3-.5,0-1-1.2-1-3.1s.5-3,.5-3c0,0,.7,1.2,1,3.1Z"/>
    <path class="st1" d="M53.5,68.9c-1.7.2-2.8.9-2.6,1.4.2.5,1.4.6,3.1,0,1.7-.5,2.5-1.4,2.5-1.4,0,0-1.3-.3-3.1,0Z"/>
    <path class="st1" d="M49,70.8c.4,1.8.1,3.1-.4,3.1s-1.1-1.2-1.2-3.1c-.1-1.9.4-3,.4-3,0,0,.7,1.2,1.2,3Z"/>
    <path class="st1" d="M51.1,72.3c-1.7.3-2.7,1.1-2.5,1.5.2.5,1.4.5,3.1-.1,1.7-.6,2.4-1.5,2.4-1.5,0,0-1.3-.2-3.1,0Z"/>
    <path class="st1" d="M46.7,74.5c.5,1.8.3,3.1-.2,3.1-.5,0-1.1-1.1-1.3-3-.2-1.9.2-3,.2-3,0,0,.8,1.2,1.3,3Z"/>
    <path class="st1" d="M48.9,75.9c-1.7.4-2.7,1.2-2.4,1.6s1.5.5,3.1-.3c1.6-.7,2.4-1.6,2.4-1.6,0,0-1.3-.1-3.1.2Z"/>
    <path class="st1" d="M44.5,78.3c.6,1.7.5,3.1,0,3.1-.5,0-1.2-1.1-1.5-2.9-.3-1.9,0-3,0-3,0,0,.9,1.1,1.5,2.9Z"/>
    <path class="st1" d="M46.8,79.6c-1.7.5-2.6,1.3-2.3,1.8.3.4,1.5.4,3.1-.4,1.6-.8,2.3-1.7,2.3-1.7,0,0-1.3,0-3.1.4Z"/>
    <path class="st1" d="M42.6,82.2c.7,1.7.6,3,.1,3.1-.5,0-1.2-1-1.6-2.9-.4-1.9-.1-3-.1-3,0,0,.9,1.1,1.6,2.8Z"/>
    <path class="st1" d="M45,83.4c-1.6.5-2.5,1.5-2.2,1.9s1.5.3,3.1-.6c1.6-.9,2.2-1.8,2.2-1.8,0,0-1.3,0-3,.5Z"/>
    <path class="st1" d="M40.9,86.2c.8,1.7.8,3,.3,3.1s-1.3-.9-1.8-2.8c-.5-1.8-.3-3-.3-3,0,0,1,1,1.8,2.7Z"/>
    <path class="st1" d="M43.3,87.3c-1.6.6-2.4,1.6-2.1,2,.3.4,1.5.2,3-.7,1.5-1,2.1-2,2.1-2,0,0-1.3,0-3,.7Z"/>
    <path class="st1" d="M39.4,90.4c.9,1.6.9,3,.4,3.1-.5.1-1.3-.9-1.9-2.7-.6-1.8-.4-3-.4-3,0,0,1,1,1.9,2.6Z"/>
    <path class="st1" d="M41.9,91.3c-1.6.7-2.3,1.7-2,2.1.3.4,1.5.1,3-.9,1.5-1,2-2.1,2-2.1,0,0-1.3.1-3,.9Z"/>
    <path class="st1" d="M38.1,94.5c1,1.6,1.1,2.9.6,3-.5.1-1.4-.8-2.1-2.6-.7-1.8-.6-3-.6-3,0,0,1.1.9,2.1,2.5Z"/>
    <path class="st1" d="M40.6,95.4c-1.5.8-2.3,1.8-1.9,2.2.4.4,1.5,0,2.9-1.1,1.4-1.1,1.9-2.2,1.9-2.2,0,0-1.3.2-2.9,1Z"/>
    <path class="st1" d="M37.1,98.8c1,1.5,1.2,2.8.7,3-.5.2-1.4-.7-2.2-2.5-.8-1.7-.7-2.9-.7-2.9,0,0,1.1.9,2.2,2.4Z"/>
    <path class="st1" d="M39.6,99.5c-1.5.9-2.2,2-1.8,2.3.4.3,1.5,0,2.9-1.2,1.3-1.2,1.7-2.3,1.7-2.3,0,0-1.3.3-2.9,1.2Z"/>
    <path class="st1" d="M36.3,103.1c1.1,1.4,1.4,2.8.9,3-.5.2-1.5-.6-2.3-2.3-.9-1.7-.9-2.9-.9-2.9,0,0,1.2.8,2.3,2.3Z"/>
    <path class="st1" d="M38.8,103.6c-1.4.9-2,2.1-1.6,2.4.4.3,1.5-.1,2.8-1.4,1.3-1.3,1.6-2.3,1.6-2.3,0,0-1.3.3-2.8,1.3Z"/>
    <path class="st1" d="M35.6,107.4c1.2,1.4,1.5,2.7,1.1,2.9-.5.2-1.5-.6-2.4-2.2-1-1.6-1-2.9-1-2.9,0,0,1.2.7,2.4,2.2Z"/>
    <path class="st1" d="M38.2,107.8c-1.4,1-1.9,2.2-1.5,2.5.4.3,1.5-.2,2.7-1.5,1.2-1.3,1.5-2.4,1.5-2.4,0,0-1.3.4-2.7,1.5Z"/>
    <path class="st1" d="M35.3,111.7c1.3,1.3,1.7,2.6,1.2,2.8-.5.2-1.5-.5-2.6-2.1-1-1.6-1.2-2.8-1.2-2.8,0,0,1.2.7,2.5,2Z"/>
    <path class="st1" d="M37.9,112c-1.3,1.1-1.8,2.3-1.4,2.6.4.3,1.5-.3,2.7-1.6,1.1-1.4,1.4-2.5,1.4-2.5,0,0-1.3.5-2.6,1.6Z"/>
    <path class="st1" d="M202,116.1c-1.3,1.3-1.8,2.5-1.4,2.8s1.5-.4,2.7-1.9c1.1-1.5,1.3-2.7,1.3-2.7,0,0-1.3.6-2.6,1.9Z"/>
    <path class="st1" d="M199.3,116.3c1.3,1.2,1.7,2.4,1.3,2.6-.4.3-1.5-.3-2.6-1.8-1.1-1.4-1.2-2.6-1.2-2.6,0,0,1.2.5,2.5,1.7Z"/>
    <path class="st1" d="M201.9,120.5c-1.4,1.2-1.9,2.4-1.5,2.7.4.3,1.6-.3,2.8-1.8,1.2-1.5,1.5-2.7,1.5-2.7,0,0-1.3.5-2.7,1.7Z"/>
    <path class="st1" d="M199.3,120.5c1.2,1.2,1.6,2.5,1.1,2.7-.5.2-1.5-.4-2.5-1.9-1-1.5-1.1-2.6-1.1-2.6,0,0,1.2.6,2.5,1.9Z"/>
    <path class="st1" d="M201.6,124.8c-1.5,1.1-2.1,2.3-1.6,2.6s1.6-.2,2.8-1.7c1.3-1.4,1.6-2.6,1.6-2.6,0,0-1.3.5-2.8,1.6Z"/>
    <path class="st1" d="M199,124.7c1.2,1.3,1.4,2.5,1,2.7-.5.2-1.5-.5-2.4-2-.9-1.5-1-2.7-1-2.7,0,0,1.2.7,2.4,2Z"/>
    <path class="st1" d="M201.1,129.2c-1.5,1-2.2,2.2-1.8,2.5.4.3,1.6-.2,2.9-1.5,1.4-1.3,1.7-2.5,1.7-2.5,0,0-1.4.4-2.9,1.5Z"/>
    <path class="st1" d="M198.4,128.9c1.1,1.3,1.3,2.6.8,2.8s-1.4-.6-2.3-2.2c-.8-1.6-.8-2.7-.8-2.7,0,0,1.1.7,2.2,2.1Z"/>
    <path class="st1" d="M200.3,133.5c-1.6.9-2.3,2.1-1.9,2.4.4.3,1.6,0,3-1.3,1.4-1.3,1.9-2.4,1.9-2.4,0,0-1.4.3-3,1.3Z"/>
    <path class="st1" d="M197.7,133.1c1,1.4,1.2,2.7.7,2.8-.5.2-1.4-.6-2.1-2.3-.7-1.6-.7-2.8-.7-2.8,0,0,1.1.8,2.1,2.2Z"/>
    <path class="st1" d="M199.3,137.7c-1.6.9-2.4,2-2,2.3s1.6,0,3.1-1.2c1.5-1.2,2-2.3,2-2.3,0,0-1.4.3-3,1.1Z"/>
    <path class="st1" d="M196.7,137.2c.9,1.5,1,2.7.5,2.9-.5.1-1.4-.7-2-2.4-.7-1.7-.5-2.8-.5-2.8,0,0,1.1.8,2,2.3Z"/>
    <path class="st1" d="M198.1,141.9c-1.7.8-2.5,1.8-2.1,2.2.3.4,1.6,0,3.1-1,1.5-1.1,2.1-2.2,2.1-2.2,0,0-1.4.2-3.1,1Z"/>
    <path class="st1" d="M195.6,141.3c.9,1.5.9,2.8.4,2.9-.5.1-1.3-.8-1.9-2.5-.6-1.7-.4-2.8-.4-2.8,0,0,1,.9,1.9,2.4Z"/>
    <path class="st1" d="M196.7,146.1c-1.7.7-2.6,1.7-2.3,2.1.3.4,1.6.2,3.2-.9,1.6-1,2.2-2.1,2.2-2.1,0,0-1.4.1-3.1.8Z"/>
    <path class="st1" d="M194.2,145.3c.8,1.5.7,2.8.2,2.9s-1.3-.9-1.8-2.6c-.5-1.7-.2-2.8-.2-2.8,0,0,1,.9,1.8,2.5Z"/>
    <path class="st1" d="M195.1,150.1c-1.7.6-2.7,1.6-2.4,2,.3.4,1.6.3,3.2-.7,1.7-.9,2.3-1.9,2.3-1.9,0,0-1.4,0-3.2.7Z"/>
    <path class="st1" d="M192.6,149.2c.7,1.6.6,2.9,0,2.9-.5,0-1.2-.9-1.6-2.7-.4-1.7,0-2.9,0-2.9,0,0,.9,1,1.6,2.6Z"/>
    <path class="st1" d="M193.2,154.1c-1.8.5-2.7,1.4-2.5,1.9.3.4,1.6.3,3.3-.5,1.7-.9,2.4-1.8,2.4-1.8,0,0-1.4,0-3.2.5Z"/>
    <path class="st1" d="M190.8,153c.6,1.6.4,2.9,0,2.9-.5,0-1.2-1-1.5-2.8-.3-1.8,0-2.9,0-2.9,0,0,.9,1,1.5,2.7Z"/>
    <path class="st1" d="M191.2,158c-1.8.4-2.8,1.3-2.6,1.7.3.4,1.5.4,3.3-.4,1.7-.8,2.5-1.7,2.5-1.7,0,0-1.4-.1-3.2.3Z"/>
    <path class="st1" d="M188.8,156.8c.5,1.6.3,2.9-.2,2.9-.5,0-1.1-1-1.3-2.8-.2-1.8.2-2.8.2-2.8,0,0,.8,1.1,1.3,2.8Z"/>
    <path class="st1" d="M188.9,161.7c-1.8.3-2.9,1.1-2.6,1.6s1.5.5,3.3-.2c1.8-.7,2.6-1.6,2.6-1.6,0,0-1.4-.2-3.2.1Z"/>
    <path class="st1" d="M186.6,160.4c.4,1.7.1,2.9-.4,2.9-.5,0-1.1-1.1-1.2-2.9-.1-1.8.4-2.8.4-2.8,0,0,.7,1.1,1.2,2.8Z"/>
    <path class="st1" d="M186.5,165.3c-1.8.2-2.9,1-2.7,1.5.2.5,1.5.6,3.3,0,1.8-.6,2.7-1.4,2.7-1.4,0,0-1.4-.3-3.2,0Z"/>
    <path class="st1" d="M184.2,163.9c.4,1.7,0,2.9-.5,2.9-.5,0-1-1.2-1-2.9,0-1.8.5-2.8.5-2.8,0,0,.7,1.2,1,2.9Z"/>
    <path class="st1" d="M183.8,168.8c-1.8.1-3,.8-2.8,1.3.2.5,1.4.7,3.3.2,1.8-.5,2.8-1.3,2.8-1.3,0,0-1.4-.3-3.2-.2Z"/>
    <path class="st1" d="M181.7,167.3c.3,1.7-.2,2.9-.7,2.8-.5,0-.9-1.2-.9-3,0-1.8.7-2.8.7-2.8,0,0,.6,1.2.9,3Z"/>
    <path class="st1" d="M181,172.2c-1.8,0-3,.7-2.9,1.2.2.5,1.4.7,3.3.3,1.9-.4,2.8-1.1,2.8-1.1,0,0-1.3-.4-3.2-.4Z"/>
    <path class="st1" d="M179,170.5c.2,1.7-.3,2.9-.8,2.8s-.9-1.3-.7-3c.2-1.8.8-2.7.8-2.7,0,0,.6,1.2.7,3Z"/>
    <path class="st1" d="M178,175.4c-1.8,0-3.1.5-2.9,1,.1.5,1.4.8,3.3.5s2.9-1,2.9-1c0,0-1.3-.5-3.2-.5Z"/>
    <path class="st1" d="M176.1,173.6c0,1.7-.5,2.9-1,2.7-.5-.1-.8-1.3-.6-3.1.3-1.8.9-2.7.9-2.7,0,0,.5,1.3.6,3Z"/>
    <path class="st1" d="M174.9,178.4c-1.8-.2-3.1.4-3,.9.1.5,1.3.9,3.2.7,1.9-.2,2.9-.8,2.9-.8,0,0-1.3-.5-3.2-.7Z"/>
    <path class="st1" d="M173,176.5c0,1.7-.6,2.8-1.1,2.7-.5-.2-.7-1.3-.4-3.1.4-1.8,1.1-2.6,1.1-2.6,0,0,.4,1.3.4,3.1Z"/>
    <path class="st1" d="M171.6,181.3c-1.8-.3-3.1.2-3,.7,0,.5,1.3.9,3.2.8,1.9,0,3-.7,3-.7,0,0-1.3-.6-3.1-.9Z"/>
    <path class="st1" d="M169.8,179.3c0,1.7-.8,2.8-1.2,2.6-.5-.2-.7-1.4-.2-3.1.5-1.7,1.2-2.6,1.2-2.6,0,0,.4,1.3.3,3.1Z"/>
    <path class="st1" d="M168.2,184c-1.8-.3-3.1,0-3,.5,0,.5,1.2,1,3.1,1,1.9,0,3-.5,3-.5,0,0-1.2-.7-3.1-1Z"/>
    <path class="st1" d="M166.5,181.9c-.2,1.7-.9,2.8-1.4,2.6-.5-.2-.6-1.4,0-3.1.5-1.7,1.4-2.5,1.4-2.5,0,0,.3,1.3,0,3.1Z"/>
    <path class="st1" d="M164.6,186.5c-1.8-.4-3.1-.1-3.1.4s1.2,1.1,3.1,1.2c1.9.1,3-.4,3-.4,0,0-1.2-.7-3-1.2Z"/>
    <path class="st1" d="M163,184.3c-.3,1.7-1.1,2.7-1.5,2.5-.5-.2-.5-1.4.1-3.1.6-1.7,1.5-2.4,1.5-2.4,0,0,.2,1.3,0,3.1Z"/>
    <path class="st1" d="M160.9,188.8c-1.8-.5-3.1-.3-3.1.2s1.1,1.1,3,1.3c1.9.2,3-.2,3-.2,0,0-1.2-.8-3-1.3Z"/>
    <path class="st1" d="M159.4,186.6c-.4,1.7-1.2,2.7-1.6,2.4-.4-.3-.5-1.5.3-3.1.7-1.6,1.6-2.4,1.6-2.4,0,0,.1,1.3-.2,3.1Z"/>
    <path class="st1" d="M157,190.9c-1.7-.6-3.1-.5-3.1,0,0,.5,1.1,1.2,2.9,1.5,1.9.3,3,0,3,0,0,0-1.1-.9-2.9-1.5Z"/>
    <path class="st1" d="M155.7,188.6c-.5,1.7-1.3,2.6-1.8,2.3-.4-.3-.4-1.5.4-3.1.8-1.6,1.7-2.3,1.7-2.3,0,0,0,1.3-.4,3.1Z"/>
    <path class="st1" d="M153.1,192.8c-1.7-.7-3-.6-3.1-.1s1,1.2,2.9,1.6c1.9.4,3,.1,3,.1,0,0-1.1-.9-2.8-1.6Z"/>
    <path class="st1" d="M151.9,190.5c-.5,1.6-1.5,2.5-1.9,2.2-.4-.3-.3-1.5.6-3.1.9-1.6,1.8-2.2,1.8-2.2,0,0,0,1.3-.5,3Z"/>
    <path class="st1" d="M149.1,194.5c-1.7-.8-3-.8-3.1-.3,0,.5.9,1.3,2.8,1.8s3,.3,3,.3c0,0-1-1-2.7-1.8Z"/>
    <path class="st1" d="M148,192.1c-.6,1.6-1.6,2.4-2,2.1s-.2-1.5.7-3c1-1.5,2-2.1,2-2.1,0,0,0,1.3-.7,3Z"/>
    <path class="st1" d="M145,196c-1.6-.9-3-.9-3.1-.4s.9,1.3,2.7,1.9c1.8.6,3,.4,3,.4,0,0-1-1-2.6-1.9Z"/>
    <path class="st1" d="M144,193.6c-.7,1.6-1.7,2.3-2.1,2s-.1-1.5.9-3c1-1.5,2.1-2,2.1-2,0,0-.1,1.3-.9,3Z"/>
    <path class="st1" d="M140.8,197.3c-1.6-1-2.9-1.1-3-.6-.1.5.8,1.4,2.6,2.1,1.8.7,3,.6,3,.6,0,0-.9-1.1-2.5-2.1Z"/>
    <path class="st1" d="M140,194.8c-.8,1.5-1.8,2.3-2.2,1.9-.4-.4,0-1.5,1.1-2.9,1.1-1.4,2.2-1.9,2.2-1.9,0,0-.2,1.3-1,2.9Z"/>
    <path class="st1" d="M136.6,198.4c-1.5-1-2.8-1.2-3-.7-.2.5.7,1.4,2.5,2.2,1.7.8,2.9.7,2.9.7,0,0-.9-1.1-2.4-2.2Z"/>
    <path class="st1" d="M135.9,195.8c-.9,1.5-2,2.2-2.3,1.8-.3-.4,0-1.5,1.2-2.9,1.2-1.3,2.3-1.7,2.3-1.7,0,0-.3,1.3-1.2,2.9Z"/>
    <path class="st1" d="M132.3,199.2c-1.4-1.1-2.8-1.4-3-.9-.2.5.6,1.5,2.3,2.3s2.9.9,2.9.9c0,0-.8-1.2-2.3-2.3Z"/>
    <path class="st1" d="M131.7,196.6c-.9,1.4-2.1,2-2.4,1.6-.3-.4.1-1.5,1.4-2.8,1.3-1.3,2.3-1.6,2.3-1.6,0,0-.3,1.3-1.3,2.8Z"/>
    <path class="st1" d="M127.9,199.8c-1.4-1.2-2.7-1.5-2.9-1.1-.2.5.6,1.5,2.2,2.4,1.6,1,2.9,1,2.9,1,0,0-.7-1.2-2.2-2.4Z"/>
    <path class="st1" d="M127.5,197.2c-1,1.4-2.2,1.9-2.5,1.5-.3-.4.2-1.5,1.5-2.7,1.3-1.2,2.4-1.5,2.4-1.5,0,0-.4,1.3-1.5,2.7Z"/>
    <path class="st1" d="M123.6,200.2c-1.3-1.3-2.6-1.7-2.8-1.2-.2.5.5,1.5,2.1,2.6,1.6,1,2.8,1.2,2.8,1.2,0,0-.7-1.2-2-2.5Z"/>
    <path class="st1" d="M123.3,197.6c-1.1,1.3-2.3,1.8-2.6,1.4-.3-.4.3-1.5,1.6-2.7,1.4-1.1,2.5-1.4,2.5-1.4,0,0-.5,1.3-1.6,2.6Z"/>
    <path class="st1" d="M139.4,36c.9,1.6,2,2.4,2.3,2,.4-.4,0-1.6-1.2-3.1-1.2-1.5-2.3-2-2.3-2,0,0,.3,1.4,1.1,3Z"/>
    <path class="st1" d="M138.9,38.6c1.5-.9,2.7-1,2.9-.5.1.5-.7,1.4-2.4,2-1.7.7-2.8.5-2.8.5,0,0,.8-1.1,2.3-2Z"/>
    <path class="st1" d="M143.6,37.2c.8,1.7,1.8,2.5,2.2,2.1.4-.3,0-1.6-1-3.1-1.1-1.5-2.2-2.1-2.2-2.1,0,0,.2,1.4,1,3.1Z"/>
    <path class="st1" d="M142.9,39.8c1.5-.9,2.8-.9,2.9-.4s-.8,1.3-2.5,1.9c-1.7.6-2.8.4-2.8.4,0,0,.9-1,2.4-1.9Z"/>
    <path class="st1" d="M147.7,38.6c.7,1.7,1.7,2.6,2.1,2.3.4-.3.2-1.6-.9-3.2-1-1.6-2.1-2.2-2.1-2.2,0,0,.1,1.4.8,3.1Z"/>
    <path class="st1" d="M146.9,41.2c1.5-.8,2.8-.7,2.9-.2,0,.5-.9,1.3-2.6,1.8-1.7.5-2.8.2-2.8.2,0,0,.9-1,2.5-1.8Z"/>
    <path class="st1" d="M151.8,40.3c.6,1.7,1.6,2.7,2,2.4.4-.3.3-1.6-.7-3.2-.9-1.7-1.9-2.3-1.9-2.3,0,0,0,1.4.7,3.2Z"/>
    <path class="st1" d="M150.9,42.8c1.6-.7,2.9-.6,2.9,0,0,.5-.9,1.2-2.7,1.6-1.7.4-2.9,0-2.9,0,0,0,1-.9,2.6-1.6Z"/>
    <path class="st1" d="M155.7,42.1c.5,1.8,1.4,2.7,1.9,2.5.4-.3.3-1.6-.5-3.3-.9-1.7-1.8-2.4-1.8-2.4,0,0,0,1.4.5,3.2Z"/>
    <path class="st1" d="M154.7,44.5c1.6-.6,2.9-.4,2.9,0,0,.5-1,1.2-2.8,1.5-1.8.3-2.9,0-2.9,0,0,0,1-.9,2.7-1.5Z"/>
    <path class="st1" d="M159.6,44.2c.4,1.8,1.3,2.8,1.7,2.6.4-.3.4-1.5-.4-3.3-.8-1.7-1.7-2.5-1.7-2.5,0,0-.1,1.4.3,3.2Z"/>
    <path class="st1" d="M158.4,46.5c1.6-.5,2.9-.3,2.9.2,0,.5-1,1.1-2.8,1.3-1.8.2-2.8-.2-2.8-.2,0,0,1.1-.8,2.8-1.3Z"/>
    <path class="st1" d="M163.4,46.4c.3,1.8,1.1,2.9,1.6,2.6.5-.2.5-1.5-.2-3.3-.7-1.8-1.6-2.6-1.6-2.6,0,0-.2,1.4.1,3.2Z"/>
    <path class="st1" d="M162,48.7c1.7-.4,2.9-.1,2.9.4,0,.5-1.1,1.1-2.9,1.2-1.8.1-2.8-.4-2.8-.4,0,0,1.1-.7,2.8-1.2Z"/>
    <path class="st1" d="M167,48.9c.2,1.8,1,2.9,1.5,2.7s.6-1.5,0-3.3-1.4-2.7-1.4-2.7c0,0-.3,1.4,0,3.2Z"/>
    <path class="st1" d="M165.6,51.1c1.7-.4,2.9,0,2.9.5s-1.2,1-2.9,1-2.8-.5-2.8-.5c0,0,1.2-.7,2.9-1Z"/>
    <path class="st1" d="M170.5,51.5c.1,1.8.8,3,1.3,2.8.5-.2.7-1.4.2-3.3-.5-1.8-1.3-2.8-1.3-2.8,0,0-.3,1.4-.2,3.2Z"/>
    <path class="st1" d="M168.9,53.7c1.7-.3,2.9.2,2.8.7,0,.5-1.2.9-3,.9s-2.8-.7-2.8-.7c0,0,1.2-.6,3-.9Z"/>
    <path class="st1" d="M173.8,54.3c0,1.8.7,3,1.2,2.9s.7-1.4.3-3.3c-.4-1.9-1.1-2.8-1.1-2.8,0,0-.4,1.3-.4,3.2Z"/>
    <path class="st1" d="M172.2,56.4c1.7-.2,2.9.3,2.8.8s-1.3.9-3,.7c-1.8-.2-2.7-.8-2.7-.8,0,0,1.2-.6,3-.7Z"/>
    <path class="st1" d="M177,57.3c0,1.8.5,3.1,1,2.9.5-.1.8-1.4.5-3.3-.3-1.9-1-2.9-1-2.9,0,0-.5,1.3-.5,3.2Z"/>
    <path class="st1" d="M175.3,59.3c1.7,0,2.9.5,2.7,1-.1.5-1.3.8-3.1.6-1.8-.3-2.7-.9-2.7-.9,0,0,1.3-.5,3-.6Z"/>
    <path class="st1" d="M180,60.4c-.2,1.8.4,3.1.9,3,.5-.1.9-1.3.7-3.2-.2-1.9-.8-2.9-.8-2.9,0,0-.5,1.3-.7,3.2Z"/>
    <path class="st1" d="M178.2,62.3c1.7,0,2.8.6,2.7,1.1-.2.5-1.3.7-3.1.4s-2.6-1.1-2.6-1.1c0,0,1.3-.4,3.1-.4Z"/>
    <path class="st1" d="M182.9,63.7c-.3,1.8.2,3.1.7,3s.9-1.3.8-3.2c0-1.9-.7-3-.7-3,0,0-.6,1.3-.9,3.1Z"/>
    <path class="st1" d="M181,65.5c1.7,0,2.8.8,2.6,1.2-.2.5-1.4.7-3.1.2s-2.6-1.2-2.6-1.2c0,0,1.3-.4,3.1-.3Z"/>
    <path class="st1" d="M185.6,67.2c-.3,1.8,0,3.1.5,3s1-1.2,1-3.1-.5-3-.5-3c0,0-.7,1.2-1,3.1Z"/>
    <path class="st1" d="M183.6,68.9c1.7.2,2.8.9,2.6,1.4-.2.5-1.4.6-3.1,0-1.7-.5-2.5-1.4-2.5-1.4,0,0,1.3-.3,3.1,0Z"/>
    <path class="st1" d="M188.1,70.8c-.4,1.8-.1,3.1.4,3.1s1.1-1.2,1.2-3.1c.1-1.9-.4-3-.4-3,0,0-.7,1.2-1.2,3Z"/>
    <path class="st1" d="M186,72.3c1.7.3,2.7,1.1,2.5,1.5-.2.5-1.4.5-3.1-.1-1.7-.6-2.4-1.5-2.4-1.5,0,0,1.3-.2,3.1,0Z"/>
    <path class="st1" d="M190.4,74.5c-.5,1.8-.3,3.1.2,3.1.5,0,1.1-1.1,1.3-3,.2-1.9-.2-3-.2-3,0,0-.8,1.2-1.3,3Z"/>
    <path class="st1" d="M188.2,75.9c1.7.4,2.7,1.2,2.4,1.6s-1.5.5-3.1-.3c-1.6-.7-2.4-1.6-2.4-1.6,0,0,1.3-.1,3.1.2Z"/>
    <path class="st1" d="M192.5,78.3c-.6,1.7-.5,3.1,0,3.1s1.2-1.1,1.5-2.9c.3-1.9,0-3,0-3,0,0-.9,1.1-1.5,2.9Z"/>
    <path class="st1" d="M190.3,79.6c1.7.5,2.6,1.3,2.3,1.8-.3.4-1.5.4-3.1-.4-1.6-.8-2.3-1.7-2.3-1.7,0,0,1.3,0,3.1.4Z"/>
    <path class="st1" d="M194.5,82.2c-.7,1.7-.6,3-.1,3.1.5,0,1.2-1,1.6-2.9.4-1.9.1-3,.1-3,0,0-.9,1.1-1.6,2.8Z"/>
    <path class="st1" d="M192.1,83.4c1.6.5,2.5,1.5,2.2,1.9-.3.4-1.5.3-3.1-.6s-2.2-1.8-2.2-1.8c0,0,1.3,0,3,.5Z"/>
    <path class="st1" d="M196.2,86.2c-.8,1.7-.8,3-.3,3.1.5,0,1.3-.9,1.8-2.8.5-1.8.3-3,.3-3,0,0-1,1-1.8,2.7Z"/>
    <path class="st1" d="M193.8,87.3c1.6.6,2.4,1.6,2.1,2-.3.4-1.5.2-3-.7-1.5-1-2.1-2-2.1-2,0,0,1.3,0,3,.7Z"/>
    <path class="st1" d="M197.7,90.4c-.9,1.6-.9,3-.4,3.1.5.1,1.3-.9,1.9-2.7.6-1.8.4-3,.4-3,0,0-1,1-1.9,2.6Z"/>
    <path class="st1" d="M195.2,91.3c1.6.7,2.3,1.7,2,2.1-.3.4-1.5.1-3-.9-1.5-1-2-2.1-2-2.1,0,0,1.3.1,3,.9Z"/>
    <path class="st1" d="M198.9,94.5c-1,1.6-1.1,2.9-.6,3s1.4-.8,2.1-2.6c.7-1.8.6-3,.6-3,0,0-1.1.9-2.1,2.5Z"/>
    <path class="st1" d="M196.4,95.4c1.5.8,2.3,1.8,1.9,2.2-.4.4-1.5,0-2.9-1.1-1.4-1.1-1.9-2.2-1.9-2.2,0,0,1.3.2,2.9,1Z"/>
    <path class="st1" d="M200,98.8c-1,1.5-1.2,2.8-.7,3,.5.2,1.4-.7,2.2-2.5.8-1.7.7-2.9.7-2.9,0,0-1.1.9-2.2,2.4Z"/>
    <path class="st1" d="M197.5,99.5c1.5.9,2.2,2,1.8,2.3s-1.5,0-2.9-1.2c-1.3-1.2-1.7-2.3-1.7-2.3,0,0,1.3.3,2.9,1.2Z"/>
    <path class="st1" d="M200.8,103.1c-1.1,1.4-1.4,2.8-.9,3,.5.2,1.5-.6,2.3-2.3.9-1.7.9-2.9.9-2.9,0,0-1.2.8-2.3,2.3Z"/>
    <path class="st1" d="M198.3,103.6c1.4.9,2,2.1,1.6,2.4-.4.3-1.5-.1-2.8-1.4-1.3-1.3-1.6-2.3-1.6-2.3,0,0,1.3.3,2.8,1.3Z"/>
    <path class="st1" d="M201.4,107.4c-1.2,1.4-1.5,2.7-1.1,2.9.5.2,1.5-.6,2.4-2.2,1-1.6,1-2.9,1-2.9,0,0-1.2.7-2.4,2.2Z"/>
    <path class="st1" d="M198.8,107.8c1.4,1,1.9,2.2,1.5,2.5s-1.5-.2-2.7-1.5c-1.2-1.3-1.5-2.4-1.5-2.4,0,0,1.3.4,2.7,1.5Z"/>
    <path class="st1" d="M201.8,111.7c-1.3,1.3-1.7,2.6-1.2,2.8.5.2,1.5-.5,2.6-2.1,1-1.6,1.2-2.8,1.2-2.8,0,0-1.2.7-2.5,2Z"/>
    <path class="st1" d="M199.2,112c1.3,1.1,1.8,2.3,1.4,2.6-.4.3-1.5-.3-2.7-1.6-1.1-1.4-1.4-2.5-1.4-2.5,0,0,1.3.5,2.6,1.6Z"/>
  </g>
  <path class="st1" d="M127.8,231.5l-1.9-1.9c.8-1.3,1.2-2.8,1.2-4.5,0-4.8-3.8-8.6-8.6-8.6s-8.6,3.9-8.6,8.6,3.8,8.6,8.6,8.6,3.6-.6,5-1.7l1.8,1.7,2.5-2.2ZM118.6,230.3c-2.9,0-5.3-2.3-5.3-5.3s2.3-5.3,5.3-5.3,5.3,2.3,5.3,5.3,0,1.3-.4,2h0c0-.1-4.9-.1-4.9-.1l2.7,2.7c-.9.4-1.6.7-2.6.7Z"/>
  <g>
    <path class="st1" d="M49.3,202.3l-2.1-1.9,2.3-4.7c.6-1.2,1.3-2.4,1.3-2.4h0s-1.2.9-2.3,1.6l-4.4,2.8-2.2-1.9,6.6-7.5,1.4,1.3-3.8,4.3c-.5.6-1.4,1.5-1.4,1.5h0s.9-.7,1.6-1.1l5.2-3.3,1.5,1.3-2.7,5.5c-.3.7-.9,1.7-.9,1.7h0s.8-1,1.3-1.6l3.8-4.3,1.4,1.2-6.6,7.5Z"/>
    <path class="st1" d="M30.2,182.4l-1.2-1.7,6-8.7,1.2,1.7-1.3,1.8,2.1,2.9,2.1-.7,1.2,1.7-10.1,3.1ZM35.5,178.9l-1.6-2.1-1.8,2.4c-.3.4-1,1.2-1,1.2h0s1-.4,1.5-.5l2.9-1Z"/>
    <path class="st1" d="M26.4,163.2l-.8-1.8c1-.6,1.2-1.4.6-2.7-.4-.9-1.1-1.6-2-1.2-.9.4-.7,1.4-.4,2.9.4,1.8.6,3.5-1.3,4.3-1.8.8-3.4-.2-4.3-2.3-.9-2.1-.5-3.8,1.2-4.8l.8,1.8c-.9.5-1,1.4-.6,2.4.5,1,1.2,1.5,1.8,1.2.7-.3.7-1.1.3-2.6-.4-2.1-.7-3.8,1.3-4.7,1.8-.8,3.6.2,4.5,2.2,1.1,2.5.7,4.4-1.2,5.3Z"/>
    <path class="st1" d="M12.3,145.6l-1.8-7.8,1.7-.4.7,2.9,8.1-1.9.5,2-8.1,1.9.7,2.9-1.7.4Z"/>
    <path class="st1" d="M8.8,123.6l-.3-7.4h1.7c0,0,.2,5.3.2,5.3h2.2c0,0-.2-4.8-.2-4.8h1.7c0,0,.2,4.6.2,4.6h2.7c0-.1-.2-5.5-.2-5.5h1.7c0,0,.3,7.3.3,7.3l-10,.4Z"/>
    <path class="st1" d="M9.6,101.5l.8-4.5c.3-1.9,1.7-3,3.3-2.7,1.2.2,1.9.9,2.1,2.2h0c.4-.9,1-1.2,2.2-1.1,1.4.1,2.5.3,2.7,0h0s-.3,1.9-.3,1.9c-.2.2-1.3,0-2.3,0-1.1-.1-1.8.4-2,1.6l-.3,1.6,4,.7-.3,2-9.9-1.7ZM14.3,100.3l.4-2.1c.2-1.1-.3-1.7-1.1-1.9-.8-.1-1.5.3-1.7,1.3l-.4,2.2,2.7.5Z"/>
    <path class="st1" d="M21.1,65.8l2.2-3.8c.6-1,1.3-1.6,2.1-1.8.8-.2,1.6-.1,2.4.3,1.6.9,2.1,2.6,1.1,4.5l-1.2,2.1,3.2,1.8-1,1.8-8.7-5ZM26.3,66.3l1-1.8c.5-.9.3-1.7-.5-2.2-.8-.5-1.6-.2-2.1.7l-1.1,1.9,2.6,1.5Z"/>
    <path class="st1" d="M33.4,47.3l1.3-1.5,6.3,5.5,3.1-3.6,1.3,1.1-4.4,5.1-7.6-6.6Z"/>
    <path class="st1" d="M50.5,30.5l1.7-1.3,8.9,5.8-1.7,1.3-1.8-1.3-2.9,2.2.8,2.1-1.6,1.3-3.4-10.1ZM54.1,35.7l2.1-1.6-2.5-1.7c-.5-.3-1.3-1-1.3-1h0s.4,1,.6,1.5l1.1,2.8Z"/>
    <path class="st1" d="M67.1,19.6l1.9-.9,5.4,3.6c.5.4,1.2,1,1.2,1h0s-.5-.9-.8-1.6l-2.3-4.7,1.8-.9,4.4,9-1.8.9-5.5-3.5c-.5-.3-1.2-.9-1.2-.9h0s.5.9.8,1.6l2.2,4.7-1.8.9-4.4-9Z"/>
    <path class="st1" d="M88.5,11l2-.5,4.6,4.6c.4.5,1,1.2,1,1.2h0s-.3-1-.5-1.7l-1.2-5.1,1.9-.5,2.4,9.7-1.9.5-4.6-4.6c-.4-.4-1-1.2-1-1.2h0s.3,1,.5,1.7l1.2,5-1.9.5-2.4-9.7Z"/>
    <path class="st1" d="M111,7.2l7.4-.3v1.7c0,0-5.3.2-5.3.2v2.2c0,0,4.8-.2,4.8-.2v1.7c0,0-4.6.2-4.6.2v2.7c.1,0,5.5-.2,5.5-.2v1.7c0,0-7.3.3-7.3.3l-.4-10Z"/>
    <path class="st1" d="M133.1,7.8l4.5.8c1.9.3,3,1.6,2.7,3.3-.2,1.2-.9,2-2.2,2.1h0c.9.5,1.2,1.1,1.2,2.3,0,1.4-.3,2.5,0,2.7h0c0,0-1.9-.2-1.9-.2-.2-.2,0-1.3,0-2.3,0-1.1-.4-1.8-1.7-2l-1.6-.3-.7,4-2-.3,1.7-9.9ZM134.3,12.5l2.1.4c1.1.2,1.7-.3,1.9-1.1.1-.8-.3-1.5-1.3-1.7l-2.2-.4-.5,2.7Z"/>
    <path class="st1" d="M166.1,23.3c1.5-2.6,4.2-3.7,6.8-2.2,2.1,1.2,2.7,3.2,1.9,5l-1.8-1c.3-1,0-1.9-1-2.5-1.6-.9-3.1,0-4.1,1.7-1,1.8-.8,3.6.7,4.4,1,.6,2.1.4,2.7-.5l1.7,1c-.5.7-1.2,1.3-2.1,1.5-.9.2-2,.1-3.2-.6-2.5-1.4-3.1-4.3-1.7-6.9Z"/>
    <path class="st1" d="M188.1,31.7l5.5,4.8-1.1,1.3-4-3.5-1.5,1.7,3.5,3.1-1.1,1.3-3.5-3.1-1.8,2,4,3.5-1.1,1.3-5.6-4.9,6.6-7.5Z"/>
    <path class="st1" d="M203.7,47.3l2.8,3.7c1.2,1.5,1.1,3.2-.3,4.3-.9.7-2,.8-3,0h0c.3.9.2,1.6-.7,2.5-1,1-1.9,1.6-1.8,2h0c0,0-1.2-1.5-1.2-1.5,0-.3.8-1,1.6-1.7.8-.7.9-1.6.2-2.6l-1-1.3-3.2,2.4-1.2-1.6,8-6.1ZM201.4,51.6l1.3,1.7c.7.9,1.5,1,2.1.5.6-.5.8-1.3.2-2.1l-1.3-1.8-2.2,1.7Z"/>
    <path class="st1" d="M215.8,65.4l3.5,7.2-1.5.7-1.3-2.7-7.5,3.6-.9-1.8,7.5-3.6-1.3-2.7,1.5-.7Z"/>
    <path class="st1" d="M224,86l.5,2-9.6,2.7-.5-2,9.6-2.7Z"/>
    <path class="st1" d="M227.5,102.4l.7,7.1-1.7.2-.5-5.1-2.4.2.4,4.3-1.7.2-.4-4.3-4.1.4-.2-2,10-1Z"/>
    <path class="st1" d="M228.2,123.8v2c-.1,0-10.1-.7-10.1-.7v-2c.1,0,10.1.7,10.1.7Z"/>
    <path class="st1" d="M221.2,138.8c2.9.7,4.6,3.1,3.9,6-.6,2.4-2.4,3.4-4.3,3.2l.5-2c1,0,1.8-.5,2.1-1.6.5-1.8-.8-3-2.7-3.5-2-.5-3.7.2-4.1,1.8-.3,1.2.2,2.1,1.2,2.5l-.5,1.9c-.8-.3-1.6-.9-2-1.7-.5-.8-.6-1.9-.3-3.2.7-2.7,3.3-4.1,6.2-3.4Z"/>
    <path class="st1" d="M217.6,164.4l-.9,1.9-10.5-1.3.9-1.9,2.2.3,1.6-3.2-1.6-1.5.9-1.8,7.4,7.5ZM212.1,161.4l-1.2,2.4,3,.5c.6,0,1.6.3,1.6.3h0s-.8-.7-1.2-1.1l-2.2-2.1Z"/>
    <path class="st1" d="M208.6,180l-4.9,6.4-1.4-1,1.8-2.4-6.6-5,1.2-1.6,6.6,5,1.8-2.4,1.4,1Z"/>
    <path class="st1" d="M193.9,196.9l-5.5,4.9-1.1-1.3,4-3.5-1.5-1.7-3.5,3.1-1.1-1.2,3.5-3.1-1.8-2-4,3.6-1.1-1.3,5.5-4.9,6.6,7.5Z"/>
  </g>
  <g class="st0">
    <path class="st1" d="M108.8,97.3v.4c-.6,0-1.1.1-1.4.2s-.6.2-.9.5c-.5.4-.8.8-1,1.1-.1.4-.2,1-.2,1.8,0,.1,0,.3,0,.4l1.2,25.1c0,1.1.3,2,.8,2.7.5.8,1.5,1.2,3.1,1.2v.4h-10.9v-.4c1.4-.2,2.4-.6,2.9-1.3.5-.7.7-1.7.6-3.2l-1.2-26h0l-11.9,30.8-11.3-29.7h0l-1.2,24c0,1.3,0,2.3.2,3.1s.6,1.2,1.1,1.6c.5.3,1.2.5,2.2.7v.4h-8.5v-.4c1.1,0,1.9-.3,2.5-.8.6-.5.9-1.1,1.1-1.9.2-.8.3-1.8.4-3.1l1.4-24.8c0,0,0-.3-.3-.5s-.4-.5-.7-.7-.5-.4-.8-.6c-.5-.3-1-.5-1.4-.6s-.9-.1-1.6-.1v-.4h7.8l10.5,27.7,10.6-27.7h7.1Z"/>
    <path class="st1" d="M113.2,97.7v-.4h11.1c1.9,0,3.5.3,4.9.8s2.6,1.2,3.5,2.1c.9.9,1.6,1.9,2.1,2.9.5,1.1.7,2.2.7,3.5s-.2,2.3-.7,3.4c-.4,1.1-1.1,2.1-2.1,2.9-.9.8-2.2,1.5-3.7,2s-3.3.8-5.2.8-1.8,0-3.6-.3v11.7c0,2.4,1.2,3.6,3.7,3.7v.4h-10.8v-.4c1.1,0,1.9-.3,2.6-.9.7-.6,1-1.5,1-2.8v-25.6c0-.8-.1-1.4-.4-2-.2-.5-.5-.9-.9-1.1s-.7-.4-1.1-.5c-.4-.1-.7-.2-.8-.2h-.5ZM120.3,98.5v15.9c1.2.2,2.3.3,3.5.3,2.2,0,4-.6,5.6-1.7,1.5-1.1,2.3-3.2,2.3-6.3s-.7-4.6-2-6.2c-1.3-1.6-3.4-2.4-6.1-2.4s-2.1,0-3.2.3Z"/>
    <path class="st1" d="M169,104.9h-.4c-.3-1.7-1.1-3.1-2.3-4.2-1.3-1.1-2.7-2-4.3-2.5s-3.2-.8-4.6-.8-3.8.4-5.5,1.2-3.2,2-4.4,3.5-2.2,3.3-2.9,5.4-1,4.4-1,6.8.3,4.6,1,6.6c.7,2,1.6,3.8,2.9,5.3,1.3,1.5,2.8,2.6,4.4,3.4,1.7.8,3.5,1.1,5.6,1.1s3.6-.3,5.6-1,3.9-1.9,5.6-3.5v1.3c-2,1.6-3.9,2.7-5.6,3.5-1.7.7-3.8,1.1-6.3,1.1s-5.1-.5-7.3-1.5-4.1-2.3-5.6-3.9-2.7-3.5-3.4-5.6-1.2-4.2-1.2-6.4c0-3.3.8-6.3,2.4-9.2,1.6-2.8,3.8-5.1,6.6-6.7s5.8-2.5,9-2.5,4.1.3,6.4.9l2.4.7c.5,0,.8.1,1.2.1.6,0,1,0,1.2-.3.2-.2.4-.5.5-1h.4l-.3,8.1Z"/>
  </g>
</svg>