<?xml version="1.0" encoding="UTF-8"?>
<svg id="Layer_1" xmlns="http://www.w3.org/2000/svg" version="1.1" viewBox="0 0 237.9 238.1">
  <!-- Generator: Adobe Illustrator 30.2.1, SVG Export Plug-In . SVG Version: 2.1.1 Build 1)  -->
  <defs>
    <style>
      .st0 {
        isolation: isolate;
      }

      .st1 {
        fill: #fff8ca;
      }
    </style>
  </defs>
  <g>
    <path class="st1" d="M139.8,38.2v.3c3.4,1,6.7,2.1,10,3.5,9.7,4.2,18.5,10.1,26,17.7,7.5,7.6,13.4,16.3,17.5,26.1,4.2,10.1,6.4,20.9,6.3,31.9,0,11-2.2,21.7-6.5,31.8-4.1,9.7-10.1,18.5-17.6,25.9-7.5,7.5-16.3,13.4-26,17.5-10.1,4.3-20.8,6.4-31.8,6.4h-.3c-11.1,0-21.8-2.2-31.9-6.6-9.7-4.2-18.5-10.1-26-17.7-7.5-7.6-13.4-16.3-17.5-26.1-4.2-10.1-6.4-20.9-6.3-31.9,0-11,2.2-21.7,6.5-31.8,4.1-9.7,10.1-18.4,17.6-25.9,7.5-7.5,16.3-13.4,26-17.5,3.1-1.3,6.3-2.4,9.6-3.4v-.3c-34.5,9.7-59.9,41.3-60,78.9-.2,45.4,36.5,82.4,81.9,82.5.1,0,.2,0,.3,0,45.3,0,82.1-36.6,82.2-81.9.1-37.8-25.3-69.8-60-79.5Z"/>
    <path class="st1" d="M34.1,116.6c1.3,1.3,1.8,2.5,1.4,2.8s-1.5-.4-2.7-1.9c-1.1-1.5-1.3-2.7-1.3-2.7,0,0,1.3.6,2.6,1.9Z"/>
    <path class="st1" d="M36.7,116.8c-1.3,1.2-1.7,2.4-1.3,2.6.4.3,1.5-.3,2.6-1.8,1.1-1.4,1.2-2.6,1.2-2.6,0,0-1.2.5-2.5,1.7Z"/>
    <path class="st1" d="M34.2,121c1.4,1.2,1.9,2.4,1.5,2.7s-1.6-.3-2.8-1.8c-1.2-1.5-1.5-2.7-1.5-2.7,0,0,1.3.5,2.7,1.7Z"/>
    <path class="st1" d="M36.8,121c-1.2,1.2-1.6,2.5-1.1,2.7.5.2,1.5-.4,2.5-1.9s1.1-2.6,1.1-2.6c0,0-1.2.6-2.5,1.9Z"/>
    <path class="st1" d="M34.5,125.4c1.5,1.1,2.1,2.3,1.6,2.6s-1.6-.2-2.8-1.7c-1.3-1.4-1.6-2.6-1.6-2.6,0,0,1.3.5,2.8,1.6Z"/>
    <path class="st1" d="M37.1,125.2c-1.2,1.3-1.4,2.5-1,2.7.5.2,1.5-.5,2.4-2,.9-1.5,1-2.7,1-2.7,0,0-1.2.7-2.4,2Z"/>
    <path class="st1" d="M35,129.7c1.5,1,2.2,2.2,1.8,2.5-.4.3-1.6-.2-2.9-1.5-1.4-1.3-1.7-2.5-1.7-2.5,0,0,1.4.4,2.9,1.5Z"/>
    <path class="st1" d="M37.7,129.4c-1.1,1.3-1.3,2.6-.8,2.8.5.2,1.4-.6,2.3-2.2.8-1.6.8-2.7.8-2.7,0,0-1.1.7-2.2,2.1Z"/>
    <path class="st1" d="M35.8,134c1.6.9,2.3,2.1,1.9,2.4-.4.3-1.6,0-3-1.3-1.4-1.3-1.9-2.4-1.9-2.4,0,0,1.4.3,3,1.3Z"/>
    <path class="st1" d="M38.4,133.6c-1,1.4-1.2,2.7-.7,2.8.5.2,1.4-.6,2.1-2.3.7-1.6.7-2.8.7-2.8,0,0-1.1.8-2.1,2.2Z"/>
    <path class="st1" d="M36.8,138.3c1.6.9,2.4,2,2,2.3-.4.4-1.6,0-3.1-1.2-1.5-1.2-2-2.3-2-2.3,0,0,1.4.3,3,1.1Z"/>
    <path class="st1" d="M39.4,137.7c-.9,1.5-1,2.7-.5,2.9.5.1,1.4-.7,2-2.4.7-1.7.5-2.8.5-2.8,0,0-1.1.8-2,2.3Z"/>
    <path class="st1" d="M38,142.5c1.7.8,2.5,1.8,2.1,2.2-.3.4-1.6,0-3.1-1-1.5-1.1-2.1-2.2-2.1-2.2,0,0,1.4.2,3.1,1Z"/>
    <path class="st1" d="M40.5,141.8c-.9,1.5-.9,2.8-.4,2.9.5.1,1.3-.8,1.9-2.5.6-1.7.4-2.8.4-2.8,0,0-1,.9-1.9,2.4Z"/>
    <path class="st1" d="M39.4,146.6c1.7.7,2.6,1.7,2.3,2.1-.3.4-1.6.2-3.2-.9-1.6-1-2.2-2.1-2.2-2.1,0,0,1.4.1,3.1.8Z"/>
    <path class="st1" d="M41.9,145.8c-.8,1.5-.7,2.8-.2,2.9s1.3-.9,1.8-2.6c.5-1.7.2-2.8.2-2.8,0,0-1,.9-1.8,2.5Z"/>
    <path class="st1" d="M41,150.7c1.7.6,2.7,1.6,2.4,2-.3.4-1.6.3-3.2-.7-1.7-.9-2.3-1.9-2.3-1.9,0,0,1.4,0,3.2.7Z"/>
    <path class="st1" d="M43.5,149.7c-.7,1.6-.6,2.9,0,2.9.5,0,1.2-.9,1.6-2.7.4-1.7,0-2.9,0-2.9,0,0-.9,1-1.6,2.6Z"/>
    <path class="st1" d="M42.9,154.6c1.8.5,2.7,1.4,2.5,1.9-.3.4-1.6.3-3.3-.5-1.7-.9-2.4-1.8-2.4-1.8,0,0,1.4,0,3.2.5Z"/>
    <path class="st1" d="M45.3,153.6c-.6,1.6-.4,2.9,0,2.9s1.2-1,1.5-2.8c.3-1.8,0-2.9,0-2.9,0,0-.9,1-1.5,2.7Z"/>
    <path class="st1" d="M44.9,158.5c1.8.4,2.8,1.3,2.6,1.7-.3.4-1.5.4-3.3-.4-1.7-.8-2.5-1.7-2.5-1.7,0,0,1.4-.1,3.2.3Z"/>
    <path class="st1" d="M47.3,157.3c-.5,1.6-.3,2.9.2,2.9.5,0,1.1-1,1.3-2.8.2-1.8-.2-2.8-.2-2.8,0,0-.8,1.1-1.3,2.8Z"/>
    <path class="st1" d="M47.2,162.2c1.8.3,2.9,1.1,2.6,1.6s-1.5.5-3.3-.2c-1.8-.7-2.6-1.6-2.6-1.6,0,0,1.4-.2,3.2.1Z"/>
    <path class="st1" d="M49.5,160.9c-.4,1.7-.1,2.9.4,2.9.5,0,1.1-1.1,1.2-2.9s-.4-2.8-.4-2.8c0,0-.7,1.1-1.2,2.8Z"/>
    <path class="st1" d="M49.6,165.8c1.8.2,2.9,1,2.7,1.5-.2.5-1.5.6-3.3,0s-2.7-1.4-2.7-1.4c0,0,1.4-.3,3.2,0Z"/>
    <path class="st1" d="M51.9,164.4c-.4,1.7,0,2.9.5,2.9.5,0,1-1.2,1-2.9,0-1.8-.5-2.8-.5-2.8,0,0-.7,1.2-1,2.9Z"/>
    <path class="st1" d="M52.3,169.3c1.8.1,3,.8,2.8,1.3-.2.5-1.4.7-3.3.2-1.8-.5-2.8-1.3-2.8-1.3,0,0,1.4-.3,3.2-.2Z"/>
    <path class="st1" d="M54.4,167.8c-.3,1.7.2,2.9.7,2.8.5,0,.9-1.2.9-3,0-1.8-.7-2.8-.7-2.8,0,0-.6,1.2-.9,3Z"/>
    <path class="st1" d="M55.1,172.7c1.8,0,3,.7,2.9,1.2s-1.4.7-3.3.3c-1.9-.4-2.8-1.1-2.8-1.1,0,0,1.3-.4,3.2-.4Z"/>
    <path class="st1" d="M57.1,171c-.2,1.7.3,2.9.8,2.8s.9-1.3.7-3c-.2-1.8-.8-2.7-.8-2.7,0,0-.6,1.2-.7,3Z"/>
    <path class="st1" d="M58,175.9c1.8,0,3.1.5,2.9,1-.1.5-1.4.8-3.3.5s-2.9-1-2.9-1c0,0,1.3-.5,3.2-.5Z"/>
    <path class="st1" d="M60,174.1c0,1.7.5,2.9,1,2.7.5-.1.8-1.3.6-3.1-.3-1.8-.9-2.7-.9-2.7,0,0-.5,1.3-.6,3Z"/>
    <path class="st1" d="M61.2,178.9c1.8-.2,3.1.4,3,.9-.1.5-1.3.9-3.2.7-1.9-.2-2.9-.8-2.9-.8,0,0,1.3-.5,3.2-.7Z"/>
    <path class="st1" d="M63.1,177.1c0,1.7.6,2.8,1.1,2.7.5-.2.7-1.3.4-3.1-.4-1.8-1.1-2.6-1.1-2.6,0,0-.4,1.3-.4,3.1Z"/>
    <path class="st1" d="M64.5,181.8c1.8-.3,3.1.2,3,.7,0,.5-1.3.9-3.2.8-1.9,0-3-.7-3-.7,0,0,1.3-.6,3.1-.9Z"/>
    <path class="st1" d="M66.3,179.8c0,1.7.8,2.8,1.2,2.6.5-.2.7-1.4.2-3.1-.5-1.7-1.2-2.6-1.2-2.6,0,0-.4,1.3-.3,3.1Z"/>
    <path class="st1" d="M67.9,184.5c1.8-.3,3.1,0,3,.5,0,.5-1.2,1-3.1,1-1.9,0-3-.5-3-.5,0,0,1.2-.7,3.1-1Z"/>
    <path class="st1" d="M69.6,182.4c.2,1.7.9,2.8,1.4,2.6.5-.2.6-1.4,0-3.1-.5-1.7-1.4-2.5-1.4-2.5,0,0-.3,1.3,0,3.1Z"/>
    <path class="st1" d="M71.5,187c1.8-.4,3.1-.1,3.1.4,0,.5-1.2,1.1-3.1,1.2-1.9.1-3-.4-3-.4,0,0,1.2-.7,3-1.2Z"/>
    <path class="st1" d="M73.1,184.9c.3,1.7,1.1,2.7,1.5,2.5.5-.2.5-1.4-.1-3.1-.6-1.7-1.5-2.4-1.5-2.4,0,0-.2,1.3,0,3.1Z"/>
    <path class="st1" d="M75.2,189.3c1.8-.5,3.1-.3,3.1.2s-1.1,1.1-3,1.3c-1.9.2-3-.2-3-.2,0,0,1.2-.8,3-1.3Z"/>
    <path class="st1" d="M76.7,187.1c.4,1.7,1.2,2.7,1.6,2.4.4-.3.5-1.5-.3-3.1-.7-1.6-1.6-2.4-1.6-2.4,0,0-.1,1.3.2,3.1Z"/>
    <path class="st1" d="M79,191.4c1.7-.6,3.1-.5,3.1,0s-1.1,1.2-2.9,1.5c-1.9.3-3,0-3,0,0,0,1.1-.9,2.9-1.5Z"/>
    <path class="st1" d="M80.4,189.1c.5,1.7,1.3,2.6,1.8,2.3.4-.3.4-1.5-.4-3.1-.8-1.6-1.7-2.3-1.7-2.3,0,0,0,1.3.4,3.1Z"/>
    <path class="st1" d="M83,193.3c1.7-.7,3-.6,3.1-.1,0,.5-1,1.2-2.9,1.6-1.9.4-3,.1-3,.1,0,0,1.1-.9,2.8-1.6Z"/>
    <path class="st1" d="M84.2,191c.5,1.6,1.5,2.5,1.9,2.2s.3-1.5-.6-3.1c-.9-1.6-1.8-2.2-1.8-2.2,0,0,0,1.3.5,3Z"/>
    <path class="st1" d="M87,195c1.7-.8,3-.8,3.1-.3,0,.5-.9,1.3-2.8,1.8-1.8.5-3,.3-3,.3,0,0,1-1,2.7-1.8Z"/>
    <path class="st1" d="M88.1,192.6c.6,1.6,1.6,2.4,2,2.1.4-.3.2-1.5-.7-3-1-1.5-2-2.1-2-2.1,0,0,0,1.3.7,3Z"/>
    <path class="st1" d="M91.1,196.5c1.6-.9,3-.9,3.1-.4.1.5-.9,1.3-2.7,1.9-1.8.6-3,.4-3,.4,0,0,1-1,2.6-1.9Z"/>
    <path class="st1" d="M92.1,194.1c.7,1.6,1.7,2.3,2.1,2s.1-1.5-.9-3c-1-1.5-2.1-2-2.1-2,0,0,.1,1.3.9,3Z"/>
    <path class="st1" d="M95.3,197.8c1.6-1,2.9-1.1,3-.6.1.5-.8,1.4-2.6,2.1-1.8.7-3,.6-3,.6,0,0,.9-1.1,2.5-2.1Z"/>
    <path class="st1" d="M96.1,195.3c.8,1.5,1.8,2.3,2.2,1.9.4-.4,0-1.5-1.1-2.9-1.1-1.4-2.2-1.9-2.2-1.9,0,0,.2,1.3,1,2.9Z"/>
    <path class="st1" d="M99.5,198.9c1.5-1,2.8-1.2,3-.7.2.5-.7,1.4-2.5,2.2-1.7.8-2.9.7-2.9.7,0,0,.9-1.1,2.4-2.2Z"/>
    <path class="st1" d="M100.2,196.3c.9,1.5,2,2.2,2.3,1.8s0-1.5-1.2-2.9c-1.2-1.3-2.3-1.7-2.3-1.7,0,0,.3,1.3,1.2,2.9Z"/>
    <path class="st1" d="M103.8,199.7c1.4-1.1,2.8-1.4,3-.9.2.5-.6,1.5-2.3,2.3-1.7.9-2.9.9-2.9.9,0,0,.8-1.2,2.3-2.3Z"/>
    <path class="st1" d="M104.4,197.1c.9,1.4,2.1,2,2.4,1.6.3-.4-.1-1.5-1.4-2.8-1.3-1.3-2.3-1.6-2.3-1.6,0,0,.3,1.3,1.3,2.8Z"/>
    <path class="st1" d="M108.1,200.3c1.4-1.2,2.7-1.5,2.9-1.1.2.5-.6,1.5-2.2,2.4-1.6,1-2.9,1-2.9,1,0,0,.7-1.2,2.2-2.4Z"/>
    <path class="st1" d="M108.6,197.7c1,1.4,2.2,1.9,2.5,1.5.3-.4-.2-1.5-1.5-2.7s-2.4-1.5-2.4-1.5c0,0,.4,1.3,1.5,2.7Z"/>
    <path class="st1" d="M112.5,200.7c1.3-1.3,2.6-1.7,2.8-1.2.2.5-.5,1.5-2.1,2.6s-2.8,1.2-2.8,1.2c0,0,.7-1.2,2-2.5Z"/>
    <path class="st1" d="M112.8,198.1c1.1,1.3,2.3,1.8,2.6,1.4.3-.4-.3-1.5-1.6-2.7-1.4-1.1-2.5-1.4-2.5-1.4,0,0,.5,1.3,1.6,2.6Z"/>
    <path class="st1" d="M96.7,36.5c-.9,1.6-2,2.4-2.3,2-.4-.4,0-1.6,1.2-3.1,1.2-1.5,2.3-2,2.3-2,0,0-.3,1.4-1.1,3Z"/>
    <path class="st1" d="M97.2,39.1c-1.5-.9-2.7-1-2.9-.5-.1.5.7,1.4,2.4,2,1.7.7,2.8.5,2.8.5,0,0-.8-1.1-2.3-2Z"/>
    <path class="st1" d="M92.5,37.7c-.8,1.7-1.8,2.5-2.2,2.1-.4-.3,0-1.6,1-3.1,1.1-1.5,2.2-2.1,2.2-2.1,0,0-.2,1.4-1,3.1Z"/>
    <path class="st1" d="M93.2,40.3c-1.5-.9-2.8-.9-2.9-.4-.1.5.8,1.3,2.5,1.9,1.7.6,2.8.4,2.8.4,0,0-.9-1-2.4-1.9Z"/>
    <path class="st1" d="M88.4,39.2c-.7,1.7-1.7,2.6-2.1,2.3-.4-.3-.2-1.6.9-3.2,1-1.6,2.1-2.2,2.1-2.2,0,0-.1,1.4-.8,3.1Z"/>
    <path class="st1" d="M89.2,41.7c-1.5-.8-2.8-.7-2.9-.2,0,.5.9,1.3,2.6,1.8,1.7.5,2.8.2,2.8.2,0,0-.9-1-2.5-1.8Z"/>
    <path class="st1" d="M84.3,40.8c-.6,1.7-1.6,2.7-2,2.4-.4-.3-.3-1.6.7-3.2.9-1.7,1.9-2.3,1.9-2.3,0,0,0,1.4-.7,3.2Z"/>
    <path class="st1" d="M85.2,43.3c-1.6-.7-2.9-.6-2.9,0,0,.5.9,1.2,2.7,1.6,1.7.4,2.9,0,2.9,0,0,0-1-.9-2.6-1.6Z"/>
    <path class="st1" d="M80.3,42.6c-.5,1.8-1.4,2.7-1.9,2.5-.4-.3-.3-1.6.5-3.3.9-1.7,1.8-2.4,1.8-2.4,0,0,0,1.4-.5,3.2Z"/>
    <path class="st1" d="M81.4,45.1c-1.6-.6-2.9-.4-2.9,0,0,.5,1,1.2,2.8,1.5,1.8.3,2.9,0,2.9,0,0,0-1-.9-2.7-1.5Z"/>
    <path class="st1" d="M76.5,44.7c-.4,1.8-1.3,2.8-1.7,2.6-.4-.3-.4-1.5.4-3.3.8-1.7,1.7-2.5,1.7-2.5,0,0,.1,1.4-.3,3.2Z"/>
    <path class="st1" d="M77.7,47.1c-1.6-.5-2.9-.3-2.9.2,0,.5,1,1.1,2.8,1.3,1.8.2,2.8-.2,2.8-.2,0,0-1.1-.8-2.8-1.3Z"/>
    <path class="st1" d="M72.7,47c-.3,1.8-1.1,2.9-1.6,2.6s-.5-1.5.2-3.3c.7-1.8,1.6-2.6,1.6-2.6,0,0,.2,1.4-.1,3.2Z"/>
    <path class="st1" d="M74,49.2c-1.7-.4-2.9-.1-2.9.4,0,.5,1.1,1.1,2.9,1.2,1.8.1,2.8-.4,2.8-.4,0,0-1.1-.7-2.8-1.2Z"/>
    <path class="st1" d="M69.1,49.4c-.2,1.8-1,2.9-1.5,2.7-.5-.2-.6-1.5,0-3.3.6-1.8,1.4-2.7,1.4-2.7,0,0,.3,1.4,0,3.2Z"/>
    <path class="st1" d="M70.5,51.6c-1.7-.4-2.9,0-2.9.5s1.2,1,2.9,1,2.8-.5,2.8-.5c0,0-1.2-.7-2.9-1Z"/>
    <path class="st1" d="M65.6,52c-.1,1.8-.8,3-1.3,2.8-.5-.2-.7-1.4-.2-3.3.5-1.8,1.3-2.8,1.3-2.8,0,0,.3,1.4.2,3.2Z"/>
    <path class="st1" d="M67.2,54.2c-1.7-.3-2.9.2-2.8.7,0,.5,1.2.9,3,.9s2.8-.7,2.8-.7c0,0-1.2-.6-3-.9Z"/>
    <path class="st1" d="M62.3,54.8c0,1.8-.7,3-1.2,2.9-.5-.2-.7-1.4-.3-3.3.4-1.9,1.1-2.8,1.1-2.8,0,0,.4,1.3.4,3.2Z"/>
    <path class="st1" d="M63.9,56.9c-1.7-.2-2.9.3-2.8.8s1.3.9,3,.7c1.8-.2,2.7-.8,2.7-.8,0,0-1.2-.6-3-.7Z"/>
    <path class="st1" d="M59.1,57.8c0,1.8-.5,3.1-1,2.9s-.8-1.4-.5-3.3c.3-1.9,1-2.9,1-2.9,0,0,.5,1.3.5,3.2Z"/>
    <path class="st1" d="M60.8,59.8c-1.7,0-2.9.5-2.7,1s1.3.8,3.1.6c1.8-.3,2.7-.9,2.7-.9,0,0-1.3-.5-3-.6Z"/>
    <path class="st1" d="M56,61c.2,1.8-.4,3.1-.9,3-.5-.1-.9-1.3-.7-3.2.2-1.9.8-2.9.8-2.9,0,0,.5,1.3.7,3.2Z"/>
    <path class="st1" d="M57.9,62.8c-1.7,0-2.8.6-2.7,1.1.2.5,1.3.7,3.1.4s2.6-1.1,2.6-1.1c0,0-1.3-.4-3.1-.4Z"/>
    <path class="st1" d="M53.2,64.3c.3,1.8-.2,3.1-.7,3-.5,0-.9-1.3-.8-3.2,0-1.9.7-3,.7-3,0,0,.6,1.3.9,3.1Z"/>
    <path class="st1" d="M55.1,66c-1.7,0-2.8.8-2.6,1.2.2.5,1.4.7,3.1.2,1.7-.5,2.6-1.2,2.6-1.2,0,0-1.3-.4-3.1-.3Z"/>
    <path class="st1" d="M50.5,67.7c.3,1.8,0,3.1-.5,3-.5,0-1-1.2-1-3.1s.5-3,.5-3c0,0,.7,1.2,1,3.1Z"/>
    <path class="st1" d="M52.5,69.4c-1.7.2-2.8.9-2.6,1.4.2.5,1.4.6,3.1,0,1.7-.5,2.5-1.4,2.5-1.4,0,0-1.3-.3-3.1,0Z"/>
    <path class="st1" d="M48,71.3c.4,1.8.1,3.1-.4,3.1s-1.1-1.2-1.2-3.1c-.1-1.9.4-3,.4-3,0,0,.7,1.2,1.2,3Z"/>
    <path class="st1" d="M50.1,72.9c-1.7.3-2.7,1.1-2.5,1.5.2.5,1.4.5,3.1-.1,1.7-.6,2.4-1.5,2.4-1.5,0,0-1.3-.2-3.1,0Z"/>
    <path class="st1" d="M45.7,75c.5,1.8.3,3.1-.2,3.1-.5,0-1.1-1.1-1.3-3-.2-1.9.2-3,.2-3,0,0,.8,1.2,1.3,3Z"/>
    <path class="st1" d="M47.9,76.4c-1.7.4-2.7,1.2-2.4,1.6s1.5.5,3.1-.3c1.6-.7,2.4-1.6,2.4-1.6,0,0-1.3-.1-3.1.2Z"/>
    <path class="st1" d="M43.5,78.8c.6,1.7.5,3.1,0,3.1-.5,0-1.2-1.1-1.5-2.9-.3-1.9,0-3,0-3,0,0,.9,1.1,1.5,2.9Z"/>
    <path class="st1" d="M45.8,80.2c-1.7.5-2.6,1.3-2.3,1.8.3.4,1.5.4,3.1-.4,1.6-.8,2.3-1.7,2.3-1.7,0,0-1.3,0-3.1.4Z"/>
    <path class="st1" d="M41.6,82.7c.7,1.7.6,3,.1,3.1-.5,0-1.2-1-1.6-2.9-.4-1.9-.1-3-.1-3,0,0,.9,1.1,1.6,2.8Z"/>
    <path class="st1" d="M44,84c-1.6.5-2.5,1.5-2.2,1.9s1.5.3,3.1-.6c1.6-.9,2.2-1.8,2.2-1.8,0,0-1.3,0-3,.5Z"/>
    <path class="st1" d="M39.9,86.8c.8,1.7.8,3,.3,3.1s-1.3-.9-1.8-2.8c-.5-1.8-.3-3-.3-3,0,0,1,1,1.8,2.7Z"/>
    <path class="st1" d="M42.3,87.9c-1.6.6-2.4,1.6-2.1,2,.3.4,1.5.2,3-.7,1.5-1,2.1-2,2.1-2,0,0-1.3,0-3,.7Z"/>
    <path class="st1" d="M38.4,90.9c.9,1.6.9,3,.4,3.1-.5.1-1.3-.9-1.9-2.7-.6-1.8-.4-3-.4-3,0,0,1,1,1.9,2.6Z"/>
    <path class="st1" d="M40.9,91.8c-1.6.7-2.3,1.7-2,2.1.3.4,1.5.1,3-.9,1.5-1,2-2.1,2-2.1,0,0-1.3.1-3,.9Z"/>
    <path class="st1" d="M37.1,95.1c1,1.6,1.1,2.9.6,3-.5.1-1.4-.8-2.1-2.6-.7-1.8-.6-3-.6-3,0,0,1.1.9,2.1,2.5Z"/>
    <path class="st1" d="M39.7,95.9c-1.5.8-2.3,1.8-1.9,2.2.4.4,1.5,0,2.9-1.1,1.4-1.1,1.9-2.2,1.9-2.2,0,0-1.3.2-2.9,1Z"/>
    <path class="st1" d="M36.1,99.3c1,1.5,1.2,2.8.7,3-.5.2-1.4-.7-2.2-2.5-.8-1.7-.7-2.9-.7-2.9,0,0,1.1.9,2.2,2.4Z"/>
    <path class="st1" d="M38.6,100c-1.5.9-2.2,2-1.8,2.3.4.3,1.5,0,2.9-1.2,1.3-1.2,1.7-2.3,1.7-2.3,0,0-1.3.3-2.9,1.2Z"/>
    <path class="st1" d="M35.3,103.6c1.1,1.4,1.4,2.8.9,3-.5.2-1.5-.6-2.3-2.3-.9-1.7-.9-2.9-.9-2.9,0,0,1.2.8,2.3,2.3Z"/>
    <path class="st1" d="M37.8,104.2c-1.4.9-2,2.1-1.6,2.4.4.3,1.5-.1,2.8-1.4,1.3-1.3,1.6-2.3,1.6-2.3,0,0-1.3.3-2.8,1.3Z"/>
    <path class="st1" d="M34.6,107.9c1.2,1.4,1.5,2.7,1.1,2.9-.5.2-1.5-.6-2.4-2.2-1-1.6-1-2.9-1-2.9,0,0,1.2.7,2.4,2.2Z"/>
    <path class="st1" d="M37.3,108.3c-1.4,1-1.9,2.2-1.5,2.5.4.3,1.5-.2,2.7-1.5,1.2-1.3,1.5-2.4,1.5-2.4,0,0-1.3.4-2.7,1.5Z"/>
    <path class="st1" d="M34.3,112.3c1.3,1.3,1.7,2.6,1.2,2.8-.5.2-1.5-.5-2.6-2.1-1-1.6-1.2-2.8-1.2-2.8,0,0,1.2.7,2.5,2Z"/>
    <path class="st1" d="M36.9,112.6c-1.3,1.1-1.8,2.3-1.4,2.6.4.3,1.5-.3,2.7-1.6,1.1-1.4,1.4-2.5,1.4-2.5,0,0-1.3.5-2.6,1.6Z"/>
    <path class="st1" d="M201,116.6c-1.3,1.3-1.8,2.5-1.4,2.8s1.5-.4,2.7-1.9c1.1-1.5,1.3-2.7,1.3-2.7,0,0-1.3.6-2.6,1.9Z"/>
    <path class="st1" d="M198.3,116.8c1.3,1.2,1.7,2.4,1.3,2.6-.4.3-1.5-.3-2.6-1.8-1.1-1.4-1.2-2.6-1.2-2.6,0,0,1.2.5,2.5,1.7Z"/>
    <path class="st1" d="M200.9,121c-1.4,1.2-1.9,2.4-1.5,2.7.4.3,1.6-.3,2.8-1.8,1.2-1.5,1.5-2.7,1.5-2.7,0,0-1.3.5-2.7,1.7Z"/>
    <path class="st1" d="M198.3,121c1.2,1.2,1.6,2.5,1.1,2.7-.5.2-1.5-.4-2.5-1.9-1-1.5-1.1-2.6-1.1-2.6,0,0,1.2.6,2.5,1.9Z"/>
    <path class="st1" d="M200.6,125.4c-1.5,1.1-2.1,2.3-1.6,2.6s1.6-.2,2.8-1.7c1.3-1.4,1.6-2.6,1.6-2.6,0,0-1.3.5-2.8,1.6Z"/>
    <path class="st1" d="M198,125.2c1.2,1.3,1.4,2.5,1,2.7-.5.2-1.5-.5-2.4-2-.9-1.5-1-2.7-1-2.7,0,0,1.2.7,2.4,2Z"/>
    <path class="st1" d="M200.1,129.7c-1.5,1-2.2,2.2-1.8,2.5.4.3,1.6-.2,2.9-1.5,1.4-1.3,1.7-2.5,1.7-2.5,0,0-1.4.4-2.9,1.5Z"/>
    <path class="st1" d="M197.4,129.4c1.1,1.3,1.3,2.6.8,2.8s-1.4-.6-2.3-2.2c-.8-1.6-.8-2.7-.8-2.7,0,0,1.1.7,2.2,2.1Z"/>
    <path class="st1" d="M199.3,134c-1.6.9-2.3,2.1-1.9,2.4.4.3,1.6,0,3-1.3,1.4-1.3,1.9-2.4,1.9-2.4,0,0-1.4.3-3,1.3Z"/>
    <path class="st1" d="M196.7,133.6c1,1.4,1.2,2.7.7,2.8-.5.2-1.4-.6-2.1-2.3-.7-1.6-.7-2.8-.7-2.8,0,0,1.1.8,2.1,2.2Z"/>
    <path class="st1" d="M198.3,138.3c-1.6.9-2.4,2-2,2.3s1.6,0,3.1-1.2c1.5-1.2,2-2.3,2-2.3,0,0-1.4.3-3,1.1Z"/>
    <path class="st1" d="M195.7,137.7c.9,1.5,1,2.7.5,2.9-.5.1-1.4-.7-2-2.4-.7-1.7-.5-2.8-.5-2.8,0,0,1.1.8,2,2.3Z"/>
    <path class="st1" d="M197.1,142.5c-1.7.8-2.5,1.8-2.1,2.2.3.4,1.6,0,3.1-1,1.5-1.1,2.1-2.2,2.1-2.2,0,0-1.4.2-3.1,1Z"/>
    <path class="st1" d="M194.6,141.8c.9,1.5.9,2.8.4,2.9-.5.1-1.3-.8-1.9-2.5-.6-1.7-.4-2.8-.4-2.8,0,0,1,.9,1.9,2.4Z"/>
    <path class="st1" d="M195.7,146.6c-1.7.7-2.6,1.7-2.3,2.1.3.4,1.6.2,3.2-.9,1.6-1,2.2-2.1,2.2-2.1,0,0-1.4.1-3.1.8Z"/>
    <path class="st1" d="M193.2,145.8c.8,1.5.7,2.8.2,2.9s-1.3-.9-1.8-2.6c-.5-1.7-.2-2.8-.2-2.8,0,0,1,.9,1.8,2.5Z"/>
    <path class="st1" d="M194.1,150.7c-1.7.6-2.7,1.6-2.4,2,.3.4,1.6.3,3.2-.7,1.7-.9,2.3-1.9,2.3-1.9,0,0-1.4,0-3.2.7Z"/>
    <path class="st1" d="M191.6,149.7c.7,1.6.6,2.9,0,2.9-.5,0-1.2-.9-1.6-2.7-.4-1.7,0-2.9,0-2.9,0,0,.9,1,1.6,2.6Z"/>
    <path class="st1" d="M192.2,154.6c-1.8.5-2.7,1.4-2.5,1.9.3.4,1.6.3,3.3-.5,1.7-.9,2.4-1.8,2.4-1.8,0,0-1.4,0-3.2.5Z"/>
    <path class="st1" d="M189.8,153.6c.6,1.6.4,2.9,0,2.9-.5,0-1.2-1-1.5-2.8-.3-1.8,0-2.9,0-2.9,0,0,.9,1,1.5,2.7Z"/>
    <path class="st1" d="M190.2,158.5c-1.8.4-2.8,1.3-2.6,1.7.3.4,1.5.4,3.3-.4,1.7-.8,2.5-1.7,2.5-1.7,0,0-1.4-.1-3.2.3Z"/>
    <path class="st1" d="M187.8,157.3c.5,1.6.3,2.9-.2,2.9-.5,0-1.1-1-1.3-2.8-.2-1.8.2-2.8.2-2.8,0,0,.8,1.1,1.3,2.8Z"/>
    <path class="st1" d="M187.9,162.2c-1.8.3-2.9,1.1-2.6,1.6s1.5.5,3.3-.2c1.8-.7,2.6-1.6,2.6-1.6,0,0-1.4-.2-3.2.1Z"/>
    <path class="st1" d="M185.6,160.9c.4,1.7.1,2.9-.4,2.9-.5,0-1.1-1.1-1.2-2.9-.1-1.8.4-2.8.4-2.8,0,0,.7,1.1,1.2,2.8Z"/>
    <path class="st1" d="M185.5,165.8c-1.8.2-2.9,1-2.7,1.5.2.5,1.5.6,3.3,0,1.8-.6,2.7-1.4,2.7-1.4,0,0-1.4-.3-3.2,0Z"/>
    <path class="st1" d="M183.2,164.4c.4,1.7,0,2.9-.5,2.9-.5,0-1-1.2-1-2.9,0-1.8.5-2.8.5-2.8,0,0,.7,1.2,1,2.9Z"/>
    <path class="st1" d="M182.8,169.3c-1.8.1-3,.8-2.8,1.3.2.5,1.4.7,3.3.2,1.8-.5,2.8-1.3,2.8-1.3,0,0-1.4-.3-3.2-.2Z"/>
    <path class="st1" d="M180.7,167.8c.3,1.7-.2,2.9-.7,2.8-.5,0-.9-1.2-.9-3,0-1.8.7-2.8.7-2.8,0,0,.6,1.2.9,3Z"/>
    <path class="st1" d="M180,172.7c-1.8,0-3,.7-2.9,1.2.2.5,1.4.7,3.3.3,1.9-.4,2.8-1.1,2.8-1.1,0,0-1.3-.4-3.2-.4Z"/>
    <path class="st1" d="M178,171c.2,1.7-.3,2.9-.8,2.8s-.9-1.3-.7-3c.2-1.8.8-2.7.8-2.7,0,0,.6,1.2.7,3Z"/>
    <path class="st1" d="M177,175.9c-1.8,0-3.1.5-2.9,1,.1.5,1.4.8,3.3.5s2.9-1,2.9-1c0,0-1.3-.5-3.2-.5Z"/>
    <path class="st1" d="M175.1,174.1c0,1.7-.5,2.9-1,2.7-.5-.1-.8-1.3-.6-3.1.3-1.8.9-2.7.9-2.7,0,0,.5,1.3.6,3Z"/>
    <path class="st1" d="M173.9,178.9c-1.8-.2-3.1.4-3,.9.1.5,1.3.9,3.2.7,1.9-.2,2.9-.8,2.9-.8,0,0-1.3-.5-3.2-.7Z"/>
    <path class="st1" d="M172,177.1c0,1.7-.6,2.8-1.1,2.7-.5-.2-.7-1.3-.4-3.1.4-1.8,1.1-2.6,1.1-2.6,0,0,.4,1.3.4,3.1Z"/>
    <path class="st1" d="M170.6,181.8c-1.8-.3-3.1.2-3,.7,0,.5,1.3.9,3.2.8,1.9,0,3-.7,3-.7,0,0-1.3-.6-3.1-.9Z"/>
    <path class="st1" d="M168.8,179.8c0,1.7-.8,2.8-1.2,2.6-.5-.2-.7-1.4-.2-3.1.5-1.7,1.2-2.6,1.2-2.6,0,0,.4,1.3.3,3.1Z"/>
    <path class="st1" d="M167.2,184.5c-1.8-.3-3.1,0-3,.5,0,.5,1.2,1,3.1,1,1.9,0,3-.5,3-.5,0,0-1.2-.7-3.1-1Z"/>
    <path class="st1" d="M165.5,182.4c-.2,1.7-.9,2.8-1.4,2.6-.5-.2-.6-1.4,0-3.1.5-1.7,1.4-2.5,1.4-2.5,0,0,.3,1.3,0,3.1Z"/>
    <path class="st1" d="M163.6,187c-1.8-.4-3.1-.1-3.1.4s1.2,1.1,3.1,1.2c1.9.1,3-.4,3-.4,0,0-1.2-.7-3-1.2Z"/>
    <path class="st1" d="M162,184.9c-.3,1.7-1.1,2.7-1.5,2.5-.5-.2-.5-1.4.1-3.1.6-1.7,1.5-2.4,1.5-2.4,0,0,.2,1.3,0,3.1Z"/>
    <path class="st1" d="M159.9,189.3c-1.8-.5-3.1-.3-3.1.2s1.1,1.1,3,1.3c1.9.2,3-.2,3-.2,0,0-1.2-.8-3-1.3Z"/>
    <path class="st1" d="M158.4,187.1c-.4,1.7-1.2,2.7-1.6,2.4-.4-.3-.5-1.5.3-3.1.7-1.6,1.6-2.4,1.6-2.4,0,0,.1,1.3-.2,3.1Z"/>
    <path class="st1" d="M156,191.4c-1.7-.6-3.1-.5-3.1,0,0,.5,1.1,1.2,2.9,1.5,1.9.3,3,0,3,0,0,0-1.1-.9-2.9-1.5Z"/>
    <path class="st1" d="M154.7,189.1c-.5,1.7-1.3,2.6-1.8,2.3-.4-.3-.4-1.5.4-3.1.8-1.6,1.7-2.3,1.7-2.3,0,0,0,1.3-.4,3.1Z"/>
    <path class="st1" d="M152.1,193.3c-1.7-.7-3-.6-3.1-.1s1,1.2,2.9,1.6c1.9.4,3,.1,3,.1,0,0-1.1-.9-2.8-1.6Z"/>
    <path class="st1" d="M150.9,191c-.5,1.6-1.5,2.5-1.9,2.2-.4-.3-.3-1.5.6-3.1.9-1.6,1.8-2.2,1.8-2.2,0,0,0,1.3-.5,3Z"/>
    <path class="st1" d="M148.1,195c-1.7-.8-3-.8-3.1-.3,0,.5.9,1.3,2.8,1.8s3,.3,3,.3c0,0-1-1-2.7-1.8Z"/>
    <path class="st1" d="M147,192.6c-.6,1.6-1.6,2.4-2,2.1s-.2-1.5.7-3c1-1.5,2-2.1,2-2.1,0,0,0,1.3-.7,3Z"/>
    <path class="st1" d="M144,196.5c-1.6-.9-3-.9-3.1-.4s.9,1.3,2.7,1.9c1.8.6,3,.4,3,.4,0,0-1-1-2.6-1.9Z"/>
    <path class="st1" d="M143,194.1c-.7,1.6-1.7,2.3-2.1,2s-.1-1.5.9-3c1-1.5,2.1-2,2.1-2,0,0-.1,1.3-.9,3Z"/>
    <path class="st1" d="M139.8,197.8c-1.6-1-2.9-1.1-3-.6-.1.5.8,1.4,2.6,2.1,1.8.7,3,.6,3,.6,0,0-.9-1.1-2.5-2.1Z"/>
    <path class="st1" d="M139,195.3c-.8,1.5-1.8,2.3-2.2,1.9-.4-.4,0-1.5,1.1-2.9,1.1-1.4,2.2-1.9,2.2-1.9,0,0-.2,1.3-1,2.9Z"/>
    <path class="st1" d="M135.6,198.9c-1.5-1-2.8-1.2-3-.7-.2.5.7,1.4,2.5,2.2,1.7.8,2.9.7,2.9.7,0,0-.9-1.1-2.4-2.2Z"/>
    <path class="st1" d="M134.9,196.3c-.9,1.5-2,2.2-2.3,1.8-.3-.4,0-1.5,1.2-2.9,1.2-1.3,2.3-1.7,2.3-1.7,0,0-.3,1.3-1.2,2.9Z"/>
    <path class="st1" d="M131.3,199.7c-1.4-1.1-2.8-1.4-3-.9-.2.5.6,1.5,2.3,2.3s2.9.9,2.9.9c0,0-.8-1.2-2.3-2.3Z"/>
    <path class="st1" d="M130.7,197.1c-.9,1.4-2.1,2-2.4,1.6-.3-.4.1-1.5,1.4-2.8,1.3-1.3,2.3-1.6,2.3-1.6,0,0-.3,1.3-1.3,2.8Z"/>
    <path class="st1" d="M127,200.3c-1.4-1.2-2.7-1.5-2.9-1.1-.2.5.6,1.5,2.2,2.4,1.6,1,2.9,1,2.9,1,0,0-.7-1.2-2.2-2.4Z"/>
    <path class="st1" d="M126.5,197.7c-1,1.4-2.2,1.9-2.5,1.5-.3-.4.2-1.5,1.5-2.7,1.3-1.2,2.4-1.5,2.4-1.5,0,0-.4,1.3-1.5,2.7Z"/>
    <path class="st1" d="M122.6,200.7c-1.3-1.3-2.6-1.7-2.8-1.2-.2.5.5,1.5,2.1,2.6,1.6,1,2.8,1.2,2.8,1.2,0,0-.7-1.2-2-2.5Z"/>
    <path class="st1" d="M122.3,198.1c-1.1,1.3-2.3,1.8-2.6,1.4-.3-.4.3-1.5,1.6-2.7,1.4-1.1,2.5-1.4,2.5-1.4,0,0-.5,1.3-1.6,2.6Z"/>
    <path class="st1" d="M138.4,36.5c.9,1.6,2,2.4,2.3,2,.4-.4,0-1.6-1.2-3.1-1.2-1.5-2.3-2-2.3-2,0,0,.3,1.4,1.1,3Z"/>
    <path class="st1" d="M137.9,39.1c1.5-.9,2.7-1,2.9-.5.1.5-.7,1.4-2.4,2-1.7.7-2.8.5-2.8.5,0,0,.8-1.1,2.3-2Z"/>
    <path class="st1" d="M142.6,37.7c.8,1.7,1.8,2.5,2.2,2.1.4-.3,0-1.6-1-3.1-1.1-1.5-2.2-2.1-2.2-2.1,0,0,.2,1.4,1,3.1Z"/>
    <path class="st1" d="M141.9,40.3c1.5-.9,2.8-.9,2.9-.4s-.8,1.3-2.5,1.9c-1.7.6-2.8.4-2.8.4,0,0,.9-1,2.4-1.9Z"/>
    <path class="st1" d="M146.7,39.2c.7,1.7,1.7,2.6,2.1,2.3.4-.3.2-1.6-.9-3.2-1-1.6-2.1-2.2-2.1-2.2,0,0,.1,1.4.8,3.1Z"/>
    <path class="st1" d="M145.9,41.7c1.5-.8,2.8-.7,2.9-.2,0,.5-.9,1.3-2.6,1.8-1.7.5-2.8.2-2.8.2,0,0,.9-1,2.5-1.8Z"/>
    <path class="st1" d="M150.8,40.8c.6,1.7,1.6,2.7,2,2.4.4-.3.3-1.6-.7-3.2-.9-1.7-1.9-2.3-1.9-2.3,0,0,0,1.4.7,3.2Z"/>
    <path class="st1" d="M149.9,43.3c1.6-.7,2.9-.6,2.9,0,0,.5-.9,1.2-2.7,1.6-1.7.4-2.9,0-2.9,0,0,0,1-.9,2.6-1.6Z"/>
    <path class="st1" d="M154.7,42.6c.5,1.8,1.4,2.7,1.9,2.5.4-.3.3-1.6-.5-3.3-.9-1.7-1.8-2.4-1.8-2.4,0,0,0,1.4.5,3.2Z"/>
    <path class="st1" d="M153.7,45.1c1.6-.6,2.9-.4,2.9,0,0,.5-1,1.2-2.8,1.5-1.8.3-2.9,0-2.9,0,0,0,1-.9,2.7-1.5Z"/>
    <path class="st1" d="M158.6,44.7c.4,1.8,1.3,2.8,1.7,2.6.4-.3.4-1.5-.4-3.3-.8-1.7-1.7-2.5-1.7-2.5,0,0-.1,1.4.3,3.2Z"/>
    <path class="st1" d="M157.4,47.1c1.6-.5,2.9-.3,2.9.2,0,.5-1,1.1-2.8,1.3-1.8.2-2.8-.2-2.8-.2,0,0,1.1-.8,2.8-1.3Z"/>
    <path class="st1" d="M162.4,47c.3,1.8,1.1,2.9,1.6,2.6.5-.2.5-1.5-.2-3.3-.7-1.8-1.6-2.6-1.6-2.6,0,0-.2,1.4.1,3.2Z"/>
    <path class="st1" d="M161,49.2c1.7-.4,2.9-.1,2.9.4,0,.5-1.1,1.1-2.9,1.2-1.8.1-2.8-.4-2.8-.4,0,0,1.1-.7,2.8-1.2Z"/>
    <path class="st1" d="M166,49.4c.2,1.8,1,2.9,1.5,2.7s.6-1.5,0-3.3-1.4-2.7-1.4-2.7c0,0-.3,1.4,0,3.2Z"/>
    <path class="st1" d="M164.6,51.6c1.7-.4,2.9,0,2.9.5s-1.2,1-2.9,1-2.8-.5-2.8-.5c0,0,1.2-.7,2.9-1Z"/>
    <path class="st1" d="M169.5,52c.1,1.8.8,3,1.3,2.8.5-.2.7-1.4.2-3.3-.5-1.8-1.3-2.8-1.3-2.8,0,0-.3,1.4-.2,3.2Z"/>
    <path class="st1" d="M167.9,54.2c1.7-.3,2.9.2,2.8.7,0,.5-1.2.9-3,.9s-2.8-.7-2.8-.7c0,0,1.2-.6,3-.9Z"/>
    <path class="st1" d="M172.8,54.8c0,1.8.7,3,1.2,2.9s.7-1.4.3-3.3c-.4-1.9-1.1-2.8-1.1-2.8,0,0-.4,1.3-.4,3.2Z"/>
    <path class="st1" d="M171.2,56.9c1.7-.2,2.9.3,2.8.8s-1.3.9-3,.7c-1.8-.2-2.7-.8-2.7-.8,0,0,1.2-.6,3-.7Z"/>
    <path class="st1" d="M176,57.8c0,1.8.5,3.1,1,2.9.5-.1.8-1.4.5-3.3-.3-1.9-1-2.9-1-2.9,0,0-.5,1.3-.5,3.2Z"/>
    <path class="st1" d="M174.3,59.8c1.7,0,2.9.5,2.7,1-.1.5-1.3.8-3.1.6-1.8-.3-2.7-.9-2.7-.9,0,0,1.3-.5,3-.6Z"/>
    <path class="st1" d="M179,61c-.2,1.8.4,3.1.9,3,.5-.1.9-1.3.7-3.2-.2-1.9-.8-2.9-.8-2.9,0,0-.5,1.3-.7,3.2Z"/>
    <path class="st1" d="M177.2,62.8c1.7,0,2.8.6,2.7,1.1-.2.5-1.3.7-3.1.4s-2.6-1.1-2.6-1.1c0,0,1.3-.4,3.1-.4Z"/>
    <path class="st1" d="M181.9,64.3c-.3,1.8.2,3.1.7,3s.9-1.3.8-3.2c0-1.9-.7-3-.7-3,0,0-.6,1.3-.9,3.1Z"/>
    <path class="st1" d="M180,66c1.7,0,2.8.8,2.6,1.2-.2.5-1.4.7-3.1.2s-2.6-1.2-2.6-1.2c0,0,1.3-.4,3.1-.3Z"/>
    <path class="st1" d="M184.6,67.7c-.3,1.8,0,3.1.5,3s1-1.2,1-3.1-.5-3-.5-3c0,0-.7,1.2-1,3.1Z"/>
    <path class="st1" d="M182.6,69.4c1.7.2,2.8.9,2.6,1.4-.2.5-1.4.6-3.1,0-1.7-.5-2.5-1.4-2.5-1.4,0,0,1.3-.3,3.1,0Z"/>
    <path class="st1" d="M187.1,71.3c-.4,1.8-.1,3.1.4,3.1s1.1-1.2,1.2-3.1c.1-1.9-.4-3-.4-3,0,0-.7,1.2-1.2,3Z"/>
    <path class="st1" d="M185,72.9c1.7.3,2.7,1.1,2.5,1.5-.2.5-1.4.5-3.1-.1-1.7-.6-2.4-1.5-2.4-1.5,0,0,1.3-.2,3.1,0Z"/>
    <path class="st1" d="M189.4,75c-.5,1.8-.3,3.1.2,3.1.5,0,1.1-1.1,1.3-3,.2-1.9-.2-3-.2-3,0,0-.8,1.2-1.3,3Z"/>
    <path class="st1" d="M187.2,76.4c1.7.4,2.7,1.2,2.4,1.6s-1.5.5-3.1-.3c-1.6-.7-2.4-1.6-2.4-1.6,0,0,1.3-.1,3.1.2Z"/>
    <path class="st1" d="M191.6,78.8c-.6,1.7-.5,3.1,0,3.1s1.2-1.1,1.5-2.9c.3-1.9,0-3,0-3,0,0-.9,1.1-1.5,2.9Z"/>
    <path class="st1" d="M189.3,80.2c1.7.5,2.6,1.3,2.3,1.8-.3.4-1.5.4-3.1-.4-1.6-.8-2.3-1.7-2.3-1.7,0,0,1.3,0,3.1.4Z"/>
    <path class="st1" d="M193.5,82.7c-.7,1.7-.6,3-.1,3.1.5,0,1.2-1,1.6-2.9.4-1.9.1-3,.1-3,0,0-.9,1.1-1.6,2.8Z"/>
    <path class="st1" d="M191.1,84c1.6.5,2.5,1.5,2.2,1.9-.3.4-1.5.3-3.1-.6s-2.2-1.8-2.2-1.8c0,0,1.3,0,3,.5Z"/>
    <path class="st1" d="M195.2,86.8c-.8,1.7-.8,3-.3,3.1.5,0,1.3-.9,1.8-2.8.5-1.8.3-3,.3-3,0,0-1,1-1.8,2.7Z"/>
    <path class="st1" d="M192.8,87.9c1.6.6,2.4,1.6,2.1,2-.3.4-1.5.2-3-.7-1.5-1-2.1-2-2.1-2,0,0,1.3,0,3,.7Z"/>
    <path class="st1" d="M196.7,90.9c-.9,1.6-.9,3-.4,3.1.5.1,1.3-.9,1.9-2.7.6-1.8.4-3,.4-3,0,0-1,1-1.9,2.6Z"/>
    <path class="st1" d="M194.2,91.8c1.6.7,2.3,1.7,2,2.1-.3.4-1.5.1-3-.9-1.5-1-2-2.1-2-2.1,0,0,1.3.1,3,.9Z"/>
    <path class="st1" d="M197.9,95.1c-1,1.6-1.1,2.9-.6,3s1.4-.8,2.1-2.6c.7-1.8.6-3,.6-3,0,0-1.1.9-2.1,2.5Z"/>
    <path class="st1" d="M195.4,95.9c1.5.8,2.3,1.8,1.9,2.2-.4.4-1.5,0-2.9-1.1-1.4-1.1-1.9-2.2-1.9-2.2,0,0,1.3.2,2.9,1Z"/>
    <path class="st1" d="M199,99.3c-1,1.5-1.2,2.8-.7,3,.5.2,1.4-.7,2.2-2.5.8-1.7.7-2.9.7-2.9,0,0-1.1.9-2.2,2.4Z"/>
    <path class="st1" d="M196.5,100c1.5.9,2.2,2,1.8,2.3s-1.5,0-2.9-1.2c-1.3-1.2-1.7-2.3-1.7-2.3,0,0,1.3.3,2.9,1.2Z"/>
    <path class="st1" d="M199.8,103.6c-1.1,1.4-1.4,2.8-.9,3,.5.2,1.5-.6,2.3-2.3.9-1.7.9-2.9.9-2.9,0,0-1.2.8-2.3,2.3Z"/>
    <path class="st1" d="M197.3,104.2c1.4.9,2,2.1,1.6,2.4-.4.3-1.5-.1-2.8-1.4-1.3-1.3-1.6-2.3-1.6-2.3,0,0,1.3.3,2.8,1.3Z"/>
    <path class="st1" d="M200.4,107.9c-1.2,1.4-1.5,2.7-1.1,2.9.5.2,1.5-.6,2.4-2.2,1-1.6,1-2.9,1-2.9,0,0-1.2.7-2.4,2.2Z"/>
    <path class="st1" d="M197.8,108.3c1.4,1,1.9,2.2,1.5,2.5s-1.5-.2-2.7-1.5c-1.2-1.3-1.5-2.4-1.5-2.4,0,0,1.3.4,2.7,1.5Z"/>
    <path class="st1" d="M200.8,112.3c-1.3,1.3-1.7,2.6-1.2,2.8.5.2,1.5-.5,2.6-2.1,1-1.6,1.2-2.8,1.2-2.8,0,0-1.2.7-2.5,2Z"/>
    <path class="st1" d="M198.2,112.6c1.3,1.1,1.8,2.3,1.4,2.6-.4.3-1.5-.3-2.7-1.6-1.1-1.4-1.4-2.5-1.4-2.5,0,0,1.3.5,2.6,1.6Z"/>
  </g>
  <path class="st1" d="M126.8,232l-1.9-1.9c.8-1.3,1.2-2.8,1.2-4.5,0-4.8-3.8-8.6-8.6-8.6s-8.6,3.9-8.6,8.6,3.8,8.6,8.6,8.6,3.6-.6,5-1.7l1.8,1.7,2.5-2.2ZM117.6,230.8c-2.9,0-5.3-2.3-5.3-5.3s2.3-5.3,5.3-5.3,5.3,2.3,5.3,5.3,0,1.3-.4,2h0c0-.1-4.9-.1-4.9-.1l2.7,2.7c-.9.4-1.6.7-2.6.7Z"/>
  <g>
    <path class="st1" d="M30.4,184.4l-1.2-1.6,8-6,1.2,1.6-8,6Z"/>
    <path class="st1" d="M23,173.6l-1-1.8,3.3-5.6c.3-.5.9-1.3.9-1.3h0s-.9.5-1.5.9l-4.6,2.5-1-1.8,8.8-4.8.9,1.7-3.2,5.7c-.3.5-.9,1.3-.9,1.3h0s.9-.5,1.5-.9l4.5-2.5,1,1.8-8.8,4.8Z"/>
    <path class="st1" d="M14.8,156.7l-2.6-7.6,1.6-.6,1,2.8,7.9-2.7.7,1.9-7.9,2.7,1,2.8-1.6.6Z"/>
    <path class="st1" d="M9.6,138.7l-1.2-7.3,1.7-.3.9,5.3,2.2-.4-.8-4.6,1.6-.3.8,4.6,2.7-.4-.9-5.3,1.7-.3,1.2,7.3-9.9,1.6Z"/>
    <path class="st1" d="M7.6,120.5v-4.6c0-1.9,1.2-3.2,2.8-3.2,1.2,0,2.1.6,2.4,1.8h0c.3-.9.8-1.4,2-1.5,1.4-.1,2.5,0,2.6-.4h0s0,1.9,0,1.9c-.1.3-1.2.3-2.3.4-1.1,0-1.7.7-1.7,2v1.6s4,0,4,0v2s-10,0-10,0ZM12,118.5v-2.2c0-1.1-.6-1.7-1.4-1.7-.8,0-1.4.5-1.4,1.6v2.2s2.8,0,2.8,0Z"/>
    <path class="st1" d="M8.6,101.7l.4-2,6.1-2.3c.6-.2,1.5-.4,1.5-.4h0s-1-.2-1.7-.3l-5.2-.9.4-2,9.9,1.8-.3,1.9-6.1,2.4c-.6.2-1.5.5-1.5.5h0s1,.2,1.7.3l5.1.9-.4,2-9.9-1.8Z"/>
    <path class="st1" d="M14,80.3l.7-2,10.6.2-.7,2h-2.2c0-.1-1.3,3.3-1.3,3.3l1.8,1.4-.7,1.9-8.2-6.7ZM19.9,82.7l.9-2.5-3-.2c-.6,0-1.6-.2-1.6-.2h0s.9.6,1.3,1l2.4,1.8Z"/>
    <path class="st1" d="M19.6,67.1l3.9-7,1.5.8-1.5,2.6,7.2,4.1-1,1.8-7.2-4.1-1.5,2.6-1.5-.8Z"/>
    <path class="st1" d="M29.6,51.5l1.2-1.6,8,6.1-1.2,1.6-8-6.1Z"/>
    <path class="st1" d="M41.1,45.3c-2.1-2.2-2.3-5.1-.2-7.1,2.1-2.1,5-1.7,7.1.4,2.1,2.2,2.3,5,.2,7.1-2.1,2.1-5,1.8-7.1-.4ZM46.6,40.1c-1.4-1.4-3.1-1.9-4.4-.7s-.9,3,.5,4.5c1.4,1.4,3.1,1.9,4.5.6,1.3-1.3.9-3-.5-4.4Z"/>
    <path class="st1" d="M53.1,28.2l1.7-1.1,5.9,2.8c.6.3,1.4.8,1.4.8h0s-.6-.8-1-1.4l-2.9-4.4,1.7-1.1,5.6,8.3-1.6,1.1-5.9-2.7c-.6-.3-1.4-.8-1.4-.8h0s.6.9,1,1.4l2.9,4.3-1.7,1.1-5.6-8.3Z"/>
    <path class="st1" d="M72.2,17.2l1.9-.8,7.3,7.7-1.9.9-1.5-1.7-3.3,1.5.3,2.2-1.9.8-.8-10.6ZM74.5,23.1l2.4-1.1-2-2.3c-.4-.4-1-1.2-1-1.2h0s.2,1,.2,1.6l.3,3Z"/>
    <path class="st1" d="M87.3,11.6l2-.5,2,8.1,4.6-1.2.4,1.6-6.5,1.7-2.5-9.7Z"/>
    <path class="st1" d="M116.1,7.4h2.9c0,0,1.3,5.2,1.3,5.2.3,1.3.5,2.7.5,2.7h0s.3-1.4.7-2.7l1.6-5h2.9c0,0-.3,10.1-.3,10.1h-1.9c0,0,.2-5.8.2-5.8,0-.8.1-2.1.1-2.1h0s-.3,1.2-.5,1.9l-1.9,5.9h-1.9c0,0-1.5-6-1.5-6-.2-.7-.4-1.9-.4-1.9h0s0,1.3,0,2.1l-.2,5.7h-1.9c0,0,.3-10.1.3-10.1Z"/>
    <path class="st1" d="M139.9,9.7l2.1.4,1.3,10.5-2.1-.4-.2-2.2-3.5-.8-1.1,1.9-2-.4,5.5-9ZM138.2,15.9l2.6.6-.3-3c0-.6,0-1.6,0-1.6h0s-.5.9-.7,1.4l-1.5,2.6Z"/>
    <path class="st1" d="M152.3,20.3l1.8.7c-.3,1.2.1,1.9,1.5,2.4,1,.4,1.9.4,2.3-.5.4-.9-.4-1.4-1.7-2.3-1.5-1-2.8-2.1-2.1-4,.7-1.8,2.6-2.2,4.7-1.3,2.1.8,3,2.4,2.4,4.3l-1.8-.7c.3-1-.3-1.7-1.2-2.1-1-.4-1.8-.3-2.1.4-.3.8.3,1.2,1.5,2.1,1.7,1.2,3.1,2.3,2.3,4.3-.8,1.9-2.7,2.3-4.8,1.5-2.5-1-3.5-2.7-2.8-4.7Z"/>
    <path class="st1" d="M171.3,21.4l6.9,4.2-.9,1.5-2.6-1.6-4.3,7.1-1.7-1.1,4.3-7.1-2.6-1.6.9-1.5Z"/>
    <path class="st1" d="M186.8,32l5.6,4.8-1.1,1.3-4-3.5-1.5,1.7,3.5,3.1-1.1,1.3-3.5-3.1-1.8,2,4.1,3.5-1.1,1.3-5.6-4.9,6.6-7.6Z"/>
    <path class="st1" d="M200.1,44.7l2.9,3.5c1.2,1.5,1.2,3.2-.1,4.3-.9.7-1.9.9-3,.1h0c.4.9.3,1.6-.6,2.5-1,1-1.9,1.6-1.8,2h0c0,0-1.2-1.4-1.2-1.4,0-.3.8-1,1.6-1.7.8-.8.9-1.6,0-2.6l-1-1.3-3.1,2.6-1.3-1.6,7.7-6.4ZM197.9,49.1l1.4,1.7c.7.9,1.5.9,2.1.4.6-.5.8-1.3,0-2.1l-1.4-1.7-2.2,1.8Z"/>
    <path class="st1" d="M216.8,69.9l1.8,4c.5,1.1.5,2,.2,2.8-.3.7-.9,1.4-1.7,1.7-1.7.8-3.4.1-4.2-1.8l-1-2.3-3.3,1.5-.8-1.9,9.2-4ZM213.3,73.8l.8,1.9c.4,1,1.2,1.3,2,.9.9-.4,1.1-1.1.7-2.1l-.9-2-2.7,1.2Z"/>
    <path class="st1" d="M223.3,87.3l.5,2-8.1,2,1.2,4.6-1.6.4-1.6-6.5,9.7-2.4Z"/>
    <path class="st1" d="M227,107.3l.2,2.1-9.7,4.3-.2-2.1,2.1-.8-.3-3.6-2.2-.5-.2-2.1,10.3,2.7ZM220.6,107.5l.2,2.6,2.8-1.1c.5-.2,1.5-.5,1.5-.5h0s-1-.2-1.6-.3l-2.9-.7Z"/>
    <path class="st1" d="M227.3,123.4l-.2,2-5.9,2.8c-.6.3-1.5.6-1.5.6h0s1,0,1.7.1l5.2.5-.2,2-10-.9.2-2,5.8-2.9c.6-.3,1.4-.6,1.4-.6h0s-1.1,0-1.7-.1l-5.1-.5.2-2,10,.9Z"/>
    <path class="st1" d="M224.6,142.6l-.5,2-6.3,1.7c-.6.2-1.5.3-1.5.3h0s1,.2,1.7.4l5.1,1.4-.5,1.9-9.7-2.7.5-1.9,6.2-1.8c.6-.2,1.5-.3,1.5-.3h0s-1-.3-1.7-.4l-5-1.4.5-1.9,9.7,2.7Z"/>
    <path class="st1" d="M218.5,160.9l-3.1,6.7-1.5-.7,2.3-4.8-2-1-2,4.2-1.5-.7,2-4.2-2.4-1.2-2.3,4.9-1.5-.7,3.2-6.7,9.1,4.3Z"/>
    <path class="st1" d="M209.9,177.1l-2.6,3.8c-1.1,1.6-2.8,2-4.1,1-1-.7-1.4-1.6-.9-2.9h0c-.7.6-1.5.7-2.5,0-1.2-.7-2.1-1.4-2.4-1.2h0c0,0,1.1-1.7,1.1-1.7.2-.1,1.2.5,2.1,1,.9.6,1.8.4,2.5-.6l.9-1.3-3.3-2.3,1.2-1.7,8.2,5.7ZM205.1,176.2l-1.2,1.8c-.6.9-.5,1.7.2,2.1.7.5,1.5.4,2.1-.5l1.3-1.8-2.3-1.6Z"/>
  </g>
  <g class="st0">
    <path class="st1" d="M90.1,97.8v.4c-1,0-1.9.3-2.6.8-.7.6-1.1,1.5-1.1,2.8v25.7c0,1.3.4,2.2,1.1,2.8.8.6,1.6.9,2.5.9v.4h-10.7v-.4c1,0,1.8-.3,2.5-.9.7-.6,1.1-1.5,1.1-2.9v-25.7c0-1.4-.4-2.4-1.1-2.9-.7-.5-1.6-.8-2.5-.8v-.4h10.7Z"/>
    <path class="st1" d="M129.4,97.8v.4c-.6,0-1.1.1-1.4.2s-.6.2-.9.5c-.5.4-.8.8-1,1.1-.1.4-.2,1-.2,1.8,0,.1,0,.3,0,.4l1.2,25.1c0,1.1.3,2,.8,2.7.5.8,1.5,1.2,3.1,1.2v.4h-10.9v-.4c1.4-.2,2.4-.6,2.9-1.3.5-.7.7-1.7.6-3.2l-1.2-26h0l-11.9,30.8-11.3-29.7h0l-1.2,24c0,1.3,0,2.3.2,3.1s.6,1.2,1.1,1.6c.5.3,1.2.5,2.2.7v.4h-8.5v-.4c1.1,0,1.9-.3,2.5-.8.6-.5.9-1.1,1.1-1.9.2-.8.3-1.8.4-3.1l1.4-24.8c0,0,0-.3-.3-.5s-.4-.5-.7-.7-.5-.4-.8-.6c-.5-.3-1-.5-1.4-.6s-.9-.1-1.6-.1v-.4h7.8l10.5,27.7,10.6-27.7h7.1Z"/>
    <path class="st1" d="M133.8,98.2v-.4h11.1c1.9,0,3.5.3,4.9.8s2.6,1.2,3.5,2.1c.9.9,1.6,1.9,2.1,2.9.5,1.1.7,2.2.7,3.5s-.2,2.3-.7,3.4c-.4,1.1-1.1,2.1-2.1,2.9-.9.8-2.2,1.5-3.7,2s-3.3.8-5.2.8-1.8,0-3.6-.3v11.7c0,2.4,1.2,3.6,3.7,3.7v.4h-10.8v-.4c1.1,0,1.9-.3,2.6-.9.7-.6,1-1.5,1-2.8v-25.6c0-.8-.1-1.4-.4-2-.2-.5-.5-.9-.9-1.1s-.7-.4-1.1-.5c-.4-.1-.7-.2-.8-.2h-.5ZM140.9,99v15.9c1.2.2,2.3.3,3.5.3,2.2,0,4-.6,5.6-1.7,1.5-1.1,2.3-3.2,2.3-6.3s-.7-4.6-2-6.2c-1.3-1.6-3.4-2.4-6.1-2.4s-2.1,0-3.2.3Z"/>
  </g>
</svg>