<svg width="49" height="48" viewBox="0 0 49 48" fill="none" xmlns="http://www.w3.org/2000/svg">
<path d="M42.4898 13.8062C42.4576 13.4695 42.3403 13.1466 42.1489 12.8677C41.9576 12.5889 41.6984 12.3633 41.3958 12.2122L25.4498 4.2122C25.1724 4.07208 24.8661 3.99875 24.5553 3.99805C24.2445 3.99736 23.9379 4.06932 23.6598 4.2082L7.60583 12.2082C7.01183 12.5082 6.60183 13.0822 6.51783 13.7422C6.49183 13.9362 4.22783 33.2242 23.5998 43.7582C23.8976 43.9206 24.232 44.0042 24.5712 44.0011C24.9104 43.9979 25.2431 43.9081 25.5378 43.7402C44.1518 33.2222 42.5658 14.5942 42.4898 13.8062ZM24.5358 39.6942C10.8158 31.6742 10.2558 18.9902 10.4098 15.2842L24.5518 8.2382L38.5478 15.2602C38.5578 19.0002 37.5858 31.7462 24.5358 39.6942Z" fill="#CA9D6B"/>
</svg>
