<svg xmlns="http://www.w3.org/2000/svg" xmlns:xlink="http://www.w3.org/1999/xlink" x="0px" y="0px" viewBox="0 0 330 36">
	<path fill="#0F1138" d="M105.352,33.342V4.311h21.298v4.944h-15.467v6.465h13.565v4.817h-13.565v7.861h15.594v4.943H105.352z
		 M134.003,33.342l-7.226-20.791h5.578l3.296,10.775c0.634,2.029,0.887,3.297,0.887,3.297h0.127c0,0,0.253-1.395,0.888-3.297
		l3.423-10.775h5.579l-7.226,20.791H134.003z M157.203,33.977c-6.845,0-10.775-4.818-10.775-11.029
		c0-6.212,4.184-10.903,10.27-10.903c6.719,0,10.268,5.071,10.268,12.55h-15.086c0.381,3.17,2.155,5.199,5.324,5.199
		c2.156,0,3.424-1.016,4.057-2.535h5.451C165.824,30.807,162.654,33.977,157.203,33.977z M156.822,16.228
		c-2.916,0-4.309,1.775-4.816,4.437h9.254C161.006,18.002,159.358,16.228,156.822,16.228z M174.571,12.551v2.789h0.127
		c1.396-2.282,3.296-3.423,6.213-3.423c4.31,0,7.226,3.296,7.226,7.733v13.564h-5.578V20.537c0-2.281-1.268-3.802-3.55-3.802
		c-2.408,0-4.184,1.901-4.184,4.818v11.789h-5.579V12.551H174.571z M189.404,16.101v-3.55h2.916V5.958h5.452v6.466h3.55v3.677h-3.55
		v11.03c0,1.521,0.886,2.027,2.027,2.027c0.634,0,1.649,0,1.649,0v4.057c0,0-1.269,0.127-3.424,0.127
		c-2.662,0-5.578-1.014-5.578-4.943V16.228h-3.043V16.101z M221.732,33.977c-7.859,0-12.297-3.551-12.551-9.635h5.705
		c0.38,3.549,2.408,4.816,6.592,4.816c3.043,0,5.579-1.014,5.579-3.676c0-2.789-2.79-3.424-7.228-4.438
		c-5.196-1.141-9.887-2.535-9.887-8.621c0-5.705,4.69-8.621,11.155-8.621c6.592,0,10.775,3.169,11.155,9.001h-5.576
		c-0.381-2.916-2.537-4.438-5.579-4.438c-3.169,0-5.198,1.395-5.198,3.423c0,2.409,2.029,3.042,6.34,3.93
		c5.957,1.268,10.775,2.663,10.775,9C233.016,30.68,228.324,33.977,221.732,33.977z M245.313,33.977
		c-6.592,0-10.648-4.818-10.648-11.029c0-6.212,4.057-11.03,10.395-11.03c5.452,0,8.748,3.169,9.51,7.606h-5.453
		c-0.38-1.774-1.773-3.169-3.803-3.169c-3.296,0-5.071,2.536-5.071,6.593c0,3.93,1.522,6.592,4.944,6.592
		c2.283,0,3.804-1.141,4.184-3.551h5.325C254.314,30.426,250.892,33.977,245.313,33.977z M262.174,4.311v10.903h0.127
		c1.521-2.155,3.17-3.296,6.086-3.296c4.311,0,7.227,3.296,7.227,7.733v13.564h-5.579V20.537c0-2.281-1.267-3.802-3.55-3.802
		c-2.408,0-4.184,1.901-4.184,4.818v11.789h-5.577V4.311H262.174z M288.418,33.977c-6.467,0-10.902-4.818-10.902-11.029
		c0-6.212,4.436-11.03,10.902-11.03c6.465,0,10.901,4.818,10.901,11.03C299.319,29.158,294.883,33.977,288.418,33.977z
		 M288.418,29.666c3.422,0,5.324-2.662,5.324-6.719c0-4.057-1.902-6.846-5.324-6.846c-3.424,0-5.326,2.789-5.326,6.846
		C283.092,27.004,284.994,29.666,288.418,29.666z M311.363,33.977c-6.465,0-10.902-4.818-10.902-11.029
		c0-6.212,4.438-11.03,10.902-11.03c6.467,0,10.903,4.818,10.903,11.03C322.267,29.158,317.703,33.977,311.363,33.977z
		 M311.363,29.666c3.424,0,5.324-2.662,5.324-6.719c0-4.057-1.9-6.846-5.324-6.846c-3.423,0-5.324,2.789-5.324,6.846
		C306.039,27.004,307.94,29.666,311.363,29.666z M324.422,33.342V4.311H330v29.031H324.422z"/>
	<path fill="#0F1138" d="M15.847,8.368c5.325,0,9.635,4.31,9.635,9.635c0,5.324-4.31,9.634-9.635,9.634s-9.635-4.311-9.635-9.634
		C6.212,12.678,10.522,8.368,15.847,8.368z M15.847,2.282C7.1,2.282,0,9.255,0,18.002S7.1,33.85,15.847,33.85
		s15.974-7.1,15.974-15.847S24.722,2.282,15.847,2.282z"/>
	<path fill="#0F1138" d="M56.542,20.918c-1.268,3.93-4.944,6.719-9.254,6.719c-5.325,0-9.635-4.311-9.635-9.634
		c0-5.325,4.311-9.635,9.635-9.635c4.184,0,7.733,2.662,9.128,6.338h6.465C61.36,7.607,54.895,2.282,47.288,2.282
		c-8.748,0-15.847,7.1-15.847,15.847s7.1,15.847,15.847,15.847c7.86,0,14.326-5.578,15.593-12.932L56.542,20.918z"/>
	<path fill="#0F1138" d="M16.862,22.566L29.666,34.99l4.691-4.184l-8.367-8.24"/>
	<path fill="#4CC3C7" d="M85.068,0h-6.466v36h6.466V0z"/>
</svg>
