<?xml version="1.0" encoding="utf-8"?>
<svg version="1.1" xmlns="http://www.w3.org/2000/svg" xmlns:xlink="http://www.w3.org/1999/xlink" x="0px" y="0px"
	 width="24px" height="17px" viewBox="0 0 24 17" enable-background="new 0 0 24 17" xml:space="preserve">
<g transform="translate(1.4065934065934016 1.4065934065934016) scale(2.81 2.81)">
	<path fill="currentColor" d="M7.862,0.469C7.764,0.101,7.474-0.188,7.107-0.286C6.441-0.465,3.77-0.465,3.77-0.465s-2.671,0-3.337,0.179
		C0.066-0.188-0.224,0.101-0.322,0.469c-0.179,0.666-0.179,2.056-0.179,2.056s0,1.389,0.179,2.056
		c0.098,0.368,0.388,0.657,0.755,0.755C1.099,5.514,3.77,5.514,3.77,5.514s2.671,0,3.337-0.179C7.474,5.237,7.764,4.948,7.862,4.58
		C8.04,3.914,8.04,2.524,8.04,2.524S8.04,1.135,7.862,0.469z M2.916,3.805V1.244l2.219,1.281L2.916,3.805z"/>
</g>
</svg>
