<svg width="160" height="166" viewBox="0 0 160 166" fill="none" xmlns="http://www.w3.org/2000/svg">
<g clip-path="url(#clip0_6252_4633)">
<path d="M96.2811 23.1499V23.3842C98.7408 24.0869 101.201 24.9069 103.543 25.961C110.688 29.0064 117.013 33.3402 122.401 38.8454C127.906 44.3505 132.123 50.7927 135.168 57.8205C138.214 65.1997 139.854 73.0474 139.736 81.0123C139.736 89.0943 138.097 96.8249 134.934 104.204C131.889 111.232 127.555 117.674 122.167 123.062C116.662 128.567 110.337 132.784 103.192 135.829C95.8125 138.875 88.082 140.514 80 140.514H79.7657C71.6837 140.514 63.9531 138.875 56.5739 135.712C49.429 132.667 43.1039 128.333 37.7159 122.828C32.2108 117.323 27.9941 110.881 24.9487 103.853C21.9033 96.4735 20.2635 88.6257 20.3806 80.6609C20.3806 72.5789 22.0205 64.8483 25.183 57.4691C28.2284 50.4413 32.5622 43.9991 37.9502 38.6111C43.4553 33.106 49.7803 28.8893 56.9253 25.8439C59.2679 24.9069 61.4934 24.0869 63.9531 23.3842V23.1499C38.7701 30.1777 20.3806 53.2524 20.2635 80.5438C20.1464 113.575 46.8521 140.514 79.8828 140.632C80 140.632 80 140.632 80.1171 140.632C113.031 140.632 139.854 113.926 139.971 81.0123C139.971 53.4867 121.464 30.1777 96.2811 23.1499Z" fill="#FAF0B6"/>
<path d="M19.3265 80.1922C20.2635 81.1292 20.6149 82.0663 20.2635 82.1834C19.9121 82.3005 19.0922 81.9491 18.2723 80.7778C17.4524 79.6065 17.3353 78.7866 17.3353 78.7866C17.3353 78.7866 18.2723 79.2551 19.3265 80.1922Z" fill="#FAF0B6"/>
<path d="M21.2006 80.3094C20.2635 81.1293 19.9122 82.0664 20.2635 82.1835C20.6149 82.4178 21.3177 81.9493 22.1376 80.8951C22.9575 79.8409 23.0747 79.021 23.0747 79.021C23.0747 79.021 22.1376 79.4895 21.2006 80.3094Z" fill="#FAF0B6"/>
<path d="M19.3265 83.4721C20.3807 84.292 20.732 85.229 20.3807 85.4633C20.0293 85.6976 19.2094 85.229 18.3894 84.1749C17.5695 83.1207 17.3353 82.3008 17.3353 82.3008C17.3353 82.3008 18.2723 82.535 19.3265 83.4721Z" fill="#FAF0B6"/>
<path d="M21.2006 83.472C20.2636 84.4091 20.0293 85.229 20.3807 85.4632C20.7321 85.5804 21.4349 85.1118 22.1376 84.0577C22.8404 83.0035 22.9576 82.1836 22.9576 82.1836C22.9576 82.1836 22.1376 82.535 21.2006 83.472Z" fill="#FAF0B6"/>
<path d="M19.5607 86.6342C20.6149 87.4541 21.0834 88.274 20.732 88.5083C20.3807 88.7425 19.5607 88.3911 18.6237 87.337C17.6867 86.2828 17.4524 85.4629 17.4524 85.4629C17.4524 85.4629 18.5066 85.8143 19.5607 86.6342Z" fill="#FAF0B6"/>
<path d="M21.4348 86.5173C20.6149 87.4544 20.3806 88.3914 20.732 88.5085C21.0834 88.6257 21.7862 88.1571 22.489 86.9858C23.1918 85.8145 23.1918 84.9946 23.1918 84.9946C23.1918 84.9946 22.3719 85.5803 21.4348 86.5173Z" fill="#FAF0B6"/>
<path d="M19.9121 89.7969C20.9663 90.4997 21.4348 91.4367 21.2006 91.671C20.9663 91.9053 20.0292 91.5539 19.0922 90.6168C18.1552 89.6798 17.8038 88.8599 17.8038 88.8599C17.8038 88.8599 18.8579 88.977 19.9121 89.7969Z" fill="#FAF0B6"/>
<path d="M21.9033 89.5627C21.0834 90.4998 20.9663 91.4368 21.3177 91.5539C21.6691 91.6711 22.3719 91.0854 22.9575 90.0313C23.5432 88.8599 23.5432 88.04 23.5432 88.04C23.5432 88.04 22.7233 88.5086 21.9033 89.5627Z" fill="#FAF0B6"/>
<path d="M20.4978 92.8423C21.6691 93.5451 22.1376 94.365 21.9034 94.5993C21.6691 94.8335 20.7321 94.5993 19.6779 93.6622C18.6237 92.7252 18.2723 91.9053 18.2723 91.9053C18.2723 91.9053 19.3265 92.1395 20.4978 92.8423Z" fill="#FAF0B6"/>
<path d="M22.3719 92.6081C21.6691 93.6623 21.552 94.5994 21.9034 94.7165C22.2548 94.8336 22.9575 94.248 23.4261 93.0767C24.0117 91.9054 23.8946 91.0854 23.8946 91.0854C23.8946 91.0854 23.1918 91.554 22.3719 92.6081Z" fill="#FAF0B6"/>
<path d="M21.2006 96.005C22.3719 96.5907 22.9575 97.4106 22.7233 97.762C22.489 97.9963 21.552 97.762 20.4978 96.9421C19.4436 96.1222 19.0922 95.3022 19.0922 95.3022C19.0922 95.3022 20.0293 95.3023 21.2006 96.005Z" fill="#FAF0B6"/>
<path d="M23.0746 95.6535C22.3719 96.7077 22.3719 97.6447 22.7232 97.7618C23.0746 97.879 23.6603 97.2933 24.2459 96.0049C24.7145 94.8336 24.5973 94.0137 24.5973 94.0137C24.5973 94.0137 23.7774 94.4822 23.0746 95.6535Z" fill="#FAF0B6"/>
<path d="M22.1376 99.0504C23.3089 99.6361 23.8945 100.339 23.6603 100.69C23.426 100.925 22.489 100.807 21.4348 99.9875C20.2635 99.1676 19.9121 98.3477 19.9121 98.3477C19.9121 98.3477 20.8492 98.4648 22.1376 99.0504Z" fill="#FAF0B6"/>
<path d="M23.8945 98.5817C23.3089 99.6358 23.3089 100.573 23.6603 100.69C24.0117 100.807 24.5973 100.104 25.0658 98.9331C25.5344 97.6446 25.3001 96.8247 25.3001 96.8247C25.3001 96.8247 24.5973 97.4104 23.8945 98.5817Z" fill="#FAF0B6"/>
<path d="M23.0747 102.095C24.3631 102.564 24.9487 103.384 24.7145 103.618C24.4802 103.852 23.5432 103.735 22.3719 103.032C21.2006 102.33 20.7321 101.51 20.7321 101.51C20.7321 101.51 21.9034 101.51 23.0747 102.095Z" fill="#FAF0B6"/>
<path d="M24.9488 101.51C24.3631 102.681 24.3631 103.618 24.8316 103.618C25.183 103.618 25.7687 103.033 26.1201 101.744C26.4714 100.456 26.2372 99.6357 26.2372 99.6357C26.2372 99.6357 25.5344 100.339 24.9488 101.51Z" fill="#FAF0B6"/>
<path d="M24.3631 105.024C25.6515 105.492 26.3543 106.195 26.1201 106.429C25.8858 106.781 24.9488 106.664 23.7775 105.961C22.6062 105.258 22.1376 104.555 22.1376 104.555C22.1376 104.555 23.0747 104.555 24.3631 105.024Z" fill="#FAF0B6"/>
<path d="M26.1201 104.321C25.6515 105.493 25.6515 106.43 26.1201 106.43C26.4715 106.43 27.0571 105.727 27.2914 104.438C27.5256 103.15 27.4085 102.33 27.4085 102.33C27.4085 102.33 26.5886 103.15 26.1201 104.321Z" fill="#FAF0B6"/>
<path d="M25.6515 107.835C26.9399 108.186 27.6427 108.889 27.4085 109.241C27.1742 109.592 26.2372 109.475 25.0659 108.889C23.8946 108.304 23.3089 107.601 23.3089 107.601C23.3089 107.601 24.3631 107.484 25.6515 107.835Z" fill="#FAF0B6"/>
<path d="M27.4084 107.132C26.9399 108.304 27.0571 109.241 27.4084 109.241C27.7598 109.241 28.2284 108.538 28.4626 107.249C28.6969 105.961 28.4626 105.141 28.4626 105.141C28.4626 105.141 27.877 105.961 27.4084 107.132Z" fill="#FAF0B6"/>
<path d="M27.1742 110.646C28.4626 110.997 29.2826 111.583 29.0483 111.934C28.814 112.286 27.877 112.286 26.7057 111.7C25.4173 111.114 24.8316 110.412 24.8316 110.412C24.8316 110.412 25.7686 110.412 27.1742 110.646Z" fill="#FAF0B6"/>
<path d="M28.9312 109.826C28.5798 110.997 28.6969 111.934 29.0483 111.934C29.3997 111.934 29.8682 111.115 29.9853 109.826C30.1025 108.538 29.8682 107.718 29.8682 107.718C29.8682 107.718 29.2826 108.655 28.9312 109.826Z" fill="#FAF0B6"/>
<path d="M28.814 113.457C30.1025 113.692 30.9224 114.277 30.6881 114.629C30.571 114.98 29.634 114.98 28.3455 114.512C27.0571 114.043 26.4714 113.34 26.4714 113.34C26.4714 113.34 27.4085 113.223 28.814 113.457Z" fill="#FAF0B6"/>
<path d="M30.4539 112.52C30.1025 113.691 30.3367 114.628 30.6881 114.628C31.0395 114.628 31.508 113.808 31.508 112.52C31.6252 111.232 31.2738 110.412 31.2738 110.412C31.2738 110.412 30.8052 111.232 30.4539 112.52Z" fill="#FAF0B6"/>
<path d="M30.571 116.034C31.8594 116.151 32.6793 116.737 32.5622 117.088C32.4451 117.44 31.508 117.557 30.2196 117.088C28.9312 116.62 28.2284 116.034 28.2284 116.034C28.2284 116.034 29.1654 115.917 30.571 116.034Z" fill="#FAF0B6"/>
<path d="M32.2108 114.98C31.9766 116.268 32.2108 117.088 32.5622 117.088C32.9136 117.088 33.265 116.268 33.265 114.98C33.265 113.692 32.9136 112.989 32.9136 112.989C32.9136 112.989 32.4451 113.809 32.2108 114.98Z" fill="#FAF0B6"/>
<path d="M32.4451 118.611C33.7335 118.728 34.6706 119.197 34.4363 119.548C34.3192 119.899 33.3821 120.016 32.0937 119.665C30.8053 119.314 30.1025 118.728 30.1025 118.728C30.1025 118.728 31.1567 118.494 32.4451 118.611Z" fill="#FAF0B6"/>
<path d="M34.0849 117.44C33.8506 118.728 34.202 119.548 34.5534 119.548C34.9048 119.431 35.2562 118.611 35.1391 117.323C35.0219 116.034 34.6705 115.332 34.6705 115.332C34.6705 115.332 34.202 116.269 34.0849 117.44Z" fill="#FAF0B6"/>
<path d="M34.5534 121.071C35.8419 121.071 36.7789 121.539 36.6618 121.891C36.5446 122.242 35.6076 122.476 34.3192 122.125C32.9136 121.891 32.2108 121.305 32.2108 121.305C32.2108 121.305 33.1479 121.071 34.5534 121.071Z" fill="#FAF0B6"/>
<path d="M36.0761 119.899C35.959 121.188 36.3104 122.008 36.6618 121.891C37.0132 121.773 37.3646 120.953 37.1303 119.665C37.0132 118.377 36.5447 117.674 36.5447 117.674C36.5447 117.674 36.1933 118.611 36.0761 119.899Z" fill="#FAF0B6"/>
<path d="M36.6618 123.413C37.9502 123.413 38.8872 123.764 38.7701 124.116C38.653 124.467 37.7159 124.702 36.4275 124.467C35.0219 124.233 34.3192 123.764 34.3192 123.764C34.3192 123.764 35.3733 123.413 36.6618 123.413Z" fill="#FAF0B6"/>
<path d="M38.1845 122.125C38.0674 123.413 38.5359 124.233 38.8873 124.116C39.2387 123.999 39.4729 123.179 39.2387 121.891C39.0044 120.602 38.5359 119.899 38.5359 119.899C38.5359 119.899 38.1845 120.836 38.1845 122.125Z" fill="#FAF0B6"/>
<path d="M39.0043 125.639C40.2928 125.522 41.2298 125.873 41.1127 126.224C40.9956 126.576 40.1757 126.81 38.7701 126.693C37.3645 126.576 36.6617 126.107 36.6617 126.107C36.6617 126.107 37.5988 125.756 39.0043 125.639Z" fill="#FAF0B6"/>
<path d="M40.4099 124.233C40.4099 125.522 40.8784 126.342 41.2298 126.225C41.5812 126.107 41.8155 125.288 41.4641 123.999C41.2298 122.711 40.6442 122.125 40.6442 122.125C40.6442 122.125 40.4099 122.945 40.4099 124.233Z" fill="#FAF0B6"/>
<path d="M41.347 127.63C42.6354 127.396 43.5725 127.747 43.5725 128.099C43.4553 128.45 42.6354 128.801 41.2299 128.684C39.8243 128.567 39.1215 128.216 39.1215 128.216C39.1215 128.216 40.0586 127.864 41.347 127.63Z" fill="#FAF0B6"/>
<path d="M42.6354 126.225C42.7526 127.513 43.2211 128.216 43.5725 128.099C43.9239 127.981 44.041 127.044 43.6896 125.873C43.3382 124.585 42.7526 123.999 42.7526 123.999C42.7526 123.999 42.6354 124.936 42.6354 126.225Z" fill="#FAF0B6"/>
<path d="M43.9238 129.621C45.2123 129.387 46.1493 129.621 46.1493 129.973C46.1493 130.324 45.2123 130.675 43.9238 130.675C42.5183 130.675 41.6984 130.324 41.6984 130.324C41.6984 130.324 42.5183 129.855 43.9238 129.621Z" fill="#FAF0B6"/>
<path d="M45.0952 128.099C45.2123 129.387 45.798 130.09 46.1493 129.973C46.5007 129.855 46.6179 128.918 46.1493 127.747C45.798 126.459 45.2123 125.873 45.2123 125.873C45.2123 125.873 44.978 126.81 45.0952 128.099Z" fill="#FAF0B6"/>
<path d="M46.5007 131.495C47.7891 131.144 48.7262 131.378 48.7262 131.729C48.7262 132.081 47.9062 132.549 46.5007 132.549C45.0951 132.666 44.2752 132.315 44.2752 132.315C44.2752 132.315 45.2123 131.847 46.5007 131.495Z" fill="#FAF0B6"/>
<path d="M47.672 129.855C47.9062 131.144 48.4919 131.847 48.7262 131.612C49.0775 131.495 49.0776 130.558 48.609 129.387C48.1405 128.216 47.5549 127.63 47.5549 127.63C47.5549 127.63 47.4377 128.684 47.672 129.855Z" fill="#FAF0B6"/>
<path d="M49.1947 133.135C50.4831 132.784 51.4202 132.901 51.4202 133.252C51.4202 133.604 50.6003 134.072 49.1947 134.189C47.7892 134.306 46.9692 134.072 46.9692 134.072C46.9692 134.072 47.9063 133.486 49.1947 133.135Z" fill="#FAF0B6"/>
<path d="M50.2489 131.495C50.4832 132.784 51.0688 133.37 51.4202 133.252C51.7716 133.018 51.7716 132.198 51.186 131.027C50.7174 129.856 50.0146 129.27 50.0146 129.27C50.0146 129.27 50.0146 130.324 50.2489 131.495Z" fill="#FAF0B6"/>
<path d="M52.0058 134.658C53.2942 134.189 54.2313 134.306 54.2313 134.658C54.2313 135.009 53.4114 135.478 52.1229 135.712C50.7174 135.946 49.8975 135.712 49.8975 135.712C49.8975 135.712 50.7174 135.126 52.0058 134.658Z" fill="#FAF0B6"/>
<path d="M52.9429 133.018C53.2943 134.189 53.8799 134.892 54.2313 134.658C54.5827 134.424 54.4656 133.604 53.8799 132.432C53.2943 131.261 52.5915 130.792 52.5915 130.792C52.5915 130.792 52.5915 131.73 52.9429 133.018Z" fill="#FAF0B6"/>
<path d="M54.817 136.063C56.1054 135.595 57.0424 135.595 57.0424 135.946C57.0424 136.298 56.3397 136.883 54.9341 137.118C53.5285 137.352 52.7086 137.235 52.7086 137.235C52.7086 137.235 53.6457 136.649 54.817 136.063Z" fill="#FAF0B6"/>
<path d="M55.754 134.424C56.1054 135.595 56.8082 136.298 57.1596 136.064C57.5109 135.829 57.3938 135.009 56.691 133.838C56.1054 132.667 55.4026 132.198 55.4026 132.198C55.4026 132.198 55.2855 133.135 55.754 134.424Z" fill="#FAF0B6"/>
<path d="M57.7452 137.352C58.9165 136.766 59.9707 136.766 59.9707 137.118C59.9707 137.469 59.2679 138.055 57.9795 138.406C56.6911 138.758 55.754 138.64 55.754 138.64C55.754 138.64 56.5739 137.938 57.7452 137.352Z" fill="#FAF0B6"/>
<path d="M58.5651 135.595C59.0337 136.766 59.7364 137.352 59.9707 137.117C60.205 136.883 60.0878 136.063 59.3851 134.892C58.6823 133.838 57.9795 133.369 57.9795 133.369C57.9795 133.369 58.0966 134.423 58.5651 135.595Z" fill="#FAF0B6"/>
<path d="M60.7906 138.406C61.9619 137.703 62.8989 137.703 63.0161 138.055C63.1332 138.406 62.4304 138.992 61.0249 139.46C59.7364 139.929 58.7994 139.811 58.7994 139.811C58.7994 139.811 59.6193 139.109 60.7906 138.406Z" fill="#FAF0B6"/>
<path d="M61.4934 136.649C61.9619 137.82 62.7818 138.406 63.0161 138.054C63.2503 137.82 63.1332 136.883 62.3133 135.829C61.6105 134.775 60.7906 134.423 60.7906 134.423C60.7906 134.423 60.9077 135.478 61.4934 136.649Z" fill="#FAF0B6"/>
<path d="M63.836 139.343C65.0073 138.64 65.9443 138.523 66.0615 138.874C66.1786 139.226 65.4758 139.929 64.1874 140.397C62.899 140.866 61.9619 140.866 61.9619 140.866C61.9619 140.866 62.6647 140.046 63.836 139.343Z" fill="#FAF0B6"/>
<path d="M64.4217 137.469C65.0073 138.64 65.7101 139.109 66.0615 138.875C66.2957 138.64 66.0615 137.703 65.2416 136.766C64.4217 135.712 63.7189 135.361 63.7189 135.361C63.7189 135.361 63.836 136.415 64.4217 137.469Z" fill="#FAF0B6"/>
<path d="M66.8814 140.163C67.9356 139.343 68.9897 139.226 69.1069 139.577C69.224 139.929 68.6384 140.632 67.3499 141.217C66.0615 141.803 65.2416 141.803 65.2416 141.803C65.2416 141.803 65.8272 140.866 66.8814 140.163Z" fill="#FAF0B6"/>
<path d="M67.467 138.289C68.0527 139.343 68.8726 139.812 69.1068 139.577C69.3411 139.343 69.1068 138.406 68.1698 137.469C67.3499 136.532 66.53 136.181 66.53 136.181C66.53 136.181 66.7642 137.118 67.467 138.289Z" fill="#FAF0B6"/>
<path d="M70.0439 140.749C71.0981 139.929 72.0351 139.694 72.1522 140.046C72.2694 140.397 71.6837 141.1 70.3953 141.686C69.1068 142.271 68.2869 142.388 68.2869 142.388C68.2869 142.388 68.9897 141.569 70.0439 140.749Z" fill="#FAF0B6"/>
<path d="M70.3953 138.875C71.0981 139.929 71.918 140.397 72.1522 140.046C72.3865 139.812 72.0351 138.875 71.2152 138.055C70.2782 137.118 69.4583 136.883 69.4583 136.883C69.4583 136.883 69.6925 137.82 70.3953 138.875Z" fill="#FAF0B6"/>
<path d="M73.2064 141.217C74.2606 140.397 75.1976 140.163 75.3148 140.397C75.4319 140.749 74.9634 141.451 73.6749 142.154C72.5036 142.857 71.5666 142.857 71.5666 142.857C71.5666 142.857 72.1522 142.037 73.2064 141.217Z" fill="#FAF0B6"/>
<path d="M73.4407 139.226C74.1435 140.28 75.0805 140.632 75.1977 140.28C75.4319 139.929 75.0805 139.226 74.1435 138.289C73.2064 137.352 72.3865 137.235 72.3865 137.235C72.3865 137.235 72.7379 138.172 73.4407 139.226Z" fill="#FAF0B6"/>
<path d="M76.3689 141.452C77.306 140.515 78.243 140.28 78.4773 140.632C78.5944 140.983 78.1259 141.686 76.9546 142.506C75.7833 143.209 74.9634 143.326 74.9634 143.326C74.9634 143.326 75.3148 142.389 76.3689 141.452Z" fill="#FAF0B6"/>
<path d="M76.6032 139.577C77.4231 140.514 78.243 140.866 78.4773 140.631C78.7115 140.28 78.243 139.577 77.306 138.757C76.2518 137.937 75.4319 137.703 75.4319 137.703C75.4319 137.703 75.7833 138.523 76.6032 139.577Z" fill="#FAF0B6"/>
<path d="M64.8902 21.9785C64.3045 23.1498 63.4846 23.7354 63.1332 23.5012C62.899 23.2669 63.1332 22.3299 63.9531 21.2757C64.773 20.2215 65.593 19.8701 65.593 19.8701C65.593 19.8701 65.4758 20.69 64.8902 21.9785Z" fill="#FAF0B6"/>
<path d="M65.2416 23.8527C64.1874 23.1499 63.2504 23.1499 63.1332 23.5013C63.0161 23.8527 63.6018 24.4384 64.8902 25.024C66.0615 25.4925 66.8814 25.3754 66.8814 25.3754C66.8814 25.3754 66.2957 24.5555 65.2416 23.8527Z" fill="#FAF0B6"/>
<path d="M61.7277 22.7982C61.142 23.9695 60.4392 24.5552 60.0878 24.3209C59.8536 24.0867 59.9707 23.1496 60.7906 22.0954C61.6105 20.9241 62.4304 20.5728 62.4304 20.5728C62.4304 20.5728 62.3133 21.5098 61.7277 22.7982Z" fill="#FAF0B6"/>
<path d="M62.3133 24.6723C61.2591 24.0867 60.3221 24.0867 60.2049 24.4381C60.0878 24.7894 60.7906 25.3751 61.9619 25.8436C63.2503 26.3121 64.0702 26.0779 64.0702 26.0779C64.0702 26.0779 63.3675 25.258 62.3133 24.6723Z" fill="#FAF0B6"/>
<path d="M58.7994 23.8524C58.3309 25.1408 57.511 25.7265 57.2767 25.4922C57.0424 25.2579 57.1596 24.3209 57.8623 23.1496C58.5651 21.9783 59.385 21.5098 59.385 21.5098C59.385 21.5098 59.2679 22.5639 58.7994 23.8524Z" fill="#FAF0B6"/>
<path d="M59.3851 25.7266C58.2138 25.1409 57.2767 25.1409 57.2767 25.6095C57.2767 26.078 57.8624 26.5465 59.1508 26.8979C60.4392 27.2493 61.2592 27.015 61.2592 27.015C61.2592 27.015 60.5564 26.1951 59.3851 25.7266Z" fill="#FAF0B6"/>
<path d="M55.8711 25.0238C55.4026 26.3123 54.6998 27.015 54.4655 26.7808C54.2313 26.5465 54.2313 25.6095 54.9341 24.4382C55.6368 23.2669 56.3396 22.7983 56.3396 22.7983C56.3396 22.7983 56.2225 23.7354 55.8711 25.0238Z" fill="#FAF0B6"/>
<path d="M56.4568 26.7806C55.2855 26.3121 54.3484 26.3121 54.3484 26.7806C54.3484 27.132 55.0512 27.7176 56.3397 27.9519C57.6281 28.1862 58.448 28.069 58.448 28.069C58.448 28.069 57.6281 27.3662 56.4568 26.7806Z" fill="#FAF0B6"/>
<path d="M52.9429 26.4295C52.5915 27.718 51.8887 28.4207 51.5373 28.1865C51.1859 27.9522 51.3031 27.0152 51.8887 25.8439C52.4744 24.5554 53.1771 24.0869 53.1771 24.0869C53.1771 24.0869 53.2943 25.024 52.9429 26.4295Z" fill="#FAF0B6"/>
<path d="M53.7628 28.1865C52.5915 27.7179 51.6544 27.8351 51.6544 28.1865C51.6544 28.5379 52.3572 29.0064 53.6456 29.2406C54.9341 29.4749 55.754 29.2406 55.754 29.2406C55.754 29.2406 54.9341 28.5379 53.7628 28.1865Z" fill="#FAF0B6"/>
<path d="M50.1318 27.8348C49.7804 29.1232 49.1947 29.9431 48.8433 29.7089C48.4919 29.4746 48.4919 28.5376 49.0776 27.3663C49.6632 26.0778 50.366 25.4922 50.366 25.4922C50.366 25.4922 50.4831 26.5464 50.1318 27.8348Z" fill="#FAF0B6"/>
<path d="M50.9517 29.5921C49.7804 29.2407 48.8433 29.3578 48.8433 29.7092C48.8433 30.0606 49.6632 30.5291 50.9517 30.6462C52.2401 30.7634 53.06 30.5291 53.06 30.5291C53.06 30.5291 52.2401 29.9434 50.9517 29.5921Z" fill="#FAF0B6"/>
<path d="M47.4378 29.4749C47.2035 30.7634 46.6179 31.5833 46.2665 31.349C45.9151 31.2319 45.9151 30.2948 46.3836 29.0064C46.8521 27.718 47.5549 27.1323 47.5549 27.1323C47.5549 27.1323 47.672 28.1865 47.4378 29.4749Z" fill="#FAF0B6"/>
<path d="M48.3748 31.2319C47.2035 30.8805 46.2665 31.1148 46.2665 31.4662C46.2665 31.8176 47.0864 32.2861 48.3748 32.2861C49.6633 32.4032 50.4832 32.0518 50.4832 32.0518C50.4832 32.0518 49.5461 31.4662 48.3748 31.2319Z" fill="#FAF0B6"/>
<path d="M44.7437 31.2318C44.6266 32.5202 44.041 33.3401 43.6896 33.223C43.3382 33.1059 43.2211 32.1688 43.6896 30.8804C44.1581 29.5919 44.7437 28.8892 44.7437 28.8892C44.7437 28.8892 44.978 29.9433 44.7437 31.2318Z" fill="#FAF0B6"/>
<path d="M45.7979 32.8716C44.5095 32.6374 43.6896 32.8716 43.6896 33.223C43.6896 33.5744 44.5095 33.9258 45.7979 33.9258C47.0864 33.9258 47.7891 33.5744 47.7891 33.5744C47.7891 33.5744 47.0864 33.223 45.7979 32.8716Z" fill="#FAF0B6"/>
<path d="M42.1669 33.223C42.0498 34.5114 41.5813 35.4485 41.2299 35.2142C40.8785 35.0971 40.7614 34.16 41.1127 32.8716C41.4641 31.5832 42.0498 30.8804 42.0498 30.8804C42.0498 30.8804 42.284 31.8174 42.1669 33.223Z" fill="#FAF0B6"/>
<path d="M43.3382 34.7458C42.0498 34.5115 41.2299 34.8629 41.2299 35.2143C41.347 35.5657 42.1669 35.9171 43.4553 35.7999C44.7438 35.6828 45.4465 35.3314 45.4465 35.3314C45.4465 35.3314 44.6266 34.98 43.3382 34.7458Z" fill="#FAF0B6"/>
<path d="M39.8243 35.2142C39.8243 36.5026 39.3558 37.4397 39.0044 37.3225C38.653 37.2054 38.4187 36.2684 38.7701 34.9799C39.0044 33.5744 39.5901 32.8716 39.5901 32.8716C39.5901 32.8716 39.8243 33.9258 39.8243 35.2142Z" fill="#FAF0B6"/>
<path d="M40.9956 36.7368C39.7072 36.6197 38.8873 36.9711 39.0044 37.3225C39.1215 37.6739 39.9414 38.0253 41.2299 37.791C42.5183 37.6739 43.2211 37.2054 43.2211 37.2054C43.2211 37.2054 42.284 36.854 40.9956 36.7368Z" fill="#FAF0B6"/>
<path d="M37.4817 37.4398C37.4817 38.7282 37.1303 39.6652 36.7789 39.5481C36.4275 39.431 36.1932 38.4939 36.4275 37.2055C36.6617 35.8 37.1303 35.0972 37.1303 35.0972C37.1303 35.0972 37.3645 36.0342 37.4817 37.4398Z" fill="#FAF0B6"/>
<path d="M38.7701 38.845C37.4817 38.7279 36.6618 39.1964 36.7789 39.5478C36.8961 39.8992 37.716 40.1334 39.0044 39.8992C40.2928 39.6649 40.9956 39.1964 40.9956 39.1964C40.9956 39.1964 40.0586 38.9621 38.7701 38.845Z" fill="#FAF0B6"/>
<path d="M35.2562 39.6654C35.3733 40.9538 35.022 41.8908 34.6706 41.7737C34.3192 41.6566 34.0849 40.8367 34.202 39.4311C34.3192 38.0255 34.7877 37.3228 34.7877 37.3228C34.7877 37.3228 35.1391 38.3769 35.2562 39.6654Z" fill="#FAF0B6"/>
<path d="M36.5446 41.0708C35.2562 41.0708 34.4363 41.5393 34.5534 41.8907C34.6705 42.2421 35.4904 42.4764 36.7789 42.125C38.0673 41.8907 38.653 41.3051 38.653 41.3051C38.653 41.3051 37.833 41.0708 36.5446 41.0708Z" fill="#FAF0B6"/>
<path d="M33.1478 42.1249C33.3821 43.4133 33.0307 44.3504 32.6793 44.3504C32.3279 44.2332 31.9765 43.4133 32.0937 42.0078C32.2108 40.6022 32.5622 39.8994 32.5622 39.8994C32.5622 39.8994 32.9136 40.7193 33.1478 42.1249Z" fill="#FAF0B6"/>
<path d="M34.5534 43.4132C33.265 43.5303 32.5622 43.9988 32.6793 44.3502C32.7965 44.7016 33.7335 44.8187 34.9048 44.4673C36.1932 44.1159 36.7789 43.5303 36.7789 43.5303C36.7789 43.5303 35.8418 43.296 34.5534 43.4132Z" fill="#FAF0B6"/>
<path d="M31.1567 44.5849C31.3909 45.8733 31.1566 46.8103 30.8053 46.8103C30.4539 46.8103 30.1025 45.8733 30.1025 44.5849C30.1025 43.1793 30.4539 42.3594 30.4539 42.3594C30.4539 42.3594 30.9224 43.2964 31.1567 44.5849Z" fill="#FAF0B6"/>
<path d="M32.6793 45.873C31.3909 45.9901 30.6881 46.5758 30.8052 46.9272C30.9224 47.2786 31.8594 47.3957 33.0307 46.9272C34.3191 46.5758 34.9048 45.9901 34.9048 45.9901C34.9048 45.9901 33.9678 45.6387 32.6793 45.873Z" fill="#FAF0B6"/>
<path d="M29.3997 47.2787C29.7511 48.5671 29.5168 49.5042 29.1654 49.5042C28.814 49.5042 28.3455 48.6843 28.3455 47.2787C28.2284 45.8731 28.5798 45.0532 28.5798 45.0532C28.5798 45.0532 29.0483 45.8731 29.3997 47.2787Z" fill="#FAF0B6"/>
<path d="M30.9224 48.3329C29.6339 48.5672 28.9312 49.1528 29.1654 49.3871C29.2826 49.7385 30.2196 49.7385 31.3909 49.27C32.5622 48.8015 33.1479 48.2158 33.1479 48.2158C33.1479 48.2158 32.2108 48.0987 30.9224 48.3329Z" fill="#FAF0B6"/>
<path d="M27.6428 49.9725C27.9941 51.261 27.877 52.198 27.5256 52.198C27.1742 52.198 26.7057 51.3781 26.5886 49.9725C26.4715 48.567 26.7057 47.7471 26.7057 47.7471C26.7057 47.7471 27.2914 48.567 27.6428 49.9725Z" fill="#FAF0B6"/>
<path d="M29.2826 51.0269C27.9941 51.2612 27.4085 51.8468 27.5256 52.1982C27.6428 52.5496 28.5798 52.5496 29.7511 51.964C30.9224 51.4954 31.5081 50.7927 31.5081 50.7927C31.5081 50.7927 30.571 50.6755 29.2826 51.0269Z" fill="#FAF0B6"/>
<path d="M26.12 52.6665C26.5885 53.9549 26.4714 54.8919 26.12 54.8919C25.7686 54.8919 25.3001 54.072 25.0658 52.7836C24.8316 51.378 25.0658 50.5581 25.0658 50.5581C25.0658 50.5581 25.6515 51.378 26.12 52.6665Z" fill="#FAF0B6"/>
<path d="M27.7598 53.7205C26.5885 54.0719 25.8858 54.6576 26.12 55.009C26.3543 55.3604 27.1742 55.2432 28.3455 54.6576C29.5168 54.0719 29.9853 53.3691 29.9853 53.3691C29.9853 53.3691 29.0483 53.3691 27.7598 53.7205Z" fill="#FAF0B6"/>
<path d="M24.7145 55.5947C25.183 56.8831 25.183 57.8202 24.8316 57.8202C24.4802 57.8202 23.8946 57.1174 23.6603 55.7118C23.4261 54.3062 23.5432 53.4863 23.5432 53.4863C23.5432 53.4863 24.246 54.3062 24.7145 55.5947Z" fill="#FAF0B6"/>
<path d="M26.4715 56.4149C25.3001 56.7663 24.5974 57.469 24.8316 57.8204C25.0659 58.1718 25.8858 58.0547 27.0571 57.3519C28.2284 56.7663 28.6969 56.0635 28.6969 56.0635C28.6969 56.0635 27.6428 56.0635 26.4715 56.4149Z" fill="#FAF0B6"/>
<path d="M23.5432 58.523C24.1288 59.6943 24.1288 60.7484 23.7775 60.7484C23.4261 60.7484 22.8404 60.0456 22.489 58.7572C22.1376 57.4688 22.2548 56.5317 22.2548 56.5317C22.2548 56.5317 22.9575 57.2345 23.5432 58.523Z" fill="#FAF0B6"/>
<path d="M25.3001 59.343C24.1288 59.8115 23.5431 60.5143 23.7774 60.7485C24.0117 60.9828 24.8316 60.8657 26.0029 60.1629C27.0571 59.4601 27.5256 58.7573 27.5256 58.7573C27.5256 58.7573 26.4714 58.8745 25.3001 59.343Z" fill="#FAF0B6"/>
<path d="M22.3719 61.4512C23.0747 62.6225 23.0747 63.5595 22.7233 63.6767C22.3719 63.7938 21.7862 63.091 21.3177 61.6854C20.8492 60.397 20.9663 59.46 20.9663 59.46C20.9663 59.46 21.7862 60.2799 22.3719 61.4512Z" fill="#FAF0B6"/>
<path d="M24.246 62.154C23.0747 62.6225 22.489 63.4424 22.8404 63.6766C23.0747 63.9109 24.0117 63.7938 25.0659 62.9739C26.1201 62.2711 26.4715 61.4512 26.4715 61.4512C26.4715 61.4512 25.4173 61.6854 24.246 62.154Z" fill="#FAF0B6"/>
<path d="M21.4348 64.4966C22.1376 65.6679 22.2547 66.605 21.9033 66.7221C21.5519 66.8392 20.8492 66.1365 20.3806 64.848C19.9121 63.5596 19.9121 62.6226 19.9121 62.6226C19.9121 62.6226 20.732 63.3253 21.4348 64.4966Z" fill="#FAF0B6"/>
<path d="M23.3089 65.0822C22.1376 65.6678 21.6691 66.3706 21.9034 66.722C22.1376 66.9563 23.0747 66.722 24.0117 65.9021C25.0659 65.0822 25.4173 64.3794 25.4173 64.3794C25.4173 64.3794 24.4802 64.4965 23.3089 65.0822Z" fill="#FAF0B6"/>
<path d="M20.7321 67.6594C21.552 68.7135 21.6691 69.7677 21.3177 69.8848C20.9663 70.002 20.2635 69.4163 19.6779 68.1279C19.0922 66.8394 19.0922 66.0195 19.0922 66.0195C19.0922 66.0195 19.9121 66.488 20.7321 67.6594Z" fill="#FAF0B6"/>
<path d="M22.6062 68.128C21.552 68.7136 21.0835 69.5335 21.3177 69.7678C21.552 70.002 22.489 69.7678 23.4261 68.8307C24.3631 68.0108 24.7145 67.1909 24.7145 67.1909C24.7145 67.1909 23.6603 67.4252 22.6062 68.128Z" fill="#FAF0B6"/>
<path d="M20.1464 70.7047C20.9663 71.7589 21.2006 72.6959 20.8492 72.8131C20.4978 72.9302 19.795 72.3445 19.2094 71.0561C18.6237 69.7677 18.5066 68.9478 18.5066 68.9478C18.5066 68.9478 19.3265 69.6505 20.1464 70.7047Z" fill="#FAF0B6"/>
<path d="M22.0205 71.1734C20.9663 71.8762 20.4978 72.6961 20.8492 72.9303C21.0835 73.1646 22.0205 72.8132 22.8404 71.9933C23.7774 71.0562 24.0117 70.2363 24.0117 70.2363C24.0117 70.2363 23.0747 70.4706 22.0205 71.1734Z" fill="#FAF0B6"/>
<path d="M19.6778 73.8674C20.4978 74.9215 20.732 75.8586 20.4978 75.9757C20.1464 76.0928 19.4436 75.6243 18.7408 74.3359C18.038 73.1646 18.038 72.2275 18.038 72.2275C18.038 72.2275 18.7408 72.8132 19.6778 73.8674Z" fill="#FAF0B6"/>
<path d="M21.552 74.2187C20.4978 74.9215 20.1464 75.8585 20.4978 75.9757C20.8492 76.2099 21.552 75.8585 22.489 74.9215C23.4261 73.9845 23.5432 73.1646 23.5432 73.1646C23.5432 73.1646 22.6061 73.3988 21.552 74.2187Z" fill="#FAF0B6"/>
<path d="M19.4436 77.0296C20.3806 77.9666 20.6149 78.9037 20.2635 79.1379C19.9121 79.2551 19.2093 78.7865 18.3894 77.6152C17.6866 76.4439 17.5695 75.624 17.5695 75.624C17.5695 75.624 18.3894 76.0925 19.4436 77.0296Z" fill="#FAF0B6"/>
<path d="M21.3177 77.2641C20.3806 78.084 20.0293 78.9039 20.2635 79.1382C20.6149 79.3724 21.3177 78.9039 22.1376 77.9669C22.9575 76.9127 23.1918 76.0928 23.1918 76.0928C23.1918 76.0928 22.2547 76.4442 21.3177 77.2641Z" fill="#FAF0B6"/>
<path d="M140.791 80.1922C139.854 81.1292 139.502 82.0663 139.854 82.1834C140.205 82.3005 141.025 81.9491 141.845 80.7778C142.665 79.6065 142.782 78.7866 142.782 78.7866C142.782 78.7866 141.728 79.2551 140.791 80.1922Z" fill="#FAF0B6"/>
<path d="M138.799 80.3094C139.736 81.1293 140.088 82.0664 139.736 82.1835C139.385 82.4178 138.682 81.9493 137.862 80.8951C137.042 79.8409 136.925 79.021 136.925 79.021C136.925 79.021 137.862 79.4895 138.799 80.3094Z" fill="#FAF0B6"/>
<path d="M140.673 83.4721C139.619 84.292 139.268 85.229 139.619 85.4633C139.971 85.6976 140.791 85.229 141.611 84.1749C142.43 83.1207 142.665 82.3008 142.665 82.3008C142.665 82.3008 141.728 82.535 140.673 83.4721Z" fill="#FAF0B6"/>
<path d="M138.799 83.472C139.736 84.4091 139.971 85.229 139.619 85.4632C139.268 85.5804 138.565 85.1118 137.862 84.0577C137.16 83.0035 137.042 82.1836 137.042 82.1836C137.042 82.1836 137.862 82.535 138.799 83.472Z" fill="#FAF0B6"/>
<path d="M140.439 86.6342C139.385 87.4541 138.917 88.274 139.268 88.5083C139.619 88.7425 140.439 88.3911 141.376 87.337C142.313 86.2828 142.548 85.4629 142.548 85.4629C142.548 85.4629 141.61 85.8143 140.439 86.6342Z" fill="#FAF0B6"/>
<path d="M138.565 86.5173C139.385 87.4544 139.619 88.3914 139.268 88.5085C138.917 88.6257 138.214 88.1571 137.511 86.9858C136.808 85.8145 136.808 84.9946 136.808 84.9946C136.808 84.9946 137.745 85.5803 138.565 86.5173Z" fill="#FAF0B6"/>
<path d="M140.088 89.7969C139.034 90.4997 138.565 91.4367 138.799 91.671C139.034 91.9053 139.971 91.5539 140.908 90.6168C141.845 89.6798 142.196 88.8599 142.196 88.8599C142.196 88.8599 141.259 88.977 140.088 89.7969Z" fill="#FAF0B6"/>
<path d="M138.214 89.5627C139.034 90.4998 139.151 91.4368 138.799 91.5539C138.448 91.6711 137.745 91.0854 137.16 90.0313C136.574 88.8599 136.574 88.04 136.574 88.04C136.574 88.04 137.394 88.5086 138.214 89.5627Z" fill="#FAF0B6"/>
<path d="M139.502 92.8423C138.331 93.5451 137.862 94.365 138.097 94.5993C138.331 94.8335 139.268 94.5993 140.322 93.6622C141.376 92.7252 141.728 91.9053 141.728 91.9053C141.728 91.9053 140.673 92.1395 139.502 92.8423Z" fill="#FAF0B6"/>
<path d="M137.628 92.6081C138.331 93.6623 138.448 94.5994 138.097 94.7165C137.745 94.8336 137.042 94.248 136.574 93.0767C135.988 91.9054 136.105 91.0854 136.105 91.0854C136.105 91.0854 136.925 91.554 137.628 92.6081Z" fill="#FAF0B6"/>
<path d="M138.799 96.005C137.628 96.5907 137.042 97.4106 137.277 97.762C137.511 97.9963 138.448 97.762 139.502 96.9421C140.556 96.1222 140.908 95.3022 140.908 95.3022C140.908 95.3022 140.088 95.3023 138.799 96.005Z" fill="#FAF0B6"/>
<path d="M136.925 95.6535C137.628 96.7077 137.628 97.6447 137.277 97.7618C136.925 97.879 136.34 97.2933 135.754 96.0049C135.285 94.8336 135.403 94.0137 135.403 94.0137C135.403 94.0137 136.223 94.4822 136.925 95.6535Z" fill="#FAF0B6"/>
<path d="M137.979 99.0504C136.808 99.6361 136.223 100.339 136.457 100.69C136.691 100.925 137.628 100.807 138.682 99.9875C139.854 99.1676 140.205 98.3477 140.205 98.3477C140.205 98.3477 139.151 98.4648 137.979 99.0504Z" fill="#FAF0B6"/>
<path d="M136.105 98.5817C136.691 99.6358 136.691 100.573 136.34 100.69C135.988 100.807 135.403 100.104 134.934 98.9331C134.466 97.6446 134.7 96.8247 134.7 96.8247C134.7 96.8247 135.403 97.4104 136.105 98.5817Z" fill="#FAF0B6"/>
<path d="M136.925 102.095C135.637 102.564 135.051 103.384 135.285 103.618C135.52 103.852 136.457 103.735 137.628 103.032C138.799 102.33 139.268 101.51 139.268 101.51C139.268 101.51 138.214 101.51 136.925 102.095Z" fill="#FAF0B6"/>
<path d="M135.051 101.51C135.637 102.681 135.637 103.618 135.168 103.618C134.817 103.618 134.231 103.033 133.88 101.744C133.529 100.456 133.763 99.6357 133.763 99.6357C133.763 99.6357 134.466 100.339 135.051 101.51Z" fill="#FAF0B6"/>
<path d="M135.754 105.024C134.466 105.492 133.763 106.195 133.997 106.429C134.231 106.781 135.168 106.664 136.34 105.961C137.511 105.258 137.979 104.555 137.979 104.555C137.979 104.555 137.042 104.555 135.754 105.024Z" fill="#FAF0B6"/>
<path d="M133.88 104.321C134.348 105.493 134.348 106.43 133.88 106.43C133.529 106.43 132.943 105.727 132.709 104.438C132.474 103.15 132.591 102.33 132.591 102.33C132.591 102.33 133.411 103.15 133.88 104.321Z" fill="#FAF0B6"/>
<path d="M134.348 107.835C133.06 108.186 132.357 108.889 132.591 109.241C132.826 109.592 133.763 109.475 134.934 108.889C136.105 108.304 136.691 107.601 136.691 107.601C136.691 107.601 135.754 107.484 134.348 107.835Z" fill="#FAF0B6"/>
<path d="M132.592 107.132C133.06 108.304 132.943 109.241 132.592 109.241C132.24 109.241 131.772 108.538 131.537 107.249C131.303 105.961 131.537 105.141 131.537 105.141C131.537 105.141 132.123 105.961 132.592 107.132Z" fill="#FAF0B6"/>
<path d="M132.943 110.646C131.654 110.997 130.835 111.583 131.069 111.934C131.303 112.286 132.24 112.286 133.411 111.7C134.7 111.114 135.286 110.412 135.286 110.412C135.286 110.412 134.231 110.412 132.943 110.646Z" fill="#FAF0B6"/>
<path d="M131.186 109.826C131.537 110.997 131.42 111.934 131.069 111.934C130.717 111.934 130.249 111.115 130.132 109.826C130.015 108.538 130.249 107.718 130.249 107.718C130.249 107.718 130.835 108.655 131.186 109.826Z" fill="#FAF0B6"/>
<path d="M131.303 113.457C130.015 113.692 129.195 114.277 129.429 114.629C129.546 114.98 130.483 114.98 131.772 114.512C133.06 114.043 133.646 113.34 133.646 113.34C133.646 113.34 132.592 113.223 131.303 113.457Z" fill="#FAF0B6"/>
<path d="M129.546 112.52C129.897 113.691 129.663 114.628 129.312 114.628C128.96 114.628 128.492 113.808 128.492 112.52C128.375 111.232 128.726 110.412 128.726 110.412C128.726 110.412 129.195 111.232 129.546 112.52Z" fill="#FAF0B6"/>
<path d="M129.429 116.034C128.141 116.151 127.321 116.737 127.438 117.088C127.555 117.44 128.492 117.557 129.78 117.088C131.069 116.62 131.772 116.034 131.772 116.034C131.772 116.034 130.835 115.917 129.429 116.034Z" fill="#FAF0B6"/>
<path d="M127.906 114.98C128.141 116.268 127.906 117.088 127.555 117.088C127.204 117.088 126.852 116.268 126.852 114.98C126.852 113.692 127.203 112.989 127.203 112.989C127.203 112.989 127.555 113.809 127.906 114.98Z" fill="#FAF0B6"/>
<path d="M127.555 118.611C126.266 118.728 125.329 119.197 125.564 119.548C125.681 119.899 126.618 120.016 127.906 119.665C129.195 119.314 129.897 118.728 129.897 118.728C129.897 118.728 128.96 118.494 127.555 118.611Z" fill="#FAF0B6"/>
<path d="M126.032 117.44C126.266 118.728 125.915 119.548 125.564 119.548C125.212 119.431 124.861 118.611 124.978 117.323C125.095 116.034 125.447 115.332 125.447 115.332C125.447 115.332 125.798 116.269 126.032 117.44Z" fill="#FAF0B6"/>
<path d="M125.564 121.071C124.275 121.071 123.338 121.539 123.455 121.891C123.572 122.242 124.509 122.476 125.798 122.125C127.203 121.891 127.906 121.305 127.906 121.305C127.906 121.305 126.852 121.071 125.564 121.071Z" fill="#FAF0B6"/>
<path d="M124.041 119.899C124.158 121.188 123.807 122.008 123.455 121.891C123.104 121.773 122.753 120.953 122.987 119.665C123.104 118.377 123.572 117.674 123.572 117.674C123.572 117.674 123.924 118.611 124.041 119.899Z" fill="#FAF0B6"/>
<path d="M123.338 123.413C122.05 123.413 121.113 123.764 121.23 124.116C121.347 124.467 122.284 124.702 123.572 124.467C124.978 124.233 125.681 123.764 125.681 123.764C125.681 123.764 124.744 123.413 123.338 123.413Z" fill="#FAF0B6"/>
<path d="M121.933 122.125C122.05 123.413 121.581 124.233 121.23 124.116C120.878 123.999 120.644 123.179 120.878 121.891C121.113 120.602 121.581 119.899 121.581 119.899C121.581 119.899 121.816 120.836 121.933 122.125Z" fill="#FAF0B6"/>
<path d="M121.113 125.639C119.824 125.522 118.887 125.873 119.004 126.224C119.122 126.576 119.941 126.81 121.347 126.693C122.753 126.576 123.455 126.107 123.455 126.107C123.455 126.107 122.401 125.756 121.113 125.639Z" fill="#FAF0B6"/>
<path d="M119.707 124.233C119.707 125.522 119.239 126.342 118.887 126.225C118.536 126.107 118.302 125.288 118.653 123.999C118.887 122.711 119.473 122.125 119.473 122.125C119.473 122.125 119.707 122.945 119.707 124.233Z" fill="#FAF0B6"/>
<path d="M118.653 127.63C117.365 127.396 116.427 127.747 116.427 128.099C116.545 128.45 117.365 128.801 118.77 128.684C120.176 128.567 120.878 128.216 120.878 128.216C120.878 128.216 120.059 127.864 118.653 127.63Z" fill="#FAF0B6"/>
<path d="M117.365 126.225C117.247 127.513 116.779 128.216 116.428 128.099C116.076 127.981 115.959 127.044 116.31 125.873C116.662 124.585 117.247 123.999 117.247 123.999C117.247 123.999 117.482 124.936 117.365 126.225Z" fill="#FAF0B6"/>
<path d="M116.193 129.621C114.905 129.387 113.968 129.621 113.968 129.973C113.968 130.324 114.905 130.675 116.193 130.675C117.599 130.675 118.419 130.324 118.419 130.324C118.419 130.324 117.482 129.855 116.193 129.621Z" fill="#FAF0B6"/>
<path d="M114.905 128.099C114.788 129.387 114.202 130.09 113.851 129.973C113.499 129.855 113.382 128.918 113.851 127.747C114.202 126.459 114.788 125.873 114.788 125.873C114.788 125.873 115.022 126.81 114.905 128.099Z" fill="#FAF0B6"/>
<path d="M113.499 131.495C112.211 131.144 111.274 131.378 111.274 131.729C111.274 132.081 112.094 132.549 113.499 132.549C114.905 132.666 115.725 132.315 115.725 132.315C115.725 132.315 114.905 131.847 113.499 131.495Z" fill="#FAF0B6"/>
<path d="M112.445 129.855C112.211 131.144 111.625 131.847 111.391 131.612C111.04 131.495 111.04 130.558 111.508 129.387C111.977 128.216 112.562 127.63 112.562 127.63C112.562 127.63 112.562 128.684 112.445 129.855Z" fill="#FAF0B6"/>
<path d="M110.805 133.135C109.517 132.784 108.58 132.901 108.58 133.252C108.58 133.604 109.4 134.072 110.805 134.189C112.211 134.306 113.031 134.072 113.031 134.072C113.031 134.072 112.094 133.486 110.805 133.135Z" fill="#FAF0B6"/>
<path d="M109.751 131.495C109.517 132.784 108.931 133.37 108.58 133.252C108.228 133.018 108.228 132.198 108.814 131.027C109.283 129.856 109.985 129.27 109.985 129.27C109.985 129.27 110.102 130.324 109.751 131.495Z" fill="#FAF0B6"/>
<path d="M108.111 134.658C106.823 134.189 105.886 134.306 105.886 134.658C105.886 135.009 106.706 135.478 107.994 135.712C109.4 135.946 110.22 135.712 110.22 135.712C110.22 135.712 109.4 135.126 108.111 134.658Z" fill="#FAF0B6"/>
<path d="M107.057 133.018C106.706 134.189 106.12 134.892 105.769 134.658C105.417 134.424 105.534 133.604 106.12 132.432C106.706 131.261 107.408 130.792 107.408 130.792C107.408 130.792 107.408 131.73 107.057 133.018Z" fill="#FAF0B6"/>
<path d="M105.183 136.063C103.895 135.595 102.958 135.595 102.958 135.946C102.958 136.298 103.66 136.883 105.066 137.118C106.471 137.352 107.291 137.235 107.291 137.235C107.291 137.235 106.471 136.649 105.183 136.063Z" fill="#FAF0B6"/>
<path d="M104.363 134.424C104.012 135.595 103.309 136.298 102.958 136.064C102.606 135.829 102.723 135.009 103.426 133.838C104.012 132.667 104.714 132.198 104.714 132.198C104.714 132.198 104.714 133.135 104.363 134.424Z" fill="#FAF0B6"/>
<path d="M102.255 137.352C101.083 136.766 100.029 136.766 100.029 137.118C100.029 137.469 100.732 138.055 102.02 138.406C103.309 138.758 104.246 138.64 104.246 138.64C104.246 138.64 103.543 137.938 102.255 137.352Z" fill="#FAF0B6"/>
<path d="M101.435 135.595C100.966 136.766 100.264 137.352 100.029 137.117C99.795 136.883 99.9121 136.063 100.615 134.892C101.318 133.838 102.02 133.369 102.02 133.369C102.02 133.369 101.903 134.423 101.435 135.595Z" fill="#FAF0B6"/>
<path d="M99.3264 138.406C98.1551 137.703 97.2181 137.703 97.101 138.055C96.9838 138.406 97.6866 138.992 99.0922 139.46C100.381 139.929 101.318 139.811 101.318 139.811C101.318 139.811 100.498 139.109 99.3264 138.406Z" fill="#FAF0B6"/>
<path d="M98.6237 136.649C98.1551 137.82 97.3352 138.406 97.101 138.054C96.8667 137.82 96.9838 136.883 97.8037 135.829C98.5065 134.775 99.3264 134.423 99.3264 134.423C99.3264 134.423 99.0922 135.478 98.6237 136.649Z" fill="#FAF0B6"/>
<path d="M96.2811 139.343C95.1098 138.64 94.1727 138.523 94.0556 138.874C93.9385 139.226 94.6413 139.929 95.9297 140.397C97.2181 140.866 98.1552 140.866 98.1552 140.866C98.1552 140.866 97.4524 140.046 96.2811 139.343Z" fill="#FAF0B6"/>
<path d="M95.5783 137.469C94.9926 138.64 94.2898 139.109 93.9385 138.875C93.7042 138.64 93.9385 137.703 94.7584 136.766C95.5783 135.712 96.2811 135.361 96.2811 135.361C96.2811 135.361 96.1639 136.415 95.5783 137.469Z" fill="#FAF0B6"/>
<path d="M93.1186 140.163C92.0644 139.343 91.0103 139.226 90.8931 139.577C90.776 139.929 91.3616 140.632 92.6501 141.217C93.9385 141.803 94.7584 141.803 94.7584 141.803C94.7584 141.803 94.2899 140.866 93.1186 140.163Z" fill="#FAF0B6"/>
<path d="M92.65 138.289C92.0644 139.343 91.2445 139.812 91.0102 139.577C90.776 139.343 91.0102 138.406 91.9473 137.469C92.7672 136.532 93.5871 136.181 93.5871 136.181C93.5871 136.181 93.2357 137.118 92.65 138.289Z" fill="#FAF0B6"/>
<path d="M90.0732 140.749C89.019 139.929 88.082 139.694 87.9648 140.046C87.8477 140.397 88.4334 141.1 89.7218 141.686C91.0102 142.271 91.8301 142.388 91.8301 142.388C91.8301 142.388 91.1274 141.569 90.0732 140.749Z" fill="#FAF0B6"/>
<path d="M89.6047 138.875C88.9019 139.929 88.082 140.397 87.8477 140.046C87.6135 139.812 87.9649 138.875 88.7848 138.055C89.7218 137.118 90.5417 136.883 90.5417 136.883C90.5417 136.883 90.3075 137.82 89.6047 138.875Z" fill="#FAF0B6"/>
<path d="M86.9107 141.217C85.8565 140.397 84.9194 140.163 84.8023 140.397C84.6852 140.749 85.1537 141.451 86.4421 142.154C87.6134 142.857 88.5505 142.857 88.5505 142.857C88.5505 142.857 87.8477 142.037 86.9107 141.217Z" fill="#FAF0B6"/>
<path d="M86.5593 139.226C85.8565 140.28 84.9195 140.632 84.8023 140.28C84.5681 139.929 84.9195 139.226 85.8565 138.289C86.7936 137.352 87.6135 137.235 87.6135 137.235C87.6135 137.235 87.2621 138.172 86.5593 139.226Z" fill="#FAF0B6"/>
<path d="M83.7481 141.452C82.8111 140.515 81.874 140.28 81.6398 140.632C81.5226 140.983 81.9912 141.686 83.1625 142.506C84.3338 143.209 85.1537 143.326 85.1537 143.326C85.1537 143.326 84.6852 142.389 83.7481 141.452Z" fill="#FAF0B6"/>
<path d="M83.5139 139.577C82.694 140.514 81.874 140.866 81.6398 140.631C81.4055 140.28 81.874 139.577 82.8111 138.757C83.8653 137.937 84.6852 137.703 84.6852 137.703C84.6852 137.703 84.3338 138.523 83.5139 139.577Z" fill="#FAF0B6"/>
<path d="M95.2269 21.9785C95.8125 23.1498 96.6325 23.7354 96.9839 23.5012C97.2181 23.2669 96.9838 22.3299 96.1639 21.2757C95.344 20.2215 94.5241 19.8701 94.5241 19.8701C94.5241 19.8701 94.5241 20.69 95.2269 21.9785Z" fill="#FAF0B6"/>
<path d="M94.8755 23.8527C95.9297 23.1499 96.8668 23.1499 96.9839 23.5013C97.101 23.8527 96.5154 24.4384 95.2269 25.024C94.0556 25.4925 93.2357 25.3754 93.2357 25.3754C93.2357 25.3754 93.7042 24.5555 94.8755 23.8527Z" fill="#FAF0B6"/>
<path d="M98.2723 22.7982C98.858 23.9695 99.5607 24.5552 99.9121 24.3209C100.146 24.0867 100.029 23.1496 99.2093 22.0954C98.3894 20.9241 97.5695 20.5728 97.5695 20.5728C97.5695 20.5728 97.6866 21.5098 98.2723 22.7982Z" fill="#FAF0B6"/>
<path d="M97.8038 24.6723C98.8579 24.0867 99.795 24.0867 99.9121 24.4381C100.029 24.7894 99.3265 25.3751 98.1552 25.8436C96.8667 26.3121 96.0468 26.0779 96.0468 26.0779C96.0468 26.0779 96.6325 25.258 97.8038 24.6723Z" fill="#FAF0B6"/>
<path d="M101.318 23.8524C101.786 25.1408 102.606 25.7265 102.84 25.4922C103.075 25.2579 102.958 24.3209 102.255 23.1496C101.552 21.9783 100.732 21.5098 100.732 21.5098C100.732 21.5098 100.732 22.5639 101.318 23.8524Z" fill="#FAF0B6"/>
<path d="M100.732 25.7266C101.903 25.1409 102.84 25.1409 102.84 25.6095C102.84 26.078 102.255 26.5465 100.966 26.8979C99.6779 27.2493 98.858 27.015 98.858 27.015C98.858 27.015 99.5608 26.1951 100.732 25.7266Z" fill="#FAF0B6"/>
<path d="M104.246 25.0238C104.714 26.3123 105.417 27.015 105.651 26.7808C106.003 26.5465 105.886 25.6095 105.183 24.4382C104.48 23.2669 103.777 22.7983 103.777 22.7983C103.777 22.7983 103.777 23.7354 104.246 25.0238Z" fill="#FAF0B6"/>
<path d="M103.543 26.7806C104.714 26.3121 105.652 26.3121 105.652 26.7806C105.652 27.132 104.949 27.7176 103.66 27.9519C102.372 28.1862 101.552 28.069 101.552 28.069C101.552 28.069 102.372 27.3662 103.543 26.7806Z" fill="#FAF0B6"/>
<path d="M107.057 26.4295C107.408 27.718 108.111 28.4207 108.463 28.1865C108.814 27.9522 108.697 27.0152 108.111 25.8439C107.526 24.5554 106.823 24.0869 106.823 24.0869C106.823 24.0869 106.706 25.024 107.057 26.4295Z" fill="#FAF0B6"/>
<path d="M106.354 28.1865C107.526 27.7179 108.463 27.8351 108.463 28.1865C108.463 28.5379 107.76 29.0064 106.471 29.2406C105.183 29.4749 104.363 29.2406 104.363 29.2406C104.363 29.2406 105.183 28.5379 106.354 28.1865Z" fill="#FAF0B6"/>
<path d="M109.868 27.8348C110.22 29.1232 110.805 29.9431 111.157 29.7089C111.508 29.4746 111.508 28.5376 110.922 27.3663C110.337 26.0778 109.634 25.4922 109.634 25.4922C109.634 25.4922 109.634 26.5464 109.868 27.8348Z" fill="#FAF0B6"/>
<path d="M109.048 29.5921C110.22 29.2407 111.157 29.3578 111.157 29.7092C111.157 30.0606 110.337 30.5291 109.048 30.6462C107.76 30.7634 106.94 30.5291 106.94 30.5291C106.94 30.5291 107.877 29.9434 109.048 29.5921Z" fill="#FAF0B6"/>
<path d="M112.679 29.4749C112.914 30.7634 113.499 31.5833 113.851 31.349C114.202 31.2319 114.202 30.2948 113.733 29.0064C113.265 27.718 112.562 27.1323 112.562 27.1323C112.562 27.1323 112.445 28.1865 112.679 29.4749Z" fill="#FAF0B6"/>
<path d="M111.742 31.2319C112.914 30.8805 113.851 31.1148 113.851 31.4662C113.851 31.8176 113.031 32.2861 111.742 32.2861C110.454 32.4032 109.634 32.0518 109.634 32.0518C109.634 32.0518 110.454 31.4662 111.742 31.2319Z" fill="#FAF0B6"/>
<path d="M115.256 31.2318C115.373 32.5202 115.959 33.3401 116.31 33.223C116.662 33.1059 116.779 32.1688 116.31 30.8804C115.959 29.5919 115.256 28.8892 115.256 28.8892C115.256 28.8892 115.139 29.9433 115.256 31.2318Z" fill="#FAF0B6"/>
<path d="M114.202 32.8716C115.49 32.6374 116.31 32.8716 116.31 33.223C116.31 33.5744 115.49 33.9258 114.202 33.9258C112.914 33.9258 112.211 33.5744 112.211 33.5744C112.211 33.5744 113.031 33.223 114.202 32.8716Z" fill="#FAF0B6"/>
<path d="M117.833 33.223C117.95 34.5114 118.419 35.4485 118.77 35.2142C119.122 35.0971 119.239 34.16 118.887 32.8716C118.536 31.5832 117.95 30.8804 117.95 30.8804C117.95 30.8804 117.716 31.8174 117.833 33.223Z" fill="#FAF0B6"/>
<path d="M116.662 34.7458C117.95 34.5115 118.77 34.8629 118.77 35.2143C118.653 35.5657 117.833 35.9171 116.545 35.7999C115.256 35.6828 114.553 35.3314 114.553 35.3314C114.553 35.3314 115.373 34.98 116.662 34.7458Z" fill="#FAF0B6"/>
<path d="M120.293 35.2142C120.293 36.5026 120.761 37.4397 121.113 37.3225C121.464 37.2054 121.698 36.2684 121.347 34.9799C121.113 33.5744 120.527 32.8716 120.527 32.8716C120.527 32.8716 120.293 33.9258 120.293 35.2142Z" fill="#FAF0B6"/>
<path d="M119.121 36.7368C120.41 36.6197 121.23 36.9711 121.113 37.3225C120.996 37.6739 120.176 38.0253 118.887 37.791C117.599 37.6739 116.896 37.2054 116.896 37.2054C116.896 37.2054 117.833 36.854 119.121 36.7368Z" fill="#FAF0B6"/>
<path d="M122.635 37.4398C122.635 38.7282 122.987 39.6652 123.338 39.5481C123.69 39.431 123.924 38.4939 123.69 37.2055C123.455 35.9171 122.987 35.0972 122.987 35.0972C122.987 35.0972 122.635 36.0342 122.635 37.4398Z" fill="#FAF0B6"/>
<path d="M121.347 38.845C122.635 38.7279 123.455 39.1964 123.338 39.5478C123.221 39.8992 122.401 40.1334 121.113 39.8992C119.824 39.6649 119.121 39.1964 119.121 39.1964C119.121 39.1964 120.059 38.9621 121.347 38.845Z" fill="#FAF0B6"/>
<path d="M124.744 39.6654C124.627 40.9538 124.978 41.8908 125.329 41.7737C125.681 41.6566 125.915 40.8367 125.798 39.4311C125.681 38.0255 125.212 37.3228 125.212 37.3228C125.212 37.3228 124.861 38.3769 124.744 39.6654Z" fill="#FAF0B6"/>
<path d="M123.455 41.0708C124.744 41.0708 125.564 41.5393 125.447 41.8907C125.329 42.2421 124.51 42.4764 123.221 42.125C121.933 41.7736 121.347 41.3051 121.347 41.3051C121.347 41.3051 122.167 41.0708 123.455 41.0708Z" fill="#FAF0B6"/>
<path d="M126.852 42.1249C126.618 43.4133 126.969 44.3504 127.321 44.3504C127.672 44.2332 128.023 43.4133 127.906 42.0078C127.789 40.6022 127.438 39.8994 127.438 39.8994C127.438 39.8994 127.086 40.7193 126.852 42.1249Z" fill="#FAF0B6"/>
<path d="M125.447 43.4132C126.735 43.5303 127.438 43.9988 127.321 44.3502C127.203 44.7016 126.266 44.8187 125.095 44.4673C123.924 44.1159 123.221 43.5303 123.221 43.5303C123.221 43.5303 124.158 43.296 125.447 43.4132Z" fill="#FAF0B6"/>
<path d="M128.843 44.5849C128.609 45.8733 128.843 46.8103 129.195 46.8103C129.546 46.8103 129.897 45.8733 129.897 44.5849C129.897 43.1793 129.546 42.3594 129.546 42.3594C129.546 42.3594 129.078 43.2964 128.843 44.5849Z" fill="#FAF0B6"/>
<path d="M127.321 45.873C128.609 45.9901 129.312 46.5758 129.195 46.9272C129.078 47.2786 128.141 47.3957 126.969 46.9272C125.681 46.5758 125.095 45.9901 125.095 45.9901C125.095 45.9901 126.032 45.6387 127.321 45.873Z" fill="#FAF0B6"/>
<path d="M130.717 47.2787C130.366 48.5671 130.6 49.5042 130.952 49.5042C131.303 49.5042 131.772 48.6843 131.772 47.2787C131.889 45.8731 131.537 45.0532 131.537 45.0532C131.537 45.0532 130.952 45.8731 130.717 47.2787Z" fill="#FAF0B6"/>
<path d="M129.078 48.3329C130.366 48.5672 131.069 49.1528 130.835 49.3871C130.717 49.7385 129.78 49.7385 128.609 49.27C127.438 48.8015 126.852 48.2158 126.852 48.2158C126.852 48.2158 127.906 48.0987 129.078 48.3329Z" fill="#FAF0B6"/>
<path d="M132.357 49.9725C132.006 51.261 132.123 52.198 132.474 52.198C132.826 52.198 133.294 51.3781 133.411 49.9725C133.528 48.567 133.294 47.7471 133.294 47.7471C133.294 47.7471 132.709 48.567 132.357 49.9725Z" fill="#FAF0B6"/>
<path d="M130.717 51.0269C132.006 51.2612 132.592 51.8468 132.474 52.1982C132.24 52.5496 131.42 52.5496 130.249 51.964C129.078 51.4954 128.492 50.7927 128.492 50.7927C128.492 50.7927 129.546 50.6755 130.717 51.0269Z" fill="#FAF0B6"/>
<path d="M133.88 52.6665C133.411 53.9549 133.529 54.8919 133.88 54.8919C134.231 54.8919 134.7 54.072 134.934 52.7836C135.168 51.378 134.934 50.5581 134.934 50.5581C134.934 50.5581 134.348 51.378 133.88 52.6665Z" fill="#FAF0B6"/>
<path d="M132.24 53.7205C133.411 54.0719 134.114 54.6576 133.88 55.009C133.646 55.3604 132.826 55.2432 131.654 54.6576C130.483 54.0719 130.015 53.3691 130.015 53.3691C130.015 53.3691 130.952 53.3691 132.24 53.7205Z" fill="#FAF0B6"/>
<path d="M135.285 55.5947C134.817 56.8831 134.817 57.8202 135.168 57.8202C135.52 57.8202 136.105 57.1174 136.34 55.7118C136.574 54.3062 136.457 53.4863 136.457 53.4863C136.457 53.4863 135.871 54.3062 135.285 55.5947Z" fill="#FAF0B6"/>
<path d="M133.646 56.4149C134.817 56.7663 135.52 57.469 135.285 57.8204C135.051 58.1718 134.231 58.0547 133.06 57.3519C131.889 56.7663 131.42 56.0635 131.42 56.0635C131.42 56.0635 132.357 56.0635 133.646 56.4149Z" fill="#FAF0B6"/>
<path d="M136.574 58.523C135.988 59.6943 135.988 60.7484 136.34 60.7484C136.691 60.7484 137.277 60.0456 137.628 58.7572C137.979 57.4688 137.862 56.5317 137.862 56.5317C137.862 56.5317 137.16 57.2345 136.574 58.523Z" fill="#FAF0B6"/>
<path d="M134.817 59.343C135.988 59.8115 136.574 60.5143 136.34 60.7485C136.105 60.9828 135.285 60.8657 134.114 60.1629C133.06 59.4601 132.591 58.7573 132.591 58.7573C132.591 58.7573 133.646 58.8745 134.817 59.343Z" fill="#FAF0B6"/>
<path d="M137.628 61.4512C136.925 62.6225 136.925 63.5595 137.277 63.6767C137.628 63.7938 138.214 63.091 138.682 61.6854C139.151 60.397 139.034 59.46 139.034 59.46C139.034 59.46 138.331 60.2799 137.628 61.4512Z" fill="#FAF0B6"/>
<path d="M135.871 62.154C137.042 62.6225 137.628 63.4424 137.277 63.6766C137.042 63.9109 136.105 63.7938 135.051 62.9739C133.997 62.2711 133.646 61.4512 133.646 61.4512C133.646 61.4512 134.7 61.6854 135.871 62.154Z" fill="#FAF0B6"/>
<path d="M138.565 64.4966C137.862 65.6679 137.745 66.605 138.097 66.7221C138.448 66.8392 139.151 66.1365 139.619 64.848C140.088 63.5596 140.088 62.6226 140.088 62.6226C140.088 62.6226 139.268 63.3253 138.565 64.4966Z" fill="#FAF0B6"/>
<path d="M136.691 65.0822C137.862 65.6678 138.331 66.3706 138.097 66.722C137.862 66.9563 136.925 66.722 135.988 65.9021C134.934 65.0822 134.583 64.3794 134.583 64.3794C134.583 64.3794 135.637 64.4965 136.691 65.0822Z" fill="#FAF0B6"/>
<path d="M139.385 67.6594C138.565 68.7135 138.448 69.7677 138.799 69.8848C139.151 70.002 139.854 69.4163 140.439 68.1279C141.025 66.8394 141.025 66.0195 141.025 66.0195C141.025 66.0195 140.088 66.488 139.385 67.6594Z" fill="#FAF0B6"/>
<path d="M137.511 68.128C138.565 68.7136 139.034 69.5335 138.799 69.7678C138.565 70.002 137.628 69.7678 136.691 68.8307C135.754 68.0108 135.403 67.1909 135.403 67.1909C135.403 67.1909 136.34 67.4252 137.511 68.128Z" fill="#FAF0B6"/>
<path d="M139.971 70.7047C139.151 71.7589 138.917 72.6959 139.268 72.8131C139.619 72.9302 140.322 72.3445 140.908 71.0561C141.493 69.7677 141.611 68.9478 141.611 68.9478C141.611 68.9478 140.791 69.6505 139.971 70.7047Z" fill="#FAF0B6"/>
<path d="M138.097 71.1734C139.151 71.8762 139.619 72.6961 139.268 72.9303C139.034 73.1646 138.097 72.8132 137.277 71.9933C136.34 71.0562 136.105 70.2363 136.105 70.2363C136.105 70.2363 136.925 70.4706 138.097 71.1734Z" fill="#FAF0B6"/>
<path d="M140.439 73.8674C139.619 74.9215 139.385 75.8586 139.619 75.9757C139.971 76.0928 140.673 75.6243 141.376 74.3359C142.079 73.1646 142.079 72.2275 142.079 72.2275C142.079 72.2275 141.259 72.8132 140.439 73.8674Z" fill="#FAF0B6"/>
<path d="M138.448 74.2187C139.502 74.9215 139.854 75.8585 139.502 75.9757C139.151 76.2099 138.448 75.8585 137.511 74.9215C136.574 73.9845 136.457 73.1646 136.457 73.1646C136.457 73.1646 137.394 73.3988 138.448 74.2187Z" fill="#FAF0B6"/>
<path d="M140.673 77.0296C139.736 77.9666 139.502 78.9037 139.854 79.1379C140.205 79.2551 140.908 78.7865 141.728 77.6152C142.43 76.4439 142.548 75.624 142.548 75.624C142.548 75.624 141.611 76.0925 140.673 77.0296Z" fill="#FAF0B6"/>
<path d="M138.799 77.2641C139.736 78.084 140.088 78.9039 139.854 79.1382C139.502 79.3724 138.799 78.9039 137.979 77.9669C137.16 76.9127 136.925 76.0928 136.925 76.0928C136.925 76.0928 137.745 76.4442 138.799 77.2641Z" fill="#FAF0B6"/>
<path d="M86.4421 164.174L85.0366 162.769C85.6222 161.832 85.8565 160.778 85.8565 159.489C85.8565 155.975 83.0454 153.281 79.6486 153.281C76.2518 153.281 73.4407 156.092 73.4407 159.489C73.4407 163.003 76.2518 165.697 79.6486 165.697C81.0541 165.697 82.2254 165.229 83.2796 164.409L84.568 165.697L86.4421 164.174ZM79.7657 163.354C77.6574 163.354 75.9004 161.715 75.9004 159.489C75.9004 157.264 77.5402 155.624 79.7657 155.624C81.9912 155.624 83.631 157.264 83.631 159.489C83.631 159.958 83.5139 160.426 83.3967 160.895L83.2796 160.778H79.7657L81.7569 162.769C81.0541 163.12 80.4685 163.354 79.7657 163.354Z" fill="#FAF0B6"/>
<path d="M57.0425 157.498L55.6369 157.03L57.7452 150.119L59.1508 150.588L57.0425 157.498Z" fill="#FAF0B6"/>
<path d="M52.0059 155.858L50.6003 155.273L49.8975 150.588C49.7804 150.119 49.7804 149.416 49.7804 149.416C49.7804 149.416 49.5461 150.119 49.3119 150.588L47.7892 154.101L46.5007 153.516L49.3119 146.839L50.6003 147.425L51.3031 152.11C51.4202 152.579 51.4202 153.282 51.4202 153.282C51.4202 153.282 51.6545 152.579 51.8887 152.11L53.2943 148.596L54.5827 149.182L52.0059 155.858Z" fill="#FAF0B6"/>
<path d="M43.3382 151.993L38.1844 149.065L38.7701 148.011L40.6442 149.065L43.5724 143.794L44.8609 144.497L41.9326 149.768L43.8067 150.822L43.3382 151.993Z" fill="#FAF0B6"/>
<path d="M35.2562 147.191L30.9224 144.028L31.6252 142.974L34.7877 145.2L35.7248 143.911L32.9136 141.92L33.6164 140.983L36.4275 142.974L37.5989 141.334L34.4363 138.992L35.1391 137.938L39.4729 141.1L35.2562 147.191Z" fill="#FAF0B6"/>
<path d="M27.9942 141.568L25.5344 139.343C24.4802 138.406 24.3631 137.117 25.183 136.297C25.7687 135.712 26.4715 135.478 27.4085 135.946C27.0571 135.36 27.0571 134.775 27.5256 134.072C28.1113 133.252 28.6969 132.666 28.5798 132.432L29.634 133.369C29.7511 133.603 29.1655 134.189 28.6969 134.775C28.2284 135.36 28.2284 136.063 28.9312 136.649L29.8682 137.469L31.8595 135.36L32.9136 136.415L27.9942 141.568ZM29.0483 138.289L27.877 137.234C27.2914 136.649 26.7057 136.766 26.3543 137.117C26.0029 137.586 25.8858 138.172 26.4715 138.64L27.6428 139.694L29.0483 138.289Z" fill="#FAF0B6"/>
<path d="M21.0834 135.009L20.1464 133.838L21.6691 129.387C21.7862 128.918 22.1376 128.333 22.1376 128.333C22.1376 128.333 21.552 128.801 21.2006 129.153L18.2723 131.612L17.3353 130.558L22.8404 125.873L23.7774 126.927L22.3719 131.378C22.2547 131.847 21.9033 132.432 21.9033 132.432C21.9033 132.432 22.489 131.847 22.8404 131.612L25.6515 129.153L26.5886 130.207L21.0834 135.009Z" fill="#FAF0B6"/>
<path d="M13.7043 125.756L12.8843 124.468L17.5696 118.26L18.3895 119.548L17.3353 120.837L18.7409 123.062L20.2635 122.594L21.0835 123.882L13.7043 125.756ZM17.6867 123.296L16.6325 121.657L15.2269 123.413C14.9927 123.765 14.407 124.233 14.407 124.233C14.407 124.233 15.1098 123.999 15.4612 123.882L17.6867 123.296Z" fill="#FAF0B6"/>
<path d="M10.4246 120.485L7.73059 115.331L8.78476 114.746L9.83894 116.737L15.2269 113.926L15.9297 115.214L10.5417 117.908L11.5959 119.899L10.4246 120.485Z" fill="#FAF0B6"/>
<path d="M6.32503 112.052L5.73938 110.646L12.4158 107.835L13.0015 109.241L6.32503 112.052Z" fill="#FAF0B6"/>
<path d="M7.96488 106.429C5.85654 107.015 3.98245 106.195 3.27967 104.204C2.69402 102.096 3.86532 100.339 5.85654 99.6359C7.96488 99.0502 9.83897 99.8701 10.5417 101.861C11.1274 103.97 10.0732 105.727 7.96488 106.429ZM6.32506 101.041C4.91949 101.51 3.98245 102.447 4.45097 103.735C4.80236 105.024 6.0908 105.375 7.49636 104.907C8.90192 104.438 9.72184 103.501 9.37045 102.213C9.01905 100.924 7.73062 100.69 6.32506 101.041Z" fill="#FAF0B6"/>
<path d="M1.63981 97.0591L1.28841 95.6536L4.91945 92.6082C5.27084 92.2568 5.8565 91.9054 5.8565 91.9054C5.8565 91.9054 5.15371 92.0225 4.56806 92.1396L0.819893 92.7253L0.585632 91.3197L7.73058 90.1484L7.96484 91.554L4.45093 94.7165C4.09954 95.0679 3.51389 95.4193 3.51389 95.4193C3.51389 95.4193 4.21667 95.3022 4.80232 95.185L8.55049 94.4823L8.78475 95.8878L1.63981 97.0591Z" fill="#FAF0B6"/>
<path d="M0.11713 85.346L0 83.8233L7.14495 80.895L7.26208 82.4177L5.73939 83.0034L5.85651 85.5802L7.37921 85.9316L7.49634 87.4543L0.11713 85.346ZM4.68521 85.346V83.3548L2.57687 84.0575C2.22548 84.1747 1.52269 84.4089 1.52269 84.4089C1.52269 84.4089 2.22548 84.5261 2.694 84.6432L4.68521 85.346Z" fill="#FAF0B6"/>
<path d="M0 77.7326L0.11713 76.2099L6.20791 76.5613L6.44217 73.1646L7.61347 73.3988L7.26208 78.3183L0 77.7326Z" fill="#FAF0B6"/>
<path d="M1.40558 65.1996L2.57688 59.9287L3.74818 60.163L3.0454 64.0283L4.68523 64.3797L5.50514 61.1L6.67644 61.3343L5.85653 64.6139L7.73061 65.0824L8.66766 61.2171L9.83896 61.4514L8.66766 66.7223L1.40558 65.1996Z" fill="#FAF0B6"/>
<path d="M3.51392 56.7662L3.98244 55.3607L8.43339 55.5949C8.90191 55.5949 9.60469 55.7121 9.60469 55.7121C9.60469 55.7121 9.01904 55.3607 8.66765 55.0093L5.15374 52.4324L5.62226 51.0269L11.713 55.8292L11.2445 57.0005L3.51392 56.7662Z" fill="#FAF0B6"/>
<path d="M7.02783 47.7472L9.37044 42.9448L10.5417 43.5305L8.78479 47.0444L10.1904 47.7472L11.713 44.7018L12.7672 45.2874L11.2445 48.3328L13.0015 49.1527L14.7584 45.6388L15.8126 46.2245L13.47 51.0268L7.02783 47.7472Z" fill="#FAF0B6"/>
<path d="M11.2445 39.6651L12.0644 38.3766L16.7496 38.6109C17.2182 38.6109 17.9209 38.728 17.9209 38.728C17.9209 38.728 17.2182 38.3766 16.8668 38.0253L13.7042 35.9169L14.5242 34.7456L20.6149 38.728L19.795 39.8993L15.1098 39.7822C14.6413 39.7822 13.9385 39.6651 13.9385 39.6651C13.9385 39.6651 14.6413 40.0165 14.9927 40.3679L18.1552 42.4762L17.3353 43.6475L11.2445 39.6651Z" fill="#FAF0B6"/>
<path d="M16.6325 31.8172L20.3807 27.3662L21.3177 28.1861L19.9122 29.8259L24.5974 33.6912L23.6603 34.8625L18.9751 30.9972L17.5695 32.6371L16.6325 31.8172Z" fill="#FAF0B6"/>
<path d="M27.4085 20.4556L28.5798 19.5186L35.2562 23.3839L34.0849 24.438L32.6794 23.6181L30.6882 25.3751L31.2738 26.8978L30.1025 27.8348L27.4085 20.4556ZM30.2196 24.0866L31.6252 22.7982L29.7511 21.6269C29.3997 21.3926 28.8141 20.9241 28.8141 20.9241C28.8141 20.9241 29.1655 21.6269 29.2826 21.9783L30.2196 24.0866Z" fill="#FAF0B6"/>
<path d="M33.265 15.7704L34.5534 14.9505L38.7701 16.9417C39.2387 17.1759 39.7072 17.5273 39.7072 17.5273C39.7072 17.5273 39.2387 16.9417 39.0044 16.4732L36.8961 13.3106L38.0674 12.4907L42.0498 18.5815L40.8785 19.4014L36.5447 17.4102C36.1933 17.1759 35.6076 16.8245 35.6076 16.8245C35.6076 16.8245 36.0761 17.4102 36.3104 17.8787L38.4187 21.0412L37.2474 21.8611L33.265 15.7704Z" fill="#FAF0B6"/>
<path d="M41.6984 10.4998L44.2752 9.21133C46.0322 8.39142 47.7891 9.21134 48.8433 11.0854C49.429 12.1396 49.429 13.1938 49.0776 14.1308C48.8433 14.7165 48.2577 15.3021 47.4378 15.7706L44.978 16.9419L41.6984 10.4998ZM46.735 14.7165C48.0234 14.1308 48.0234 13.0766 47.4378 11.7882C46.735 10.4998 45.7979 9.91412 44.6266 10.3826L43.5725 10.9683L45.6808 15.185L46.735 14.7165Z" fill="#FAF0B6"/>
<path d="M53.9971 4.99435L55.4026 4.64296L57.2767 7.80547C57.6281 8.39113 57.9795 9.21104 57.9795 9.21104C57.9795 9.21104 57.8624 8.274 57.8624 7.57121L57.6281 3.82304L59.0337 3.47165L60.9078 6.7513C61.2592 7.33695 61.6105 8.15687 61.6105 8.15687C61.6105 8.15687 61.6105 7.21982 61.4934 6.51704L61.3763 2.76887L62.7818 2.41748V10.031L61.4934 10.3823L59.6193 6.86843C59.3851 6.39991 59.0337 5.69713 59.0337 5.69713C59.0337 5.69713 59.1508 6.51704 59.1508 6.98556L59.3851 10.968L58.0966 11.3194L53.9971 4.99435Z" fill="#FAF0B6"/>
<path d="M66.4129 1.83218L71.6838 1.12939L71.8009 2.41783L67.9356 3.00348L68.1699 4.6433L71.5666 4.17478L71.6838 5.34609L68.287 5.81461L68.5212 7.80582L72.6208 7.10304L72.7379 8.27434L67.3499 8.97712L66.4129 1.83218Z" fill="#FAF0B6"/>
<path d="M75.5491 0.777832H78.4773C80.4685 0.777832 81.6399 2.30053 81.757 4.526C81.757 5.6973 81.4056 6.75148 80.5857 7.45426C80 7.92278 79.2972 8.15704 78.4773 8.15704H75.7833L75.5491 0.777832ZM78.2431 6.75148C79.6486 6.75148 80.1172 5.93157 80.1172 4.40887C80.1172 3.00331 79.4144 1.94914 78.2431 1.94914H77.0718V6.75148H78.2431Z" fill="#FAF0B6"/>
<path d="M85.2708 0.89502L88.082 1.12928C90.0732 1.36354 91.1274 3.00337 90.8931 5.11171C90.776 6.28301 90.3074 7.33719 89.4875 7.80571C88.9019 8.1571 88.1991 8.39136 87.2621 8.27423L84.5681 8.03997L85.2708 0.89502ZM87.2621 7.10293C88.6676 7.22006 89.2533 6.40014 89.3704 4.99458C89.4875 3.58902 89.019 2.53484 87.7306 2.41771L86.5593 2.30058L86.0908 6.9858L87.2621 7.10293Z" fill="#FAF0B6"/>
<path d="M94.7584 2.06641L96.164 2.30067L94.7584 9.44562L93.3528 9.21135L94.7584 2.06641Z" fill="#FAF0B6"/>
<path d="M99.9121 3.23779L101.318 3.70631L102.489 8.2744C102.606 8.74292 102.723 9.4457 102.723 9.4457C102.723 9.4457 102.958 8.74292 103.075 8.2744L104.129 4.64336L105.534 5.11188L103.426 12.1397L102.02 11.7883L100.732 7.22022C100.615 6.7517 100.498 6.04892 100.498 6.04892C100.498 6.04892 100.264 6.7517 100.146 7.33735L99.0922 10.9684L97.9209 10.1485L99.9121 3.23779Z" fill="#FAF0B6"/>
<path d="M111.625 14.1305C110.805 14.7162 110.103 14.7162 109.283 14.3648C108.228 13.8963 107.643 13.1935 107.409 12.3736C107.174 11.5537 107.174 10.4995 107.643 9.56246C108.111 8.50828 108.931 7.68837 109.985 7.33698C110.688 7.10272 111.625 7.10272 112.445 7.57124C114.085 8.27402 114.671 9.67959 114.319 11.0852L113.031 10.4995C113.148 9.79672 112.914 9.09394 111.977 8.74254C110.688 8.15689 109.634 8.97681 109.048 10.2652C108.463 11.6708 108.697 12.9592 109.868 13.4278C110.922 13.8963 111.977 13.4278 112.211 12.725L110.571 12.0222L111.04 10.968L113.851 12.2565L112.328 15.7704L111.274 15.0676L111.625 14.1305Z" fill="#FAF0B6"/>
<path d="M122.401 12.8423L125.095 14.5992C125.798 15.0678 126.149 15.6534 126.266 16.2391C126.384 16.8247 126.266 17.4104 125.915 17.996C125.095 19.1673 123.924 19.4016 122.635 18.5817L121.113 17.5275L119.59 19.753L118.302 18.9331L122.401 12.8423ZM121.698 16.5905L122.987 17.4104C123.572 17.8789 124.158 17.7618 124.627 17.1761C124.978 16.5905 124.861 16.0048 124.275 15.6534L122.987 14.8335L121.698 16.5905Z" fill="#FAF0B6"/>
<path d="M129.897 18.2305L131.069 19.1675L127.203 23.7356L129.78 25.9611L128.96 26.8981L125.212 23.7356L129.897 18.2305Z" fill="#FAF0B6"/>
<path d="M137.745 25.375L138.799 26.5463L135.285 33.457L134.231 32.2857L135.051 30.8801L133.294 29.006L131.889 29.7088L130.835 28.6546L137.745 25.375ZM134.231 28.4204L135.52 29.826L136.574 27.9519C136.808 27.6005 137.16 27.0148 137.16 27.0148C137.16 27.0148 136.457 27.3662 136.105 27.6005L134.231 28.4204Z" fill="#FAF0B6"/>
<path d="M142.782 30.9976L143.719 32.1689L141.845 36.5027C141.611 36.9712 141.376 37.5569 141.376 37.5569C141.376 37.5569 141.962 37.0883 142.313 36.7369L145.359 34.5115L146.179 35.6828L140.322 40.0166L139.502 38.8453L141.259 34.5115C141.376 34.0429 141.728 33.4573 141.728 33.4573C141.728 33.4573 141.142 33.9258 140.674 34.2772L137.628 36.5027L136.808 35.3314L142.782 30.9976Z" fill="#FAF0B6"/>
<path d="M148.404 39.1968L149.107 40.4852L146.764 44.5848C146.53 44.9362 146.179 45.5218 146.179 45.5218C146.179 45.5218 146.764 45.1704 147.233 44.819L150.512 42.9449L151.215 44.2334L144.89 47.7473L144.187 46.4589L146.53 42.3593C146.764 42.0079 147.116 41.4223 147.116 41.4223C147.116 41.4223 146.413 41.7736 146.061 42.125L142.782 43.9991L142.079 42.7107L148.404 39.1968Z" fill="#FAF0B6"/>
<path d="M152.972 47.7471L153.558 49.1526L146.881 52.0809L146.296 50.6753L152.972 47.7471Z" fill="#FAF0B6"/>
<path d="M154.963 52.6665L155.432 54.0721L152.386 57.7031C152.035 58.0545 151.567 58.523 151.567 58.523C151.567 58.523 152.269 58.2888 152.738 58.0545L156.369 56.8832L156.837 58.2888L149.927 60.6314L149.458 59.2258L152.504 55.5948C152.855 55.2434 153.324 54.7748 153.324 54.7748C153.324 54.7748 152.621 55.0091 152.152 55.2434L148.638 56.4147L148.17 55.0091L154.963 52.6665Z" fill="#FAF0B6"/>
<path d="M152.738 68.5962C151.801 68.2448 151.45 67.6591 151.215 66.8392C150.981 65.7851 151.215 64.848 151.801 64.1452C152.387 63.4425 153.206 62.8568 154.261 62.7397C155.432 62.5054 156.603 62.7397 157.423 63.3253C158.009 63.7938 158.477 64.4966 158.712 65.4337C159.063 67.1906 158.243 68.4791 156.955 68.9476L156.72 67.542C157.423 67.1906 157.775 66.605 157.54 65.6679C157.306 64.2624 156.018 63.911 154.612 64.1452C153.206 64.3795 152.269 65.4337 152.504 66.605C152.738 67.6591 153.675 68.2448 154.495 68.1277L154.144 66.3707L155.315 66.1364L155.9 69.1818L152.152 69.8846L151.918 68.8304L152.738 68.5962Z" fill="#FAF0B6"/>
<path d="M160 76.6782V79.8407C160 80.6606 159.766 81.3634 159.297 81.7148C158.829 82.1833 158.36 82.4176 157.657 82.4176C156.252 82.4176 155.315 81.4806 155.315 79.9579V78.2009H152.621V76.6782H160ZM156.603 78.2009V79.7236C156.603 80.5435 157.072 80.8949 157.657 80.8949C158.36 80.8949 158.712 80.4264 158.712 79.7236V78.2009H156.603Z" fill="#FAF0B6"/>
<path d="M159.883 85.9317L159.531 89.2114C159.414 90.6169 158.477 91.4369 157.306 91.3197C156.486 91.2026 155.9 90.7341 155.666 89.797C155.432 90.4998 154.963 90.7341 154.144 90.7341C153.089 90.7341 152.387 90.6169 152.152 90.8512H152.035L152.152 89.4456C152.269 89.3285 153.089 89.3285 153.909 89.3285C154.729 89.3285 155.198 88.9771 155.315 88.0401L155.432 86.8688L152.504 86.6345L152.621 85.1118L159.883 85.9317ZM156.603 87.103L156.486 88.6257C156.369 89.4456 156.837 89.9142 157.306 89.9142C157.892 89.9142 158.36 89.6799 158.477 88.86L158.594 87.2202L156.603 87.103Z" fill="#FAF0B6"/>
<path d="M155.315 94.2476C157.423 94.7162 158.712 96.4731 158.243 98.4643C157.775 100.573 155.9 101.51 153.792 101.041C151.684 100.573 150.395 98.9328 150.864 96.8245C151.215 94.7162 153.089 93.7791 155.315 94.2476ZM154.026 99.6356C155.432 99.987 156.72 99.5185 156.955 98.2301C157.306 96.9416 156.252 96.0046 154.846 95.6532C153.441 95.3018 152.152 95.7703 151.918 97.0588C151.684 98.4643 152.621 99.2842 154.026 99.6356Z" fill="#FAF0B6"/>
<path d="M156.135 105.375L154.378 110.295L153.206 109.826L154.495 106.312L152.855 105.727L151.801 108.655L150.63 108.186L151.684 105.258L148.873 104.204L149.341 102.798L156.135 105.375Z" fill="#FAF0B6"/>
<path d="M152.972 113.691L150.63 118.494L149.458 117.908L151.215 114.394L149.81 113.691L148.287 116.737L147.233 116.151L148.755 113.106L146.999 112.286L145.242 115.8L144.187 115.214L146.53 110.412L152.972 113.691Z" fill="#FAF0B6"/>
<path d="M144.773 118.728L143.953 119.899C143.133 119.548 142.548 119.782 142.079 120.602C141.728 121.188 141.493 121.89 142.079 122.359C142.665 122.71 143.133 122.242 143.953 121.422C144.89 120.485 145.827 119.665 147.116 120.485C148.287 121.305 148.287 122.593 147.467 123.999C146.53 125.404 145.359 125.873 144.07 125.17L144.89 123.999C145.593 124.35 146.179 123.999 146.53 123.413C146.999 122.71 146.999 122.125 146.53 121.89C146.061 121.539 145.593 121.89 144.773 122.71C143.719 123.764 142.782 124.584 141.376 123.764C140.088 122.945 140.088 121.539 141.025 120.133C142.079 118.494 143.367 118.025 144.773 118.728Z" fill="#FAF0B6"/>
<path d="M139.736 126.107L138.799 127.279C138.097 126.81 137.511 126.927 136.808 127.747C136.34 128.333 136.105 129.035 136.574 129.387C137.16 129.855 137.628 129.387 138.565 128.684C139.619 127.864 140.673 127.161 141.845 128.098C142.899 129.035 142.782 130.441 141.728 131.612C140.673 132.901 139.385 133.135 138.214 132.315L139.151 131.261C139.736 131.612 140.439 131.495 140.908 130.91C141.376 130.324 141.493 129.738 141.142 129.387C140.673 129.035 140.205 129.27 139.385 129.973C138.214 130.91 137.16 131.612 135.871 130.675C134.7 129.738 134.817 128.333 135.871 127.044C137.16 125.522 138.565 125.17 139.736 126.107Z" fill="#FAF0B6"/>
<path d="M137.394 136.532L136.34 137.586L131.186 132.432L132.24 131.378L137.394 136.532Z" fill="#FAF0B6"/>
<path d="M131.42 137.352C132.826 138.992 132.826 141.1 131.186 142.506C129.546 143.911 127.438 143.443 126.032 141.803C124.627 140.163 124.627 138.055 126.266 136.649C128.023 135.243 130.132 135.595 131.42 137.352ZM127.203 140.866C128.141 142.037 129.312 142.388 130.366 141.569C131.42 140.749 131.186 139.46 130.249 138.289C129.312 137.118 128.023 136.766 127.086 137.586C126.032 138.406 126.266 139.694 127.203 140.866Z" fill="#FAF0B6"/>
<path d="M125.447 146.722L124.158 147.542L119.941 145.434C119.473 145.199 119.004 144.848 119.004 144.848C119.004 144.848 119.473 145.434 119.707 145.902L121.816 149.182L120.527 150.002L116.662 143.911L117.833 143.091L122.05 145.199C122.401 145.434 122.987 145.785 122.987 145.785C122.987 145.785 122.518 145.199 122.284 144.731L120.293 141.568L121.581 140.749L125.447 146.722Z" fill="#FAF0B6"/>
<path d="M115.139 152.696L113.734 153.399L108.228 147.894L109.634 147.191L110.688 148.362L113.031 147.191L112.796 145.551L114.202 144.848L115.139 152.696ZM113.265 148.479L111.508 149.299L113.031 150.939C113.265 151.29 113.734 151.876 113.734 151.876C113.734 151.876 113.616 151.173 113.499 150.705L113.265 148.479Z" fill="#FAF0B6"/>
<path d="M108.228 155.741L106.823 156.21L104.832 150.47L101.552 151.524L101.201 150.353L105.886 148.713L108.228 155.741Z" fill="#FAF0B6"/>
<path d="M50.7174 66.4878V66.7221C50.0146 66.7221 49.3119 66.9563 48.8433 67.3077C48.3748 67.7762 48.0234 68.3619 48.0234 69.4161V88.0398C48.0234 88.9768 48.2577 89.6796 48.8433 90.1481C49.429 90.6166 50.0146 90.7338 50.7174 90.7338V90.968H42.8697V90.7338C43.5725 90.7338 44.1581 90.4995 44.7438 90.1481C45.2123 89.6796 45.5637 89.0939 45.5637 88.0398V69.4161C45.5637 68.3619 45.3294 67.6591 44.7438 67.3077C44.2753 66.9563 43.5725 66.7221 42.8697 66.7221V66.4878H50.7174Z" fill="#FAF0B6"/>
<path d="M53.1772 66.8392V66.605H67.8185V70.4703H67.5842C67.5842 68.3619 66.1786 67.3078 63.4847 67.3078H58.3309V78.4351H62.899C63.836 78.4351 64.5388 78.318 65.2416 77.9666C65.9444 77.7324 66.2958 77.0296 66.4129 75.9754H66.6472V81.5977H66.4129C66.2958 81.012 66.1786 80.4264 65.8273 80.1921C65.593 79.8407 65.2416 79.6064 65.0073 79.4893C64.7731 79.3722 64.5388 79.3722 64.3046 79.3722C63.9532 79.2551 63.4846 79.2551 63.0161 79.2551H58.3309V88.0398C58.3309 88.7426 58.448 89.2111 58.6823 89.7968C58.9166 90.2653 59.5022 90.4996 60.4393 90.4996H64.0703C65.0073 90.4996 65.7101 90.3824 66.2958 90.1482C66.8814 89.9139 67.35 89.5625 67.5842 89.094C67.9356 88.6255 68.1699 88.0398 68.4041 87.4542H68.6384L67.8185 91.3195H53.1772V91.0852H53.5286C53.9971 91.0852 54.5827 90.851 55.0513 90.4996C55.5198 90.031 55.754 89.3283 55.754 88.3912V69.5332C55.754 68.8305 55.6369 68.1277 55.2855 67.542C54.9341 66.9564 54.3485 66.7221 53.5286 66.7221H53.1772V66.8392Z" fill="#FAF0B6"/>
<path d="M104.012 66.4878V66.7221C103.543 66.8392 103.075 66.9563 102.723 67.3077C102.372 67.542 101.903 68.0105 101.552 68.7133C101.201 69.2989 100.732 70.236 100.381 71.4073L93.47 91.7879H93.2357L86.9107 71.4073H86.7935L80 91.7879H79.7657L72.7379 69.4161C72.5036 68.5961 72.1522 68.0105 71.8008 67.6591C71.4495 67.3077 71.0981 67.0734 70.8638 66.9563C70.5124 66.8392 70.161 66.8392 69.8096 66.8392V66.6049H77.4231V66.8392C76.7203 66.8392 76.2518 67.0734 75.9004 67.4248C75.549 67.7762 75.4319 68.2447 75.4319 68.7133C75.4319 69.0647 75.549 69.6503 75.6661 70.236L80.8199 86.8685H80.937L86.5593 70.236L86.325 69.5332C86.0907 68.8304 85.7394 68.2447 85.2708 67.6591C84.8023 67.1906 84.0995 66.8392 83.1625 66.8392V66.6049H91.0102V66.8392C90.0732 66.8392 89.4875 67.0734 89.2533 67.542C89.019 68.0105 88.9019 68.3619 88.9019 68.8304C88.9019 69.2989 89.019 69.7674 89.1361 70.3531L94.2899 86.9856H94.407L99.5607 71.4073C99.6779 70.9387 99.9121 70.4702 100.029 70.0017C100.146 69.4161 100.264 68.9475 100.264 68.5961C100.264 67.8934 100.146 67.3077 99.795 67.1906C99.4436 66.9563 98.9751 66.8392 98.1552 66.8392V66.6049H104.012V66.4878Z" fill="#FAF0B6"/>
<path d="M105.652 66.8392V66.605H113.734C115.139 66.605 116.31 66.8392 117.247 67.1906C118.302 67.542 119.122 68.0105 119.824 68.7133C120.527 69.299 120.996 70.1189 121.347 70.8217C121.698 71.6416 121.816 72.4615 121.816 73.2814C121.816 74.1013 121.698 74.9212 121.347 75.7411C120.996 76.5611 120.527 77.2638 119.824 77.8495C119.122 78.4351 118.302 78.9037 117.13 79.3722C116.076 79.7236 114.788 79.9578 113.265 79.9578C112.797 79.9578 111.977 79.8407 110.571 79.7236V88.157C110.571 89.9139 111.508 90.851 113.265 90.851V91.0852H105.417V90.851C106.237 90.851 106.823 90.6167 107.291 90.1482C107.76 89.6797 107.994 89.094 107.994 88.157V69.5332C107.994 68.9476 107.877 68.4791 107.76 68.1277C107.526 67.7763 107.409 67.4249 107.174 67.3078C106.94 67.1906 106.706 67.0735 106.354 66.9564C106.003 66.8392 105.886 66.8392 105.769 66.8392H105.652ZM110.805 67.4249V79.0208C111.625 79.1379 112.562 79.2551 113.382 79.2551C115.022 79.2551 116.31 78.9037 117.482 78.0837C118.536 77.2638 119.122 75.7411 119.122 73.5157C119.122 71.6416 118.653 70.236 117.716 69.0647C116.779 67.8934 115.256 67.3078 113.265 67.3078C112.445 67.1906 111.625 67.1906 110.805 67.4249Z" fill="#FAF0B6"/>
</g>
<defs>
<clipPath id="clip0_6252_4633">
<rect width="160" height="165.037" fill="white" transform="translate(0 0.777832)"/>
</clipPath>
</defs>
</svg>
