<svg viewBox="0 0 24 24" fill="none" xmlns="http://www.w3.org/2000/svg">
<path d="M2.05955 14.6801C2.12846 14.9326 2.29361 15.148 2.51955 15.2801L4.42955 16.3901V18.5901C4.42955 18.8554 4.53491 19.1097 4.72244 19.2972C4.90998 19.4848 5.16433 19.5901 5.42955 19.5901H7.62955L8.73955 21.5001C8.82681 21.6513 8.9521 21.7769 9.10297 21.8647C9.25384 21.9524 9.42504 21.9991 9.59955 22.0001C9.77904 22.0001 9.95519 21.9517 10.1096 21.8601L12.0096 20.7601L13.9196 21.8601C14.0331 21.9267 14.1586 21.9701 14.289 21.9881C14.4194 22.006 14.552 21.998 14.6793 21.9645C14.8066 21.9311 14.926 21.8728 15.0307 21.7932C15.1354 21.7135 15.2234 21.6139 15.2896 21.5001L16.3896 19.5901H18.5896C18.8548 19.5901 19.1091 19.4848 19.2967 19.2972C19.4842 19.1097 19.5896 18.8554 19.5896 18.5901V16.3901L21.4996 15.2801C21.7283 15.1482 21.8956 14.9312 21.9649 14.6764C22.0342 14.4216 21.9999 14.1498 21.8696 13.9201L20.7596 12.0001L21.8696 10.0901C21.9999 9.86052 22.0342 9.58866 21.9649 9.33387C21.8956 9.07909 21.7283 8.86206 21.4996 8.73014L19.5896 7.63014V5.43014C19.5896 5.16492 19.4842 4.91057 19.2967 4.72303C19.1091 4.53549 18.8548 4.43014 18.5896 4.43014H16.3896L15.2896 2.52014C15.1551 2.29211 14.9358 2.12669 14.6796 2.06014C14.5525 2.026 14.42 2.01727 14.2896 2.03442C14.1592 2.05158 14.0334 2.0943 13.9196 2.16014L11.9996 3.26014L10.0996 2.16014C9.87114 2.02893 9.60019 1.99314 9.34554 2.06054C9.0909 2.12795 8.87313 2.29311 8.73955 2.52014L7.62955 4.43014H5.42955C5.16433 4.43014 4.90998 4.53549 4.72244 4.72303C4.53491 4.91057 4.42955 5.16492 4.42955 5.43014V7.63014L2.52955 8.73014C2.41496 8.79547 2.31443 8.88282 2.23375 8.98717C2.15306 9.09152 2.09382 9.21079 2.05943 9.33813C2.02504 9.46547 2.01618 9.59836 2.03336 9.72914C2.05055 9.85992 2.09343 9.986 2.15955 10.1001L3.25955 12.0001L2.15955 13.9101C2.09239 14.0253 2.04894 14.1528 2.03177 14.285C2.01459 14.4173 2.02404 14.5516 2.05955 14.6801ZM5.27955 11.5101L4.38955 10.0001L5.93955 9.10014C6.08883 9.01163 6.2125 8.8858 6.29842 8.73501C6.38433 8.58423 6.42952 8.41368 6.42955 8.24014V6.43014H8.20955C8.38576 6.43084 8.55903 6.38496 8.7118 6.29716C8.86458 6.20936 8.99145 6.08274 9.07955 5.93014L9.99955 4.39014L11.5396 5.28014C11.6916 5.36791 11.864 5.41411 12.0396 5.41411C12.2151 5.41411 12.3875 5.36791 12.5396 5.28014L14.0896 4.39014L14.9996 5.93014C15.0877 6.08274 15.2145 6.20936 15.3673 6.29716C15.5201 6.38496 15.6933 6.43084 15.8696 6.43014H17.6396V8.21014C17.6406 8.38465 17.6873 8.55585 17.775 8.70672C17.8627 8.85759 17.9884 8.98288 18.1396 9.07014L19.6796 9.97014L18.7896 11.5101C18.7018 11.6622 18.6556 11.8346 18.6556 12.0101C18.6556 12.1857 18.7018 12.3581 18.7896 12.5101L19.6796 14.0501L18.1396 14.9501C17.9884 15.0374 17.8627 15.1627 17.775 15.3136C17.6873 15.4644 17.6406 15.6356 17.6396 15.8101V17.5901H15.8096C15.635 17.5912 15.4638 17.6379 15.313 17.7256C15.1621 17.8133 15.0368 17.939 14.9496 18.0901L14.0596 19.6301L12.5096 18.7401C12.3575 18.6524 12.1851 18.6062 12.0096 18.6062C11.834 18.6062 11.6616 18.6524 11.5096 18.7401L9.99955 19.6301L9.10955 18.0901C9.02145 17.9375 8.89458 17.8109 8.74181 17.7231C8.58903 17.6353 8.41576 17.5894 8.23955 17.5901H6.42955V15.8101C6.42114 15.6452 6.37198 15.4848 6.28647 15.3435C6.20097 15.2021 6.08178 15.0842 5.93955 15.0001L4.38955 14.1001L5.27955 12.5601C5.3769 12.4023 5.42845 12.2206 5.42845 12.0351C5.42845 11.8497 5.3769 11.6679 5.27955 11.5101Z" fill="currentColor"/>
</svg>
