<svg viewBox="0 0 48 48" fill="none" xmlns="http://www.w3.org/2000/svg">
<path d="M41.987 13.8C41.9537 13.4639 41.8357 13.1417 41.644 12.8636C41.4524 12.5855 41.1932 12.3606 40.891 12.21L24.891 4.20997C24.6131 4.07093 24.3067 3.99854 23.996 3.99854C23.6852 3.99854 23.3788 4.07093 23.101 4.20997L7.10096 12.21C6.7995 12.3615 6.54118 12.5866 6.34994 12.8646C6.1587 13.1425 6.04072 13.4643 6.00696 13.8C5.98496 14.014 4.08496 35.334 23.185 43.828C23.4402 43.9431 23.717 44.0027 23.997 44.0027C24.277 44.0027 24.5537 43.9431 24.809 43.828C43.909 35.334 42.009 14.016 41.987 13.8ZM23.997 39.794C10.459 33.25 9.81896 19.284 9.92896 15.27L23.997 8.23597L38.055 15.266C38.129 19.244 37.399 33.302 23.997 39.794Z" fill="currentColor"/>
<path d="M21.997 25.1721L17.411 20.5861L14.583 23.4141L21.997 30.8281L33.411 19.4141L30.583 16.5861L21.997 25.1721Z" fill="currentColor"/>
</svg>
