<svg viewBox="0 0 48 48" fill="none" xmlns="http://www.w3.org/2000/svg">
<path d="M33.208 22.0959C34.4261 20.0201 34.9522 17.6106 34.71 15.2159C34.352 11.6479 32.36 8.49394 29.104 6.33594L26.894 9.66794C29.132 11.1519 30.494 13.2659 30.73 15.6159C30.8388 16.7081 30.7029 17.8109 30.332 18.8439C29.9611 19.8769 29.3647 20.8144 28.586 21.5879L26.202 23.9719L29.438 24.9219C37.902 27.4019 38 35.9139 38 35.9999H42C42 32.4219 40.088 25.4299 33.208 22.0959Z" fill="currentColor"/>
<path d="M19 24C23.412 24 27 20.412 27 16C27 11.588 23.412 8 19 8C14.588 8 11 11.588 11 16C11 20.412 14.588 24 19 24ZM19 12C21.206 12 23 13.794 23 16C23 18.206 21.206 20 19 20C16.794 20 15 18.206 15 16C15 13.794 16.794 12 19 12ZM22 26H16C9.382 26 4 31.382 4 38V40H8V38C8 33.588 11.588 30 16 30H22C26.412 30 30 33.588 30 38V40H34V38C34 31.382 28.618 26 22 26Z" fill="currentColor"/>
</svg>
