<svg viewBox="0 0 24 24" fill="none" xmlns="http://www.w3.org/2000/svg">
<path d="M21.4396 5.08898C21.2912 5.0111 21.1257 4.97166 20.9582 4.97428C20.7906 4.9769 20.6264 5.0215 20.4806 5.10398C19.7966 5.49298 19.1256 5.68098 18.4276 5.68098C16.3926 5.68098 14.4756 4.05198 12.7056 2.29098C12.3306 1.91798 11.6426 1.91798 11.2676 2.29098C9.59356 3.95898 7.59956 5.66298 5.51156 5.66298C4.82156 5.66298 4.16056 5.47898 3.49356 5.10198C3.19556 4.93598 2.83556 4.93098 2.53356 5.08998C2.23156 5.24898 2.03256 5.55098 2.00556 5.89098C1.99456 6.01998 1.06156 18.763 11.6886 21.932C11.7813 21.9599 11.8777 21.9741 11.9746 21.974H12.0016C12.0986 21.974 12.1936 21.96 12.2866 21.933C22.9436 18.763 21.9816 6.01698 21.9706 5.88898C21.9563 5.72179 21.9002 5.56088 21.8074 5.42108C21.7146 5.28128 21.5881 5.16707 21.4396 5.08898ZM11.9876 19.931C5.00856 17.676 4.05356 10.519 3.97356 7.45398C4.47856 7.59398 4.99256 7.66298 5.51056 7.66298C8.00256 7.66298 10.1606 6.09598 11.9866 4.37998C13.8796 6.16798 15.9696 7.68098 18.4286 7.68098C18.9586 7.68098 19.4856 7.60698 20.0036 7.46098C19.9296 10.526 18.9826 17.678 11.9876 19.931Z" fill="currentColor"/>
</svg>
